<svg viewBox="160 0 1600 753" fill="none" xmlns="http://www.w3.org/2000/svg">
<path d="M1992.04 277.29V753.5H-72.9656V281.247C-75.1656 158.72 28.4244 58.3822 153.804 61.5577C263.004 64.3131 352.434 144.503 366.864 248.006C366.884 248.143 367.014 248.231 367.144 248.212C380.614 246.492 394.354 245.583 408.304 245.583C458.224 245.583 505.404 256.996 547.284 277.29C614.834 310.022 668.574 365.883 697.674 434.26C697.714 434.367 697.824 434.426 697.944 434.416C713.944 431.954 730.344 430.654 747.054 430.654C828.974 430.654 903.534 461.393 959.354 511.694C959.444 511.782 959.594 511.782 959.694 511.694C1015.51 461.393 1090.07 430.654 1171.99 430.654C1188.7 430.654 1205.09 431.954 1221.1 434.416C1221.21 434.416 1221.32 434.367 1221.37 434.26C1250.46 365.883 1304.2 310.022 1371.75 277.29C1413.63 256.996 1460.82 245.583 1510.74 245.583C1524.69 245.583 1538.42 246.492 1551.89 248.212C1552.03 248.231 1552.15 248.143 1552.17 248.006C1566.6 144.503 1656.03 64.3131 1765.24 61.5577C1889.27 58.4213 1991.96 156.57 1992.04 277.29Z" fill="#E9E7FE"/>
<path d="M557.11 395.683C564.46 399.703 573.66 394.673 573.66 386.633V283.793C573.66 275.753 564.47 270.723 557.11 274.743L509.71 300.673V265.463C509.71 255.283 501 247.013 490.24 247.013H246.99C236.23 247.013 227.51 255.283 227.51 265.463V404.973C227.51 415.153 236.23 423.423 246.99 423.423H328.38L294.4 550.183L312.37 554.503L347.51 423.423H389.72L424.86 554.503L442.83 550.183L408.85 423.423H490.25C501.01 423.423 509.72 415.153 509.72 404.973V369.763L557.12 395.693L557.11 395.683Z" fill="white"/>
<path d="M1731.58 170.783L1675.84 67.3026C1691.72 56.5826 1696.81 35.2526 1687.09 18.4126C1676.92 0.812641 1654.4 -5.22735 1636.8 4.93265C1619.87 14.7026 1613.64 35.9026 1622.22 53.1626L1604.01 63.6726L1594.99 50.1526C1589.37 41.7326 1581.39 35.4226 1571.91 31.8826L1545.15 21.8926L1541.9 30.6026L1568.66 40.5826C1576.3 43.4326 1582.73 48.5226 1587.25 55.3026L1595.94 68.3126L1582.13 76.2826C1578.14 78.5826 1576.84 83.7226 1579.26 87.6426L1657.11 213.743C1659.43 217.493 1664.32 218.733 1668.15 216.523L1728.47 181.693C1732.3 179.483 1733.67 174.643 1731.58 170.753V170.783ZM1679.46 48.3026C1677.86 51.6926 1675.55 54.7726 1672.57 57.2726C1671.87 57.8626 1670.81 57.7026 1670.36 56.9026L1668.6 53.8526L1663.17 43.7526C1663.32 42.9826 1664.09 42.3826 1664.98 42.6126L1678.54 46.2426C1679.43 46.4826 1679.86 47.4626 1679.47 48.2826L1679.46 48.3026ZM1680.47 27.7926C1681.79 31.4426 1682.26 35.2626 1681.95 39.0126C1681.87 39.9226 1681 40.5426 1680.12 40.3126L1666.55 36.6826C1665.3 36.3526 1665.08 34.6726 1666.2 34.0326L1678.37 27.0026C1679.16 26.5526 1680.16 26.9326 1680.47 27.7926ZM1661.01 27.0526L1664.64 13.4926C1664.88 12.6026 1665.86 12.1726 1666.69 12.5626C1670.07 14.1626 1673.15 16.4726 1675.66 19.4426C1676.25 20.1426 1676.09 21.2026 1675.29 21.6626L1663.13 28.6726C1662.01 29.3226 1660.67 28.2926 1661 27.0426L1661.01 27.0526ZM1646.17 11.5526C1649.82 10.2226 1653.65 9.76264 1657.39 10.0826C1658.3 10.1626 1658.93 11.0326 1658.69 11.9126L1655.06 25.4726C1654.73 26.7226 1653.05 26.9426 1652.41 25.8226L1645.39 13.6526C1644.93 12.8626 1645.32 11.8626 1646.18 11.5526H1646.17ZM1630.93 25.3426C1632.53 21.9526 1634.86 18.8726 1637.83 16.3626C1638.53 15.7726 1639.58 15.9426 1640.04 16.7326L1647.06 28.8926C1647.71 30.0126 1646.68 31.3526 1645.43 31.0226L1631.85 27.3826C1630.97 27.1526 1630.54 26.1726 1630.92 25.3426H1630.93ZM1628.45 34.6326C1628.52 33.7226 1629.4 33.0926 1630.28 33.3326L1643.84 36.9626C1645.09 37.3026 1645.31 38.9726 1644.19 39.6126L1632.03 46.6326C1631.24 47.0926 1630.24 46.7026 1629.93 45.8426C1628.6 42.1826 1628.14 38.3626 1628.45 34.6226V34.6326Z" fill="white"/>
<path d="M1490.71 149.433L1501.13 121.273L1529.29 110.853L1501.13 100.433L1490.71 72.2727L1480.29 100.433L1452.13 110.853L1480.29 121.273L1490.71 149.433Z" fill="#F6F5FF"/>
<path d="M599.75 472.473L591.2 495.593L568.08 504.143L591.2 512.703L599.75 535.813L608.31 512.703L631.42 504.143L608.31 495.593L599.75 472.473Z" fill="white"/>
<path d="M461.159 178.703L506.799 152.353C510.369 150.293 510.369 145.143 506.799 143.083L461.159 116.733C457.589 114.673 453.129 117.253 453.129 121.373V174.073C453.129 178.193 457.589 180.773 461.159 178.713V178.703Z" fill="#F6F5FF"/>
<path d="M290.719 167.883C293.049 168.453 295.609 167.883 297.479 166.113L300.579 163.193C303.519 160.423 303.669 155.793 300.899 152.843L265.619 115.333C262.849 112.393 258.219 112.243 255.269 115.013L252.169 117.933C250.289 119.693 249.559 122.213 249.989 124.573C247.799 124.043 245.419 124.523 243.579 126.043C243.179 125.533 242.789 125.003 242.409 124.473C224.269 99.2527 230.029 63.9627 255.249 45.8227C280.469 27.6827 315.759 33.4427 333.899 58.6627C334.279 59.1926 334.649 59.7327 335.009 60.2727C332.979 61.5326 331.759 63.6327 331.579 65.8827C329.479 64.7327 326.859 64.6226 324.589 65.8426L320.839 67.8527C317.279 69.7627 315.939 74.2027 317.849 77.7627L342.189 123.143C344.099 126.703 348.539 128.043 352.099 126.133L355.849 124.123C358.119 122.903 359.479 120.663 359.679 118.273C361.779 119.423 364.399 119.533 366.669 118.313L370.419 116.303C373.979 114.393 375.319 109.953 373.409 106.393C377.909 88.3126 368.719 69.6126 351.639 62.1426L350.509 61.6527C348.759 58.0027 346.689 54.5026 344.309 51.1926C322.039 20.2326 278.729 13.1526 247.759 35.4226C216.799 57.6926 209.719 101.003 231.989 131.973C234.409 135.333 237.109 138.443 240.039 141.293L240.099 141.683C242.699 159.903 256.899 174.293 275.089 177.123C277.859 180.063 282.489 180.213 285.439 177.443L288.539 174.523C290.419 172.763 291.149 170.243 290.719 167.883Z" fill="white"/>
<path d="M1650.48 501.293C1563.17 494.513 1472.95 382.193 1456.73 361.083L1488.42 334.583C1496.22 328.063 1506.74 325.863 1516.5 328.703L1581.68 347.733C1602.36 330.443 1602.16 298.593 1581.28 281.543L1489.88 206.963C1475.15 194.953 1453.97 195.083 1439.4 207.273L1300.54 323.393C1285.96 335.593 1282.09 356.413 1291.31 373.033L1348.54 476.183C1356.49 490.513 1371.2 498.283 1386.14 498.283C1395.77 498.283 1405.51 495.063 1413.61 488.283L1406.41 420.763C1405.33 410.663 1409.37 400.693 1417.15 394.173L1445.58 370.393C1453.52 380.753 1475.79 408.663 1506.46 437.573C1557.92 486.073 1605.99 512.373 1649.33 515.743C1652.46 515.983 1655.55 516.113 1658.62 516.113C1689.02 516.113 1716.37 504.163 1740.03 480.503L1729.78 470.253C1706.87 493.163 1680.19 503.613 1650.47 501.303L1650.48 501.293ZM1354.73 351.803L1349.24 356.393C1348.02 357.413 1347.86 359.233 1348.88 360.453L1353.47 365.943C1354.49 367.163 1354.33 368.983 1353.11 370.003L1343.15 378.333C1341.93 379.353 1340.11 379.183 1339.09 377.973L1334.5 372.483C1333.48 371.263 1331.66 371.103 1330.44 372.123L1324.95 376.713C1323.73 377.723 1321.91 377.563 1320.89 376.353L1312.56 366.393C1311.55 365.173 1311.71 363.353 1312.93 362.333L1318.42 357.743C1319.64 356.723 1319.8 354.903 1318.78 353.683L1314.19 348.193C1313.17 346.973 1313.33 345.153 1314.55 344.133L1324.51 335.803C1325.73 334.793 1327.55 334.953 1328.57 336.163L1333.16 341.653C1334.18 342.873 1336 343.043 1337.22 342.013L1342.71 337.423C1343.93 336.403 1345.75 336.563 1346.77 337.783L1355.1 347.743C1356.11 348.963 1355.95 350.783 1354.73 351.803ZM1410.05 375.603C1402.31 382.073 1390.79 381.053 1384.31 373.303C1377.84 365.563 1378.86 354.043 1386.61 347.563C1394.35 341.093 1405.87 342.113 1412.35 349.863C1418.82 357.603 1417.8 369.123 1410.05 375.603ZM1426.56 283.603L1378.28 323.973C1375.75 326.083 1372 325.743 1369.89 323.223L1353.31 303.393C1351.19 300.863 1351.53 297.113 1354.06 295.003L1402.34 254.633C1404.86 252.523 1408.62 252.853 1410.73 255.383L1427.31 275.213C1429.42 277.733 1429.08 281.493 1426.56 283.603ZM1474.47 230.543C1477.36 228.113 1481.68 228.503 1484.1 231.393C1486.52 234.283 1486.14 238.603 1483.24 241.023C1480.35 243.443 1476.04 243.063 1473.62 240.163C1471.2 237.273 1471.58 232.963 1474.47 230.543ZM1472.53 252.313C1475.42 249.893 1479.74 250.273 1482.16 253.163C1484.58 256.063 1484.2 260.373 1481.3 262.793C1478.41 265.213 1474.1 264.833 1471.68 261.943C1469.25 259.043 1469.64 254.733 1472.53 252.313ZM1452.69 228.593C1455.58 226.173 1459.89 226.563 1462.31 229.453C1464.73 232.343 1464.35 236.663 1461.46 239.083C1458.57 241.503 1454.25 241.123 1451.83 238.223C1449.41 235.333 1449.79 231.023 1452.69 228.593ZM1450.75 250.373C1453.65 247.953 1457.96 248.333 1460.38 251.223C1462.8 254.123 1462.42 258.433 1459.53 260.853C1456.63 263.273 1452.32 262.893 1449.9 260.003C1447.48 257.103 1447.86 252.793 1450.75 250.373ZM1448.3 295.983C1456.04 289.513 1467.56 290.533 1474.05 298.283C1480.52 306.023 1479.49 317.543 1471.75 324.023C1464.01 330.493 1452.49 329.473 1446.01 321.723C1439.54 313.983 1440.56 302.463 1448.3 295.983Z" fill="white"/>
<path d="M1154.76 556.193C1151.97 551.473 1146.9 548.583 1141.42 548.583H790.839C785.359 548.583 780.289 551.473 777.499 556.193L735.119 627.733C728.989 638.073 736.449 651.143 748.459 651.143H1183.81C1195.82 651.143 1203.28 638.063 1197.15 627.733L1154.77 556.193H1154.76ZM1151.6 586.653V602.093H1128.03V586.653H1151.6ZM1112.24 563.353H1135.81V578.793H1112.24V563.353ZM1120.02 586.653V602.093H1096.45V586.653H1120.02ZM1080.66 563.353H1104.23V578.793H1080.66V563.353ZM1088.44 586.653V602.093H1064.87V586.653H1088.44ZM1049.08 563.353H1072.65V578.793H1049.08V563.353ZM1056.85 586.653V602.093H1033.29V586.653H1056.85ZM1017.5 563.353H1041.06V578.793H1017.5V563.353ZM1025.27 586.653V602.093H1001.71V586.653H1025.27ZM985.919 563.353H1009.48V578.793H985.919V563.353ZM993.689 586.653V602.093H970.129V586.653H993.689ZM954.339 563.353H977.899V578.793H954.339V563.353ZM962.109 586.653V602.093H938.549V586.653H962.109ZM922.759 563.353H946.319V578.793H922.759V563.353ZM930.529 586.653V602.093H906.969V586.653H930.529ZM891.169 563.353H914.739V578.793H891.169V563.353ZM898.949 586.653V602.093H875.379V586.653H898.949ZM859.589 563.353H883.159V578.793H859.589V563.353ZM867.369 586.653V602.093H843.799V586.653H867.369ZM828.009 563.353H851.579V578.793H828.009V563.353ZM835.789 586.653V602.093H812.219V586.653H835.789ZM796.429 563.353H819.999V578.793H796.429V563.353ZM780.639 586.653H804.209V602.093H780.639V586.653ZM788.119 625.403H764.559V609.963H788.119V625.403ZM820.289 625.403H796.719V609.963H820.289V625.403ZM852.449 625.403H828.879V609.963H852.449V625.403ZM884.609 625.403H861.039V609.963H884.609V625.403ZM1040.1 625.403H892.139V609.963H1040.1V625.403ZM1071.19 625.403H1047.63V609.963H1071.19V625.403ZM1103.36 625.403H1079.79V609.963H1103.36V625.403ZM1135.52 625.403H1111.95V609.963H1135.52V625.403ZM1167.68 625.403H1144.12V609.963H1167.68V625.403Z" fill="white"/>
<g opacity="0.7">
<path d="M552.11 395.683C559.46 399.703 568.66 394.673 568.66 386.633V283.793C568.66 275.753 559.47 270.723 552.11 274.743L504.71 300.673V265.463C504.71 255.283 496 247.013 485.24 247.013H241.99C231.23 247.013 222.51 255.283 222.51 265.463V404.973C222.51 415.153 231.23 423.423 241.99 423.423H323.38L289.4 550.183L307.37 554.503L342.51 423.423H384.72L419.86 554.503L437.83 550.183L403.85 423.423H485.25C496.01 423.423 504.72 415.153 504.72 404.973V369.763L552.12 395.693L552.11 395.683ZM370.07 320.273L374.95 337.313L379.76 320.273H386.96L378.35 345.213H371.54L362.83 320.273H370.06H370.07ZM347.11 320.273H353.96V345.213H347.11V320.273ZM319.54 320.273H326.39V339.243H337.7V345.213H319.55V320.273H319.54ZM413.65 345.213H395.88V320.273H413.34V326.243H402.74V329.763H411.8V335.303H402.74V339.243H413.66V345.213H413.65Z" fill="url(#paint0_linear_124_39)"/>
<path d="M1726.57 170.783L1670.83 67.3026C1686.71 56.5826 1691.8 35.2526 1682.08 18.4126C1671.91 0.812641 1649.39 -5.22735 1631.79 4.93265C1614.86 14.7026 1608.63 35.9026 1617.21 53.1626L1599 63.6726L1589.98 50.1526C1584.36 41.7326 1576.38 35.4226 1566.9 31.8826L1540.14 21.8926L1536.89 30.6026L1563.65 40.5826C1571.29 43.4326 1577.72 48.5226 1582.24 55.3026L1590.93 68.3126L1577.12 76.2826C1573.13 78.5826 1571.83 83.7226 1574.25 87.6426L1652.1 213.743C1654.42 217.493 1659.31 218.733 1663.14 216.523L1723.46 181.693C1727.29 179.483 1728.66 174.643 1726.57 170.753V170.783ZM1674.45 48.3026C1672.85 51.6926 1670.54 54.7726 1667.56 57.2726C1666.86 57.8626 1665.8 57.7026 1665.35 56.9026L1663.59 53.8526L1658.16 43.7526C1658.31 42.9826 1659.08 42.3826 1659.97 42.6126L1673.53 46.2426C1674.42 46.4826 1674.85 47.4626 1674.46 48.2826L1674.45 48.3026ZM1675.47 27.7926C1676.79 31.4426 1677.26 35.2626 1676.95 39.0126C1676.87 39.9226 1676 40.5426 1675.12 40.3126L1661.55 36.6826C1660.3 36.3526 1660.08 34.6726 1661.2 34.0326L1673.37 27.0026C1674.16 26.5526 1675.16 26.9326 1675.47 27.7926ZM1656 27.0526L1659.63 13.4926C1659.87 12.6026 1660.85 12.1726 1661.68 12.5626C1665.06 14.1626 1668.14 16.4726 1670.65 19.4426C1671.24 20.1426 1671.08 21.2026 1670.28 21.6626L1658.12 28.6726C1657 29.3226 1655.66 28.2926 1655.99 27.0426L1656 27.0526ZM1641.17 11.5526C1644.82 10.2226 1648.65 9.76264 1652.39 10.0826C1653.3 10.1626 1653.93 11.0326 1653.69 11.9126L1650.06 25.4726C1649.73 26.7226 1648.05 26.9426 1647.41 25.8226L1640.39 13.6526C1639.93 12.8626 1640.32 11.8626 1641.18 11.5526H1641.17ZM1625.93 25.3426C1627.53 21.9526 1629.86 18.8726 1632.83 16.3626C1633.53 15.7726 1634.58 15.9426 1635.04 16.7326L1642.06 28.8926C1642.71 30.0126 1641.68 31.3526 1640.43 31.0226L1626.85 27.3826C1625.97 27.1526 1625.54 26.1726 1625.92 25.3426H1625.93ZM1623.45 34.6326C1623.52 33.7226 1624.4 33.0926 1625.28 33.3326L1638.84 36.9626C1640.09 37.3026 1640.31 38.9726 1639.19 39.6126L1627.03 46.6326C1626.24 47.0926 1625.24 46.7026 1624.93 45.8426C1623.6 42.1826 1623.14 38.3626 1623.45 34.6226V34.6326Z" fill="url(#paint1_linear_124_39)"/>
<path d="M285.719 167.883C288.049 168.453 290.609 167.883 292.479 166.113L295.579 163.193C298.519 160.423 298.669 155.793 295.899 152.843L260.619 115.333C257.849 112.393 253.219 112.243 250.269 115.013L247.169 117.933C245.289 119.693 244.559 122.213 244.989 124.573C242.799 124.043 240.419 124.523 238.579 126.043C238.179 125.533 237.789 125.003 237.409 124.473C219.269 99.2527 225.029 63.9627 250.249 45.8227C275.469 27.6827 310.759 33.4427 328.899 58.6627C329.279 59.1926 329.649 59.7327 330.009 60.2727C327.979 61.5326 326.759 63.6327 326.579 65.8827C324.479 64.7327 321.859 64.6226 319.589 65.8426L315.839 67.8527C312.279 69.7627 310.939 74.2027 312.849 77.7627L337.189 123.143C339.099 126.703 343.539 128.043 347.099 126.133L350.849 124.123C353.119 122.903 354.479 120.663 354.679 118.273C356.779 119.423 359.399 119.533 361.669 118.313L365.419 116.303C368.979 114.393 370.319 109.953 368.409 106.393C372.909 88.3126 363.719 69.6126 346.639 62.1426L345.509 61.6527C343.759 58.0027 341.689 54.5026 339.309 51.1926C317.039 20.2326 273.729 13.1526 242.759 35.4226C211.799 57.6926 204.719 101.003 226.989 131.973C229.409 135.333 232.109 138.443 235.039 141.293L235.099 141.683C237.699 159.903 251.899 174.293 270.089 177.123C272.859 180.063 277.489 180.213 280.439 177.443L283.539 174.523C285.419 172.763 286.149 170.243 285.719 167.883Z" fill="url(#paint2_linear_124_39)"/>
<path d="M1645.48 501.293C1558.17 494.513 1467.95 382.193 1451.73 361.083L1483.42 334.583C1491.22 328.063 1501.74 325.863 1511.5 328.703L1576.68 347.733C1597.36 330.443 1597.16 298.593 1576.28 281.543L1484.88 206.963C1470.15 194.953 1448.97 195.083 1434.4 207.273L1295.54 323.393C1280.96 335.593 1277.09 356.413 1286.31 373.033L1343.54 476.183C1351.49 490.513 1366.2 498.283 1381.14 498.283C1390.77 498.283 1400.51 495.063 1408.61 488.283L1401.41 420.763C1400.33 410.663 1404.37 400.693 1412.15 394.173L1440.58 370.393C1448.52 380.753 1470.79 408.663 1501.46 437.573C1552.92 486.073 1600.99 512.373 1644.33 515.743C1647.46 515.983 1650.55 516.113 1653.62 516.113C1684.02 516.113 1711.37 504.163 1735.03 480.503L1724.78 470.253C1701.87 493.163 1675.19 503.613 1645.47 501.303L1645.48 501.293ZM1349.72 351.803L1344.23 356.393C1343.01 357.413 1342.85 359.233 1343.87 360.453L1348.46 365.943C1349.48 367.163 1349.32 368.983 1348.1 370.003L1338.14 378.333C1336.92 379.353 1335.1 379.183 1334.08 377.973L1329.49 372.483C1328.47 371.263 1326.65 371.103 1325.43 372.123L1319.94 376.713C1318.72 377.723 1316.9 377.563 1315.88 376.353L1307.55 366.393C1306.54 365.173 1306.7 363.353 1307.92 362.333L1313.41 357.743C1314.63 356.723 1314.79 354.903 1313.77 353.683L1309.18 348.193C1308.16 346.973 1308.32 345.153 1309.54 344.133L1319.5 335.803C1320.72 334.793 1322.54 334.953 1323.56 336.163L1328.15 341.653C1329.17 342.873 1330.99 343.043 1332.21 342.013L1337.7 337.423C1338.92 336.403 1340.74 336.563 1341.76 337.783L1350.09 347.743C1351.1 348.963 1350.94 350.783 1349.72 351.803ZM1405.05 375.603C1397.31 382.073 1385.79 381.053 1379.31 373.303C1372.84 365.563 1373.86 354.043 1381.61 347.563C1389.35 341.093 1400.87 342.113 1407.35 349.863C1413.82 357.603 1412.8 369.123 1405.05 375.603ZM1421.56 283.603L1373.28 323.973C1370.75 326.083 1367 325.743 1364.89 323.223L1348.31 303.393C1346.19 300.863 1346.53 297.113 1349.06 295.003L1397.34 254.633C1399.86 252.523 1403.62 252.853 1405.73 255.383L1422.31 275.213C1424.42 277.733 1424.08 281.493 1421.56 283.603ZM1469.47 230.543C1472.36 228.113 1476.68 228.503 1479.1 231.393C1481.52 234.283 1481.14 238.603 1478.24 241.023C1475.35 243.443 1471.04 243.063 1468.62 240.163C1466.2 237.273 1466.58 232.963 1469.47 230.543ZM1467.53 252.313C1470.42 249.893 1474.74 250.273 1477.16 253.163C1479.58 256.063 1479.2 260.373 1476.3 262.793C1473.41 265.213 1469.1 264.833 1466.68 261.943C1464.25 259.043 1464.64 254.733 1467.53 252.313ZM1447.69 228.593C1450.58 226.173 1454.89 226.563 1457.31 229.453C1459.73 232.343 1459.35 236.663 1456.46 239.083C1453.57 241.503 1449.25 241.123 1446.83 238.223C1444.41 235.333 1444.79 231.023 1447.69 228.593ZM1445.74 250.373C1448.64 247.953 1452.95 248.333 1455.37 251.223C1457.79 254.123 1457.41 258.433 1454.52 260.853C1451.62 263.273 1447.31 262.893 1444.89 260.003C1442.47 257.103 1442.85 252.793 1445.74 250.373ZM1443.29 295.983C1451.03 289.513 1462.55 290.533 1469.04 298.283C1475.51 306.023 1474.48 317.543 1466.74 324.023C1459 330.493 1447.48 329.473 1441 321.723C1434.53 313.983 1435.55 302.463 1443.29 295.983Z" fill="url(#paint3_linear_124_39)"/>
<path d="M1149.75 556.193C1146.96 551.473 1141.89 548.583 1136.41 548.583H785.829C780.349 548.583 775.279 551.473 772.489 556.193L730.109 627.733C723.979 638.073 731.439 651.143 743.449 651.143H1178.8C1190.81 651.143 1198.27 638.063 1192.14 627.733L1149.76 556.193H1149.75ZM1146.6 586.653V602.093H1123.03V586.653H1146.6ZM1107.24 563.353H1130.81V578.793H1107.24V563.353ZM1115.02 586.653V602.093H1091.45V586.653H1115.02ZM1075.66 563.353H1099.23V578.793H1075.66V563.353ZM1083.44 586.653V602.093H1059.87V586.653H1083.44ZM1044.08 563.353H1067.65V578.793H1044.08V563.353ZM1051.85 586.653V602.093H1028.29V586.653H1051.85ZM1012.5 563.353H1036.06V578.793H1012.5V563.353ZM1020.27 586.653V602.093H996.709V586.653H1020.27ZM980.919 563.353H1004.48V578.793H980.919V563.353ZM988.689 586.653V602.093H965.129V586.653H988.689ZM949.339 563.353H972.899V578.793H949.339V563.353ZM957.109 586.653V602.093H933.549V586.653H957.109ZM917.759 563.353H941.319V578.793H917.759V563.353ZM925.529 586.653V602.093H901.969V586.653H925.529ZM886.169 563.353H909.739V578.793H886.169V563.353ZM893.949 586.653V602.093H870.379V586.653H893.949ZM854.589 563.353H878.159V578.793H854.589V563.353ZM862.369 586.653V602.093H838.799V586.653H862.369ZM823.009 563.353H846.579V578.793H823.009V563.353ZM830.789 586.653V602.093H807.219V586.653H830.789ZM791.429 563.353H814.999V578.793H791.429V563.353ZM775.639 586.653H799.209V602.093H775.639V586.653ZM783.119 625.403H759.559V609.963H783.119V625.403ZM815.289 625.403H791.719V609.963H815.289V625.403ZM847.449 625.403H823.879V609.963H847.449V625.403ZM879.609 625.403H856.039V609.963H879.609V625.403ZM1035.1 625.403H887.139V609.963H1035.1V625.403ZM1066.19 625.403H1042.63V609.963H1066.19V625.403ZM1098.35 625.403H1074.78V609.963H1098.35V625.403ZM1130.51 625.403H1106.94V609.963H1130.51V625.403ZM1162.67 625.403H1139.11V609.963H1162.67V625.403Z" fill="url(#paint4_linear_124_39)"/>
</g>
<path d="M1295.39 651L1286.84 674.12L1263.72 682.67L1286.84 691.23L1295.39 714.34L1303.95 691.23L1327.06 682.67L1303.95 674.12L1295.39 651Z" fill="white"/>
<defs>
<linearGradient id="paint0_linear_124_39" x1="377.22" y1="567.623" x2="405.04" y2="201.343" gradientUnits="userSpaceOnUse">
<stop offset="0.05" stop-color="#E9E7FE"/>
<stop offset="0.14" stop-color="#CFCBFB"/>
<stop offset="0.31" stop-color="#8E87F4"/>
<stop offset="0.42" stop-color="#665CF0"/>
<stop offset="0.69" stop-color="#5A7AE6"/>
<stop offset="0.98" stop-color="#4D9FDC"/>
</linearGradient>
<linearGradient id="paint1_linear_124_39" x1="1636.68" y1="234.963" x2="1628.77" y2="0.00263203" gradientUnits="userSpaceOnUse">
<stop stop-color="#E9E7FE"/>
<stop offset="0.09" stop-color="#D8D5FC"/>
<stop offset="0.27" stop-color="#ADA8F7"/>
<stop offset="0.51" stop-color="#695FF0"/>
<stop offset="0.52" stop-color="#665CF0"/>
<stop offset="0.75" stop-color="#5A7AE6"/>
<stop offset="0.98" stop-color="#4D9FDC"/>
</linearGradient>
<linearGradient id="paint2_linear_124_39" x1="279.249" y1="208.203" x2="301.829" y2="9.26264" gradientUnits="userSpaceOnUse">
<stop stop-color="#E9E7FE"/>
<stop offset="0.09" stop-color="#CFCBFB"/>
<stop offset="0.3" stop-color="#8E87F4"/>
<stop offset="0.42" stop-color="#665CF0"/>
<stop offset="0.69" stop-color="#5A7AE6"/>
<stop offset="0.98" stop-color="#4D9FDC"/>
</linearGradient>
<linearGradient id="paint3_linear_124_39" x1="1511.77" y1="570.673" x2="1501.21" y2="119.743" gradientUnits="userSpaceOnUse">
<stop offset="0.12" stop-color="#E9E7FE"/>
<stop offset="0.19" stop-color="#CFCBFB"/>
<stop offset="0.33" stop-color="#8E87F4"/>
<stop offset="0.42" stop-color="#665CF0"/>
<stop offset="0.69" stop-color="#5A7AE6"/>
<stop offset="0.98" stop-color="#4D9FDC"/>
</linearGradient>
<linearGradient id="paint4_linear_124_39" x1="959.719" y1="678.243" x2="965.579" y2="499.613" gradientUnits="userSpaceOnUse">
<stop stop-color="#E9E7FE"/>
<stop offset="0.09" stop-color="#CFCBFB"/>
<stop offset="0.3" stop-color="#8E87F4"/>
<stop offset="0.42" stop-color="#665CF0"/>
<stop offset="0.69" stop-color="#5A7AE6"/>
<stop offset="0.98" stop-color="#4D9FDC"/>
</linearGradient>
</defs>
</svg>
