<svg width="390" height="314" viewBox="0 0 390 314" fill="none" xmlns="http://www.w3.org/2000/svg">
<path d="M662.331 98.4285V313.966H-272.315V100.22C-273.31 44.7625 -226.424 -0.651398 -169.676 0.785889C-120.251 2.03301 -79.7739 38.3278 -73.2427 85.1745C-73.2337 85.2365 -73.1748 85.2762 -73.116 85.2674C-67.0193 84.4891 -60.8004 84.0778 -54.4865 84.0778C-31.8922 84.0778 -10.538 89.2432 8.41733 98.4285C38.9912 113.244 63.3145 138.527 76.4855 169.475C76.5036 169.523 76.5533 169.55 76.6077 169.546C83.8495 168.431 91.2723 167.843 98.8354 167.843C135.913 167.843 169.66 181.756 194.925 204.522C194.965 204.562 195.033 204.562 195.079 204.522C220.343 181.756 254.09 167.843 291.168 167.843C298.731 167.843 306.149 168.431 313.396 169.546C313.445 169.546 313.495 169.523 313.518 169.475C326.684 138.527 351.008 113.244 381.581 98.4285C400.537 89.2432 421.895 84.0778 444.49 84.0778C450.804 84.0778 457.018 84.4891 463.115 85.2674C463.178 85.2762 463.232 85.2365 463.241 85.1745C469.773 38.3278 510.249 2.03301 559.679 0.785889C615.816 -0.633708 662.295 43.7895 662.331 98.4285Z" fill="#E9E7FE"/>
<path d="M103.533 184.589C106.396 186.155 109.979 184.195 109.979 181.063V141.004C109.979 137.872 106.4 135.913 103.533 137.479L85.0688 147.579V133.864C85.0688 129.898 81.6759 126.677 77.4846 126.677H-17.2693C-21.4607 126.677 -24.8574 129.898 -24.8574 133.864V188.208C-24.8574 192.173 -21.4607 195.394 -17.2693 195.394H14.4348L1.19843 244.772L8.19834 246.454L21.8865 195.394H38.3287L52.0169 246.454L59.0168 244.772L45.7805 195.394H77.4885C81.6798 195.394 85.0727 192.173 85.0727 188.208V174.492L103.537 184.593L103.533 184.589Z" fill="white"/>
<path d="M429.307 224.696C395.297 222.055 360.154 178.303 353.835 170.08L366.18 159.757C369.218 157.217 373.316 156.36 377.118 157.467L402.508 164.88C410.563 158.145 410.485 145.738 402.352 139.096L366.748 110.045C361.011 105.367 352.76 105.417 347.085 110.166L292.994 155.398C287.315 160.151 285.807 168.261 289.399 174.735L311.692 214.915C314.789 220.497 320.519 223.524 326.338 223.524C330.089 223.524 333.883 222.269 337.039 219.628L334.234 193.327C333.813 189.393 335.387 185.509 338.418 182.969L349.492 173.706C352.585 177.742 361.26 188.614 373.207 199.875C393.252 218.768 411.977 229.012 428.859 230.325C430.079 230.418 431.282 230.469 432.478 230.469C444.32 230.469 454.974 225.814 464.19 216.598L460.197 212.605C451.273 221.529 440.88 225.6 429.303 224.7L429.307 224.696ZM314.103 166.465L311.964 168.253C311.489 168.65 311.427 169.359 311.824 169.834L313.612 171.973C314.009 172.448 313.947 173.157 313.472 173.554L309.592 176.799C309.117 177.197 308.408 177.13 308.011 176.659L306.223 174.52C305.825 174.045 305.116 173.983 304.641 174.38L302.503 176.168C302.027 176.562 301.319 176.499 300.921 176.028L297.676 172.148C297.283 171.673 297.345 170.964 297.821 170.567L299.959 168.779C300.434 168.381 300.497 167.673 300.099 167.197L298.311 165.059C297.914 164.584 297.976 163.875 298.452 163.477L302.331 160.232C302.807 159.839 303.515 159.901 303.913 160.373L305.701 162.511C306.098 162.986 306.807 163.053 307.282 162.651L309.421 160.863C309.896 160.466 310.605 160.528 311.002 161.004L314.247 164.883C314.641 165.359 314.578 166.068 314.103 166.465ZM335.652 175.736C332.637 178.256 328.15 177.859 325.625 174.84C323.105 171.825 323.502 167.338 326.521 164.813C329.536 162.293 334.024 162.69 336.548 165.709C339.068 168.724 338.671 173.212 335.652 175.736ZM342.083 139.899L323.276 155.624C322.291 156.446 320.83 156.314 320.008 155.332L313.55 147.608C312.724 146.622 312.856 145.161 313.842 144.339L332.649 128.614C333.63 127.792 335.095 127.921 335.917 128.906L342.375 136.631C343.197 137.612 343.065 139.077 342.083 139.899ZM360.746 119.23C361.871 118.284 363.554 118.436 364.497 119.561C365.44 120.687 365.292 122.37 364.162 123.312C363.036 124.255 361.357 124.107 360.415 122.977C359.472 121.852 359.62 120.173 360.746 119.23ZM359.99 127.71C361.116 126.768 362.799 126.916 363.741 128.041C364.684 129.171 364.536 130.85 363.406 131.793C362.28 132.735 360.602 132.587 359.659 131.462C358.712 130.332 358.864 128.653 359.99 127.71ZM352.262 118.471C353.387 117.528 355.066 117.68 356.009 118.806C356.952 119.931 356.804 121.614 355.678 122.557C354.552 123.499 352.869 123.351 351.927 122.222C350.984 121.096 351.132 119.417 352.262 118.471ZM351.506 126.955C352.636 126.012 354.314 126.16 355.257 127.286C356.2 128.415 356.052 130.094 354.926 131.037C353.796 131.98 352.118 131.832 351.175 130.706C350.232 129.576 350.38 127.897 351.506 126.955ZM350.552 144.721C353.567 142.201 358.054 142.598 360.582 145.617C363.102 148.632 362.701 153.12 359.686 155.644C356.671 158.164 352.184 157.767 349.66 154.748C347.139 151.733 347.537 147.245 350.552 144.721Z" fill="white"/>
<path d="M284.384 242.476C283.094 240.293 280.75 238.957 278.216 238.957H116.105C113.571 238.957 111.226 240.293 109.936 242.476L90.3394 275.556C87.5049 280.338 90.9545 286.381 96.508 286.381H297.817C303.371 286.381 306.82 280.333 303.986 275.556L284.389 242.476H284.384ZM282.923 256.561V263.7H272.024V256.561H282.923ZM264.723 245.787H275.622V252.926H264.723V245.787ZM268.32 256.561V263.7H257.421V256.561H268.32ZM250.12 245.787H261.019V252.926H250.12V245.787ZM253.717 256.561V263.7H242.818V256.561H253.717ZM235.517 245.787H246.416V252.926H235.517V245.787ZM239.11 256.561V263.7H228.216V256.561H239.11ZM220.914 245.787H231.808V252.926H220.914V245.787ZM224.507 256.561V263.7H213.613V256.561H224.507ZM206.311 245.787H217.206V252.926H206.311V245.787ZM209.904 256.561V263.7H199.01V256.561H209.904ZM191.708 245.787H202.603V252.926H191.708V245.787ZM195.301 256.561V263.7H184.407V256.561H195.301ZM177.106 245.787H188V252.926H177.106V245.787ZM180.699 256.561V263.7H169.804V256.561H180.699ZM162.498 245.787H173.397V252.926H162.498V245.787ZM166.096 256.561V263.7H155.197V256.561H166.096ZM147.895 245.787H158.794V252.926H147.895V245.787ZM151.493 256.561V263.7H140.594V256.561H151.493ZM133.292 245.787H144.191V252.926H133.292V245.787ZM136.89 256.561V263.7H125.991V256.561H136.89ZM118.69 245.787H129.589V252.926H118.69V245.787ZM111.388 256.561H122.287V263.7H111.388V256.561ZM114.847 274.479H103.953V267.339H114.847V274.479ZM129.723 274.479H118.824V267.339H129.723V274.479ZM144.594 274.479H133.695V267.339H144.594V274.479ZM159.465 274.479H148.566V267.339H159.465V274.479ZM231.364 274.479H162.947V267.339H231.364V274.479ZM245.741 274.479H234.846V267.339H245.741V274.479ZM260.616 274.479H249.717V267.339H260.616V274.479ZM275.487 274.479H264.588V267.339H275.487V274.479ZM290.358 274.479H279.464V267.339H290.358V274.479Z" fill="white"/>
<g opacity="0.7">
<path d="M101.425 184.589C104.288 186.155 107.872 184.195 107.872 181.063V141.004C107.872 137.872 104.292 135.913 101.425 137.479L82.9614 147.579V133.864C82.9614 129.898 79.5685 126.677 75.3772 126.677H-19.3767C-23.5681 126.677 -26.9648 129.898 -26.9648 133.864V188.208C-26.9648 192.173 -23.5681 195.394 -19.3767 195.394H12.3273L-0.908989 244.772L6.09092 246.454L19.7791 195.394H36.2213L49.9095 246.454L56.9094 244.772L43.6731 195.394H75.3811C79.5724 195.394 82.9653 192.173 82.9653 188.208V174.492L101.429 184.593L101.425 184.589ZM30.5146 155.214L32.4156 161.852L34.2892 155.214H37.0938L33.74 164.929H31.0873L27.6944 155.214H30.5107H30.5146ZM21.571 155.214H24.2393V164.929H21.571V155.214ZM10.8315 155.214H13.4998V162.604H17.9055V164.929H10.8354V155.214H10.8315ZM47.4905 164.929H40.5685V155.214H47.3697V157.54H43.2407V158.911H46.7699V161.069H43.2407V162.604H47.4944V164.929H47.4905Z" fill="url(#paint0_linear_602_327)"/>
<path d="M427.2 224.696C393.19 222.055 358.046 178.303 351.728 170.08L364.072 159.757C367.111 157.217 371.208 156.36 375.01 157.467L400.4 164.88C408.456 158.145 408.378 145.738 400.244 139.096L364.641 110.045C358.903 105.367 350.653 105.417 344.977 110.166L290.887 155.398C285.207 160.151 283.7 168.261 287.291 174.735L309.584 214.915C312.681 220.497 318.411 223.524 324.231 223.524C327.982 223.524 331.776 222.269 334.931 219.628L332.127 193.327C331.706 189.393 333.28 185.509 336.31 182.969L347.385 173.706C350.478 177.742 359.152 188.614 371.099 199.875C391.145 218.768 409.87 229.012 426.752 230.325C427.971 230.418 429.175 230.469 430.371 230.469C442.213 230.469 452.866 225.814 462.083 216.598L458.09 212.605C449.166 221.529 438.773 225.6 427.196 224.7L427.2 224.696ZM311.992 166.465L309.853 168.253C309.378 168.65 309.316 169.359 309.713 169.834L311.501 171.973C311.898 172.448 311.836 173.157 311.361 173.554L307.481 176.799C307.006 177.197 306.297 177.13 305.899 176.659L304.111 174.52C303.714 174.045 303.005 173.983 302.53 174.38L300.391 176.168C299.916 176.562 299.207 176.499 298.81 176.028L295.565 172.148C295.172 171.673 295.234 170.964 295.709 170.567L297.848 168.779C298.323 168.381 298.385 167.673 297.988 167.197L296.2 165.059C295.803 164.584 295.865 163.875 296.34 163.477L300.22 160.232C300.695 159.839 301.404 159.901 301.802 160.373L303.589 162.511C303.987 162.986 304.696 163.053 305.171 162.651L307.309 160.863C307.785 160.466 308.494 160.528 308.891 161.004L312.136 164.883C312.529 165.359 312.467 166.068 311.992 166.465ZM333.545 175.736C330.53 178.256 326.042 177.859 323.518 174.84C320.998 171.825 321.395 167.338 324.414 164.813C327.429 162.293 331.916 162.69 334.44 165.709C336.961 168.724 336.563 173.212 333.545 175.736ZM339.976 139.899L321.169 155.624C320.184 156.446 318.723 156.314 317.901 155.332L311.442 147.608C310.617 146.622 310.749 145.161 311.735 144.339L330.541 128.614C331.523 127.792 332.987 127.921 333.809 128.906L340.268 136.631C341.09 137.612 340.957 139.077 339.976 139.899ZM358.638 119.23C359.764 118.284 361.447 118.436 362.389 119.561C363.332 120.687 363.184 122.37 362.054 123.312C360.929 124.255 359.25 124.107 358.307 122.977C357.364 121.852 357.512 120.173 358.638 119.23ZM357.883 127.71C359.008 126.768 360.691 126.916 361.634 128.041C362.576 129.171 362.428 130.85 361.299 131.793C360.173 132.735 358.494 132.587 357.551 131.462C356.605 130.332 356.757 128.653 357.883 127.71ZM350.154 118.471C351.28 117.528 352.959 117.68 353.902 118.806C354.844 119.931 354.696 121.614 353.57 122.557C352.445 123.499 350.762 123.351 349.819 122.222C348.877 121.096 349.025 119.417 350.154 118.471ZM349.395 126.955C350.524 126.012 352.203 126.16 353.146 127.286C354.088 128.415 353.94 130.094 352.815 131.037C351.685 131.98 350.006 131.832 349.064 130.706C348.121 129.576 348.269 127.897 349.395 126.955ZM348.44 144.721C351.455 142.201 355.943 142.598 358.471 145.617C360.991 148.632 360.59 153.12 357.575 155.644C354.56 158.164 350.072 157.767 347.548 154.748C345.028 151.733 345.425 147.245 348.44 144.721Z" fill="url(#paint1_linear_602_327)"/>
<path d="M282.07 242.476C280.78 240.293 278.435 238.957 275.901 238.957H113.79C111.256 238.957 108.912 240.293 107.622 242.476L88.025 275.556C85.1904 280.338 88.64 286.381 94.1935 286.381H295.503C301.056 286.381 304.506 280.333 301.671 275.556L282.074 242.476H282.07ZM280.613 256.561V263.7H269.714V256.561H280.613ZM262.413 245.787H273.312V252.926H262.413V245.787ZM266.01 256.561V263.7H255.111V256.561H266.01ZM247.81 245.787H258.709V252.926H247.81V245.787ZM251.407 256.561V263.7H240.508V256.561H251.407ZM233.207 245.787H244.106V252.926H233.207V245.787ZM236.8 256.561V263.7H225.906V256.561H236.8ZM218.604 245.787H229.499V252.926H218.604V245.787ZM222.197 256.561V263.7H211.303V256.561H222.197ZM204.001 245.787H214.896V252.926H204.001V245.787ZM207.594 256.561V263.7H196.7V256.561H207.594ZM189.399 245.787H200.293V252.926H189.399V245.787ZM192.992 256.561V263.7H182.097V256.561H192.992ZM174.796 245.787H185.69V252.926H174.796V245.787ZM178.389 256.561V263.7H167.494V256.561H178.389ZM160.188 245.787H171.087V252.926H160.188V245.787ZM163.786 256.561V263.7H152.887V256.561H163.786ZM145.585 245.787H156.484V252.926H145.585V245.787ZM149.183 256.561V263.7H138.284V256.561H149.183ZM130.983 245.787H141.882V252.926H130.983V245.787ZM134.58 256.561V263.7H123.681V256.561H134.58ZM116.38 245.787H127.279V252.926H116.38V245.787ZM109.078 256.561H119.977V263.7H109.078V256.561ZM112.537 274.479H101.643V267.339H112.537V274.479ZM127.413 274.479H116.514V267.339H127.413V274.479ZM142.284 274.479H131.385V267.339H142.284V274.479ZM157.155 274.479H146.256V267.339H157.155V274.479ZM229.055 274.479H160.637V267.339H229.055V274.479ZM243.431 274.479H232.537V267.339H243.431V274.479ZM258.302 274.479H247.403V267.339H258.302V274.479ZM273.173 274.479H262.274V267.339H273.173V274.479ZM288.044 274.479H277.15V267.339H288.044V274.479Z" fill="url(#paint2_linear_602_327)"/>
</g>
<path d="M340.807 251.085L337.477 260.091L328.471 263.421L337.477 266.756L340.807 275.758L344.142 266.756L353.144 263.421L344.142 260.091L340.807 251.085Z" fill="white"/>
<path d="M41.1842 281.933L37.8537 290.939L28.8477 294.27L37.8537 297.604L41.1842 306.606L44.5186 297.604L53.5207 294.27L44.5186 290.939L41.1842 281.933Z" fill="white"/>
<defs>
<linearGradient id="paint0_linear_602_327" x1="33.2998" y1="251.565" x2="44.1366" y2="108.887" gradientUnits="userSpaceOnUse">
<stop offset="0.05" stop-color="#E9E7FE"/>
<stop offset="0.14" stop-color="#CFCBFB"/>
<stop offset="0.31" stop-color="#8E87F4"/>
<stop offset="0.42" stop-color="#665CF0"/>
<stop offset="0.69" stop-color="#5A7AE6"/>
<stop offset="0.98" stop-color="#4D9FDC"/>
</linearGradient>
<linearGradient id="paint1_linear_602_327" x1="375.116" y1="251.722" x2="371.002" y2="76.0699" gradientUnits="userSpaceOnUse">
<stop offset="0.12" stop-color="#E9E7FE"/>
<stop offset="0.19" stop-color="#CFCBFB"/>
<stop offset="0.33" stop-color="#8E87F4"/>
<stop offset="0.42" stop-color="#665CF0"/>
<stop offset="0.69" stop-color="#5A7AE6"/>
<stop offset="0.98" stop-color="#4D9FDC"/>
</linearGradient>
<linearGradient id="paint2_linear_602_327" x1="194.198" y1="298.913" x2="196.908" y2="216.313" gradientUnits="userSpaceOnUse">
<stop stop-color="#E9E7FE"/>
<stop offset="0.09" stop-color="#CFCBFB"/>
<stop offset="0.3" stop-color="#8E87F4"/>
<stop offset="0.42" stop-color="#665CF0"/>
<stop offset="0.69" stop-color="#5A7AE6"/>
<stop offset="0.98" stop-color="#4D9FDC"/>
</linearGradient>
</defs>
</svg>
