<svg width="28" height="28" viewBox="0 0 28 28" fill="none" xmlns="http://www.w3.org/2000/svg">
<path d="M10.5 22.458V23.6328C10.5001 24.0926 10.4095 24.5479 10.2336 24.9727C10.0576 25.3975 9.79967 25.7834 9.4745 26.1085L8.75 26.833H19.25L18.5255 26.1085C18.2003 25.7834 17.9424 25.3975 17.7664 24.9727C17.5905 24.5479 17.4999 24.0926 17.5 23.6328V22.458M24.5 8.45801V19.833C24.5 20.5292 24.2234 21.1969 23.7312 21.6892C23.2389 22.1814 22.5712 22.458 21.875 22.458H6.125C5.42881 22.458 4.76113 22.1814 4.26884 21.6892C3.77656 21.1969 3.5 20.5292 3.5 19.833V8.45801M24.5 8.45801C24.5 7.76181 24.2234 7.09414 23.7312 6.60185C23.2389 6.10957 22.5712 5.83301 21.875 5.83301H6.125C5.42881 5.83301 4.76113 6.10957 4.26884 6.60185C3.77656 7.09414 3.5 7.76181 3.5 8.45801M24.5 8.45801V16.333C24.5 17.0292 24.2234 17.6969 23.7312 18.1892C23.2389 18.6814 22.5712 18.958 21.875 18.958H6.125C5.42881 18.958 4.76113 18.6814 4.26884 18.1892C3.77656 17.6969 3.5 17.0292 3.5 16.333V8.45801" stroke="url(#paint0_linear_842_923)" stroke-width="1.8" stroke-linecap="round" stroke-linejoin="round"/>
<defs>
<linearGradient id="paint0_linear_842_923" x1="14" y1="-5.0385" x2="3.32057" y2="39.8251" gradientUnits="userSpaceOnUse">
<stop stop-color="#46ADD8"/>
<stop offset="0.58" stop-color="#675AF1"/>
</linearGradient>
</defs>
</svg>
