<svg width="81" height="68" viewBox="0 0 81 68" fill="none" xmlns="http://www.w3.org/2000/svg">
<path d="M33.4123 48.5379C32.5606 48.5338 31.8823 49.2101 31.8718 50.0742C31.8614 50.9404 32.5168 51.6355 33.3663 51.6585C34.2326 51.6835 34.9736 50.953 34.9652 50.0826C34.9569 49.2435 34.2514 48.54 33.4123 48.5379Z" fill="url(#paint0_linear_205_665)"/>
<path d="M45.932 50.0805C45.9382 49.2184 46.6145 48.5379 47.4682 48.5379C48.3073 48.5379 49.0149 49.2351 49.0275 50.0763C49.04 50.9488 48.3032 51.6814 47.4348 51.6585C46.5811 51.6376 45.9257 50.9488 45.9341 50.0805H45.932Z" fill="url(#paint1_linear_205_665)"/>
<path d="M40.4277 48.5379C39.5761 48.5442 38.904 49.2288 38.9019 50.0909C38.8998 50.9571 39.5594 51.6439 40.4131 51.6585C41.2814 51.6752 42.0141 50.9363 41.9953 50.0659C41.9786 49.2247 41.2668 48.5317 40.4277 48.5379Z" fill="url(#paint2_linear_205_665)"/>
<path fill-rule="evenodd" clip-rule="evenodd" d="M80.4482 52.7159C80.4653 52.6787 80.4825 52.6416 80.4979 52.604H80.5V5.32635C80.4903 5.31347 80.4793 5.30099 80.4683 5.28853C80.4436 5.26067 80.4189 5.23281 80.4102 5.20111C79.4438 1.63598 77.3168 0.00369794 73.6306 0.00369794H48.1675C48.1003 0.00369794 48.0328 0.00277532 47.9653 0.00185177C47.7456 -0.00115374 47.5252 -0.00416911 47.3096 0.0245711C46.5394 0.128937 45.9842 0.755131 45.9612 1.51283C45.9382 2.27678 46.4455 2.94472 47.2011 3.09292C47.4302 3.13771 47.6692 3.13559 47.9065 3.13348C47.9567 3.13303 48.0069 3.13258 48.0569 3.13258H73.7538C76.1459 3.13258 77.3732 4.34949 77.3732 6.72485V42.2134H3.62628V6.71024C3.62628 4.37245 4.8557 3.13467 7.18097 3.13467H31.8635C32.0211 3.13467 32.1788 3.13688 32.3364 3.13908C32.7525 3.1449 33.168 3.15071 33.5813 3.11589C34.41 3.047 35.0299 2.32688 35.0091 1.53161C34.9882 0.759306 34.3808 0.108064 33.5855 0.0162218C33.4281 -0.00126874 33.2695 0.000620727 33.1105 0.00251365C33.0609 0.00310563 33.0111 0.00369794 32.9614 0.00369794C30.0885 0.00369794 27.2158 0.00323407 24.3432 0.00277021C18.5982 0.00184253 12.8535 0.000914893 7.10792 0.00369794C3.14828 0.00578526 0.501565 2.65876 0.501565 6.63092C0.499478 21.5281 0.499478 36.4232 0.501565 51.3182C0.503653 55.2716 3.16707 57.9204 7.13505 57.9246C9.63573 57.926 12.1355 57.9255 14.6349 57.9251L14.692 57.9251C15.9223 57.9248 17.1533 57.9246 18.3836 57.9246H19.3229C19.2776 58.0718 19.2376 58.2061 19.2001 58.3323C19.1407 58.5319 19.0874 58.7112 19.0286 58.8889C18.7703 59.6677 18.5108 60.4462 18.2513 61.2247C17.8522 62.4219 17.4527 63.6201 17.0581 64.819C16.5238 66.4388 17.1458 67.3134 18.8219 67.3175C20.6129 67.3217 22.4017 67.3196 24.1926 67.3175H24.2114C25.4575 67.3175 25.8708 67.0211 26.2653 65.8334L26.581 64.886C27.2819 62.7827 27.9834 60.678 28.6657 58.5675C28.8139 58.1125 29.0018 57.9121 29.5278 57.9121C36.7144 57.9309 43.8989 57.9288 51.0856 57.9142C51.551 57.9142 51.7618 58.0624 51.9226 58.4944C52.6869 60.5463 53.471 62.5911 54.2552 64.6358L54.2675 64.6681C54.4301 65.092 54.5927 65.5159 54.7551 65.9399C55.1746 67.0357 55.5837 67.3175 56.7401 67.3175C57.9375 67.3189 59.134 67.3185 60.3308 67.318L62.1295 67.3175C63.885 67.3154 64.5237 66.3782 63.8933 64.7251C63.6063 63.9738 63.3191 63.2229 63.0318 62.472L63.0247 62.4534C62.533 61.168 62.0413 59.8828 61.5513 58.5967C61.4988 58.4618 61.4598 58.321 61.4158 58.1626L61.4148 58.1589C61.3945 58.0857 61.3731 58.0086 61.3489 57.9267H62.1462C63.2841 57.9267 64.4222 57.9274 65.5603 57.9281C68.4055 57.9298 71.2515 57.9315 74.0961 57.9225C77.2292 57.9121 79.6358 55.9876 80.356 52.9547C80.3758 52.8726 80.412 52.7942 80.4482 52.7159ZM3.62628 51.1742V45.4174H77.3711V46.9579C77.3711 47.4449 77.3716 47.9319 77.372 48.419C77.373 49.3931 77.3739 50.3671 77.3711 51.3412C77.3648 53.5162 76.0958 54.7936 73.927 54.7936H7.21646C4.83901 54.7936 3.62628 53.5684 3.62628 51.1742ZM25.3329 57.9413C25.2232 57.9321 25.1435 57.9254 25.0651 57.9267C24.8245 57.9336 24.5672 57.9159 24.3098 57.8983C23.7117 57.8572 23.1134 57.8162 22.7252 58.0832C22.3611 58.3339 22.2208 58.9176 22.0816 59.4971C22.0237 59.7381 21.9659 59.9783 21.8924 60.1935C21.6209 60.9964 21.3542 61.8008 21.0799 62.6282L21.0793 62.63L21.0789 62.6312C20.9107 63.1387 20.7396 63.6548 20.5627 64.1845C20.8091 64.1845 21.0476 64.1856 21.2802 64.1868H21.2813L21.2858 64.1868C21.938 64.1899 22.5445 64.1929 23.151 64.1699C23.3097 64.1636 23.5539 64.0091 23.6019 63.8714C24.1186 62.3698 24.6177 60.8632 25.1315 59.3125C25.2795 58.8657 25.4287 58.4151 25.58 57.96C25.4817 57.9537 25.4021 57.947 25.3342 57.9414L25.3329 57.9413ZM60.3219 64.1594H57.4206V64.1573C56.6378 62.1055 55.8613 60.0724 55.041 57.9267C55.2617 57.9267 55.477 57.9262 55.6884 57.9257H55.7013C56.3845 57.9242 57.0258 57.9229 57.6669 57.9371C57.7858 57.9413 57.9674 58.054 58.0092 58.1605C58.6227 59.7267 59.2245 61.2968 59.8373 62.8957L59.8383 62.8982L59.839 62.9001C59.9991 63.3177 60.1599 63.7374 60.3219 64.1594Z" fill="url(#paint3_linear_205_665)"/>
<path d="M62.8936 28.4946H62.8787C62.2655 28.4951 61.6484 28.4955 61.0254 28.4955V24.2687H62.0127C62.4154 24.2687 62.8181 24.2702 63.2209 24.2717C64.25 24.2755 65.2792 24.2793 66.3083 24.2583C67.2268 24.2395 67.8446 23.5966 67.8613 22.7366C67.878 21.8391 67.2497 21.1816 66.2958 21.1461C65.7803 21.1269 65.2627 21.1307 64.7452 21.1346C64.5337 21.1362 64.3217 21.1378 64.1104 21.1378H61.0295V17.0675C61.5846 17.0675 62.1348 17.0682 62.6813 17.0689L62.6835 17.0689C64.0392 17.0706 65.3731 17.0722 66.707 17.0633C67.7131 17.0571 68.4144 16.4142 68.4332 15.5291C68.452 14.6191 67.7319 13.9449 66.6841 13.9407C64.315 13.9303 61.9459 13.9282 59.5768 13.9407C58.4246 13.947 57.8443 14.5335 57.8443 15.6773C57.838 20.3717 57.8359 25.0661 57.8443 29.7605C57.8464 30.9941 58.4934 31.6182 59.7417 31.6223C62.0064 31.6286 64.2711 31.6265 66.5359 31.6223C67.7048 31.6203 68.4583 30.9753 68.4311 30.0193C68.404 29.0883 67.6776 28.4976 66.5379 28.4955C65.3285 28.4928 64.119 28.4937 62.8936 28.4946Z" fill="url(#paint4_linear_205_665)"/>
<path d="M46.8692 25.9302C47.7062 23.9702 48.4702 22.1793 49.2341 20.3884C49.4844 19.8006 49.7341 19.2122 49.9838 18.6236C50.517 17.3668 51.0505 16.1095 51.5907 14.857C51.8934 14.1536 52.4486 13.8301 53.2125 13.9031C53.8826 13.9678 54.3773 14.3519 54.4941 14.9823C54.5776 15.4331 54.4858 15.9758 54.3063 16.4079C53.1015 19.3093 51.8717 22.1996 50.6419 25.09L50.6357 25.1046C50.359 25.7548 50.0824 26.405 49.806 27.0553C49.6432 27.4392 49.4792 27.8224 49.3152 28.2055L49.3148 28.2064L49.3144 28.2075L49.3134 28.2098C48.9965 28.9501 48.6798 29.6901 48.3721 30.4347C48.1028 31.0838 47.6791 31.6119 46.9548 31.5973C46.1804 31.5827 45.6189 31.1548 45.3016 30.3846C44.1667 27.6355 43.024 24.8907 41.8813 22.146C41.0632 20.1808 40.2452 18.2158 39.43 16.2493C39.0209 15.2599 39.3423 14.3623 40.1877 14.0138C41.0518 13.6568 41.8951 14.043 42.3126 15.0428C43.263 17.3039 44.2045 19.569 45.1459 21.834L45.1468 21.836L45.1475 21.8378L45.1504 21.8449C45.5763 22.8694 46.0021 23.8938 46.4288 24.9179C46.5065 25.1061 46.5878 25.2926 46.6885 25.5234C46.7418 25.6457 46.8006 25.7804 46.8671 25.9344L46.8692 25.9302Z" fill="url(#paint5_linear_205_665)"/>
<path d="M24.861 28.3378C24.4061 28.3384 23.943 28.339 23.4683 28.339V27.4164C23.4683 26.4323 23.4686 25.4483 23.4688 24.4643V24.4634C23.4696 21.5118 23.4704 18.5606 23.4641 15.6085C23.462 14.5377 22.8212 13.8635 21.8757 13.8802C20.9656 13.8969 20.3478 14.5585 20.3478 15.5897C20.3394 20.3321 20.3373 25.0765 20.3478 29.821C20.3498 30.9147 20.9531 31.5117 22.0406 31.518C23.9922 31.5305 25.9418 31.5326 27.8934 31.518C28.9892 31.5096 29.7135 30.8292 29.6822 29.8878C29.6509 28.9715 28.9371 28.3473 27.883 28.3411C26.8896 28.3353 25.8963 28.3365 24.861 28.3378Z" fill="url(#paint6_linear_205_665)"/>
<path fill-rule="evenodd" clip-rule="evenodd" d="M17.2377 22.7022C17.2371 25.29 15.1583 27.3872 12.5871 27.3976C9.99676 27.406 7.84474 25.2456 7.87396 22.6636C7.9011 20.0941 10.0218 18.0005 12.5871 18.0089C15.1625 18.0172 17.2371 20.1123 17.2377 22.7022ZM14.1088 22.697C14.1088 21.8454 13.4429 21.1586 12.6017 21.1398C11.748 21.1211 11.0008 21.8537 11.0028 22.7032C11.007 23.5256 11.7063 24.2395 12.5308 24.2583C13.4053 24.2792 14.1088 23.582 14.1067 22.6949L14.1088 22.697Z" fill="url(#paint7_linear_205_665)"/>
<path d="M32.8427 20.7036L32.8427 20.711C32.8436 21.3632 32.8445 22.0155 32.8445 22.6678L32.8466 22.6699C32.8461 23.2167 32.8453 23.7636 32.8445 24.3106V24.3119C32.8418 26.1384 32.8391 27.9659 32.8487 29.7918C32.8549 30.9857 33.6753 31.7058 34.7419 31.4908C35.5184 31.3364 35.9671 30.7165 35.9671 29.7417C35.9703 26.2202 35.9699 22.6998 35.9695 19.1789L35.9692 15.6544L35.9694 15.6252L35.9697 15.6022C35.9701 15.5674 35.9706 15.5326 35.9692 15.4978C35.9233 14.5272 35.3117 13.8885 34.4204 13.8802C33.5291 13.8718 32.8612 14.5105 32.8529 15.4686C32.8377 17.2126 32.8402 18.9582 32.8427 20.7036Z" fill="url(#paint8_linear_205_665)"/>
<path d="M40.4924 3.12841C39.6554 3.13885 38.9562 2.46464 38.9311 1.62345C38.904 0.744695 39.5928 0.0183091 40.4611 0.00995989C41.3169 0.00161063 42.0537 0.738433 42.0391 1.59214C42.0245 2.41872 41.319 3.12006 40.4924 3.1305V3.12841Z" fill="url(#paint9_linear_205_665)"/>
<defs>
<linearGradient id="paint0_linear_205_665" x1="19.312" y1="61.2143" x2="36.6071" y2="2.61007" gradientUnits="userSpaceOnUse">
<stop stop-color="#46ADD8"/>
<stop offset="1" stop-color="#675AF1"/>
</linearGradient>
<linearGradient id="paint1_linear_205_665" x1="19.312" y1="61.2143" x2="36.6071" y2="2.61007" gradientUnits="userSpaceOnUse">
<stop stop-color="#46ADD8"/>
<stop offset="1" stop-color="#675AF1"/>
</linearGradient>
<linearGradient id="paint2_linear_205_665" x1="19.312" y1="61.2143" x2="36.6071" y2="2.61007" gradientUnits="userSpaceOnUse">
<stop stop-color="#46ADD8"/>
<stop offset="1" stop-color="#675AF1"/>
</linearGradient>
<linearGradient id="paint3_linear_205_665" x1="19.312" y1="61.2143" x2="36.6071" y2="2.61007" gradientUnits="userSpaceOnUse">
<stop stop-color="#46ADD8"/>
<stop offset="1" stop-color="#675AF1"/>
</linearGradient>
<linearGradient id="paint4_linear_205_665" x1="19.312" y1="61.2143" x2="36.6071" y2="2.61007" gradientUnits="userSpaceOnUse">
<stop stop-color="#46ADD8"/>
<stop offset="1" stop-color="#675AF1"/>
</linearGradient>
<linearGradient id="paint5_linear_205_665" x1="19.312" y1="61.2143" x2="36.6071" y2="2.61007" gradientUnits="userSpaceOnUse">
<stop stop-color="#46ADD8"/>
<stop offset="1" stop-color="#675AF1"/>
</linearGradient>
<linearGradient id="paint6_linear_205_665" x1="19.312" y1="61.2143" x2="36.6071" y2="2.61007" gradientUnits="userSpaceOnUse">
<stop stop-color="#46ADD8"/>
<stop offset="1" stop-color="#675AF1"/>
</linearGradient>
<linearGradient id="paint7_linear_205_665" x1="19.312" y1="61.2143" x2="36.6071" y2="2.61007" gradientUnits="userSpaceOnUse">
<stop stop-color="#46ADD8"/>
<stop offset="1" stop-color="#675AF1"/>
</linearGradient>
<linearGradient id="paint8_linear_205_665" x1="19.312" y1="61.2143" x2="36.6071" y2="2.61007" gradientUnits="userSpaceOnUse">
<stop stop-color="#46ADD8"/>
<stop offset="1" stop-color="#675AF1"/>
</linearGradient>
<linearGradient id="paint9_linear_205_665" x1="19.312" y1="61.2143" x2="36.6071" y2="2.61007" gradientUnits="userSpaceOnUse">
<stop stop-color="#46ADD8"/>
<stop offset="1" stop-color="#675AF1"/>
</linearGradient>
</defs>
</svg>