<svg width="75" height="56" viewBox="0 0 75 56" fill="none" xmlns="http://www.w3.org/2000/svg">
<path d="M69.5144 55.5H61.5507C61.1024 55.0996 60.7339 54.6527 60.9979 54.0071C61.2663 53.3528 61.8467 53.3208 62.4531 53.3237C64.4799 53.3353 66.5068 53.3382 68.5336 53.3237C70.4603 53.3107 72.0548 52.0833 72.3101 50.2015C72.4813 48.9335 72.3435 47.6219 72.3435 46.3075H52.805C52.805 46.6847 52.8253 47.0198 52.8021 47.3521C52.6541 49.3934 51.1844 50.8646 49.1968 50.8689C40.6789 50.8849 32.161 50.8849 23.6417 50.8689C21.7425 50.8646 20.2641 49.4355 20.09 47.5407C20.0537 47.1388 20.0421 46.7355 20.0175 46.3017H2.61462C2.61462 47.2229 2.61462 48.108 2.61462 48.9944C2.61462 51.8236 4.11624 53.3295 6.93523 53.3295C23.1992 53.3295 39.4645 53.3295 55.7285 53.3295C56.3799 53.3295 57.0444 53.2599 57.6784 53.3658C58.0237 53.4238 58.4909 53.7256 58.5895 54.023C58.7013 54.3553 58.4749 54.8109 58.3603 55.2026C58.3255 55.3201 58.1717 55.4028 58.073 55.5H5.5105C5.40314 55.455 5.30013 55.3926 5.18842 55.3665C2.64654 54.7557 0.857656 52.9393 0.535569 50.3524C0.352763 48.8798 0.423854 47.3666 0.478986 45.8751C0.513806 44.9219 1.30597 44.2386 2.29834 44.1123C2.55804 44.079 2.82209 44.0761 3.16885 44.0543C3.16885 43.7235 3.16885 43.4159 3.16885 43.1084C3.16885 30.8807 3.16304 18.6544 3.17175 6.42674C3.17465 2.95343 5.5903 0.504409 9.00558 0.502958C28.0189 0.497154 47.0321 0.500056 66.0454 0.510212C66.617 0.510212 67.2061 0.588557 67.756 0.740896C70.3051 1.45181 71.8546 3.64983 71.8546 6.5254C71.8589 18.7284 71.856 30.9315 71.856 43.1345V44.1138C73.2155 43.9687 74.1135 44.4649 74.5822 45.6575V50.4337C74.5227 50.6107 74.4559 50.7848 74.4052 50.9632C73.8292 52.9915 72.5727 54.4017 70.5923 55.1489C70.2383 55.2824 69.8727 55.3825 69.5129 55.4985L69.5144 55.5ZM69.6841 44.0688C69.6841 43.7583 69.6841 43.5219 69.6841 43.2839C69.6841 31.0562 69.6841 18.8271 69.6841 6.59939C69.6841 4.05026 68.2971 2.67197 65.7436 2.67197C46.9219 2.67197 28.1001 2.67197 9.27834 2.67197C6.73066 2.67197 5.34221 4.05462 5.34221 6.60229C5.34075 18.83 5.34221 31.0591 5.34221 43.2868C5.34221 43.5407 5.34221 43.7946 5.34221 44.0674H69.6856L69.6841 44.0688ZM50.5693 46.3162H22.3112C22.0153 47.7191 22.5129 48.742 24.2829 48.7304C32.383 48.6796 40.483 48.7086 48.5816 48.7072C50.2617 48.7072 50.8232 48.0485 50.5693 46.3162Z" fill="url(#paint0_linear_205_724)"/>
<path d="M37.4943 41.0438C28.7109 41.0438 19.9261 41.0438 11.1427 41.0438C9.09988 41.0438 8.23809 40.1864 8.23809 38.1494C8.23809 28.2605 8.23809 18.3701 8.23809 8.48113C8.23809 6.44125 9.10714 5.56639 11.1296 5.56639C14.7248 5.56639 18.3214 5.56059 21.9166 5.5751C22.2416 5.5751 22.6841 5.59251 22.8611 5.78982C23.115 6.07274 23.3355 6.55877 23.2717 6.90407C23.2151 7.2131 22.7828 7.49311 22.4607 7.69478C22.2837 7.80504 21.9906 7.7354 21.7498 7.73685C18.2271 7.7383 14.703 7.75136 11.1804 7.72525C10.5884 7.72089 10.3969 7.87903 10.3984 8.48839C10.4158 18.3773 10.4158 28.2677 10.3984 38.1566C10.3984 38.7355 10.5725 38.885 11.1383 38.885C28.7298 38.8719 46.3227 38.8705 63.9141 38.8864C64.5191 38.8864 64.6265 38.6688 64.6265 38.1305C64.6134 28.2648 64.6091 18.4005 64.6337 8.53481C64.6352 7.81085 64.3595 7.72525 63.7487 7.7267C51.5863 7.7412 39.4239 7.73685 27.2615 7.73685C26.996 7.73685 26.7247 7.76007 26.4665 7.71364C25.8963 7.61063 25.5524 7.23631 25.5481 6.66758C25.5437 6.06548 25.8934 5.67956 26.5027 5.5809C26.7145 5.54753 26.9365 5.56784 27.1527 5.56784C39.4123 5.56784 51.6705 5.56784 63.9301 5.56784C65.9003 5.56784 66.7868 6.45866 66.7882 8.44631C66.7882 18.3599 66.7882 28.2735 66.7882 38.1871C66.7882 40.1733 65.9105 41.0467 63.9199 41.0467C55.1119 41.0467 46.3038 41.0467 37.4958 41.0467L37.4943 41.0438Z" fill="url(#paint1_linear_205_724)"/>
<path d="M23.2485 27.1477H27.7563C28.2046 27.1477 28.5484 27.2391 28.7834 27.4233C29.0199 27.6076 29.1375 27.8586 29.1375 28.1749C29.1375 28.4578 29.0431 28.6957 28.8574 28.8916C28.6703 29.0874 28.3874 29.1846 28.0072 29.1846H21.6511C21.2188 29.1846 20.8822 29.0657 20.6413 28.8263C20.399 28.5869 20.2786 28.3069 20.2786 27.9848C20.2786 27.7773 20.357 27.5031 20.5122 27.1607C20.6674 26.8183 20.8372 26.5485 21.0214 26.3526C21.7875 25.5575 22.4781 24.8771 23.0947 24.3098C23.7113 23.7425 24.1509 23.3697 24.4164 23.1912C24.8879 22.8575 25.2811 22.5224 25.5959 22.1858C25.9093 21.8492 26.1487 21.5039 26.3127 21.1499C26.4766 20.7959 26.5593 20.4491 26.5593 20.1096C26.5593 19.7411 26.4708 19.4118 26.2953 19.1202C26.1197 18.83 25.8803 18.6037 25.5785 18.4426C25.2768 18.2816 24.946 18.2003 24.5891 18.2003C23.8346 18.2003 23.2412 18.5311 22.8103 19.1927C22.7523 19.2797 22.6565 19.5148 22.5216 19.9007C22.3867 20.2866 22.2329 20.5826 22.0632 20.7901C21.8934 20.9975 21.6439 21.1006 21.316 21.1006C21.0287 21.1006 20.7893 21.0062 20.5993 20.8162C20.4092 20.6261 20.3149 20.3664 20.3149 20.0385C20.3149 19.641 20.4034 19.2261 20.5818 18.7952C20.7603 18.3628 21.0273 17.9725 21.3813 17.6214C21.7353 17.2703 22.185 16.986 22.7291 16.7712C23.2732 16.5551 23.9101 16.4477 24.6413 16.4477C25.522 16.4477 26.2735 16.5855 26.8959 16.8626C27.2992 17.0469 27.6532 17.3008 27.9579 17.6229C28.2626 17.945 28.5005 18.3178 28.6703 18.7415C28.84 19.1651 28.9256 19.6033 28.9256 20.0588C28.9256 20.7727 28.7486 21.4226 28.3946 22.0059C28.0406 22.5906 27.6794 23.0476 27.3108 23.3784C26.9423 23.7092 26.3243 24.2286 25.4581 24.9366C24.592 25.6446 23.9971 26.1945 23.675 26.5862C23.5372 26.7414 23.3965 26.9286 23.2514 27.1477H23.2485Z" fill="url(#paint2_linear_205_724)"/>
<path d="M36.0043 28.0893V26.4832H31.6692C31.1222 26.4832 30.7116 26.3598 30.4389 26.1118C30.1661 25.8637 30.0283 25.5271 30.0283 25.102C30.0283 24.9932 30.0486 24.8814 30.0892 24.7697C30.1298 24.658 30.1893 24.539 30.2706 24.4157C30.3504 24.2924 30.4345 24.172 30.5216 24.0574C30.6086 23.9427 30.7145 23.8006 30.8407 23.6337L35.4181 17.5112C35.717 17.1078 35.9637 16.8162 36.1566 16.6349C36.3496 16.4535 36.5817 16.3621 36.8516 16.3621C37.7264 16.3621 38.1646 16.8626 38.1646 17.8652V24.5492H38.536C38.98 24.5492 39.3354 24.6101 39.6024 24.7306C39.8708 24.851 40.0043 25.1165 40.0043 25.5256C40.0043 25.8593 39.8954 26.1031 39.6764 26.2554C39.4573 26.4077 39.1294 26.4846 38.6912 26.4846H38.1646V28.0907C38.1646 28.5347 38.0674 28.864 37.8715 29.0802C37.6757 29.2964 37.4131 29.4037 37.0852 29.4037C36.7573 29.4037 36.5019 29.2934 36.3032 29.0715C36.1044 28.8495 36.0057 28.5231 36.0057 28.0907L36.0043 28.0893ZM32.2901 24.5478H36.0043V19.5307L32.2901 24.5478Z" fill="url(#paint3_linear_205_724)"/>
<path d="M44.882 18.0625L42.4634 28.0196C42.3822 28.3475 42.3125 28.6072 42.2516 28.7973C42.1907 28.9873 42.0993 29.1353 41.976 29.2427C41.8526 29.3486 41.6727 29.4023 41.4362 29.4023C40.8486 29.4023 40.5556 29.1484 40.5556 28.642C40.5556 28.51 40.6136 28.1792 40.7282 27.6482L43.1381 17.6911C43.2643 17.1615 43.3862 16.7988 43.5008 16.6029C43.6154 16.4071 43.8403 16.3099 44.174 16.3099C44.4612 16.3099 44.6818 16.3795 44.8341 16.5173C44.9864 16.6552 45.0633 16.8452 45.0633 17.0875C45.0633 17.266 45.0024 17.591 44.882 18.0639V18.0625Z" fill="url(#paint4_linear_205_724)"/>
<path d="M48.0434 16.645H53.7945C54.3473 16.645 54.7477 16.7306 54.9944 16.9047C55.2424 17.0774 55.3658 17.3632 55.3658 17.7593C55.3658 18.0016 55.2207 18.3207 54.9291 18.7183C54.6389 19.1158 54.3066 19.554 53.9352 20.0356C53.5638 20.5159 53.1808 21.1136 52.7862 21.8274C52.3915 22.5412 52.0303 23.4132 51.7024 24.4447C51.5646 24.8989 51.4659 25.2761 51.4093 25.5764C51.3513 25.8753 51.2889 26.2641 51.2193 26.7429C51.1496 27.2217 51.0901 27.5858 51.0379 27.8397C50.9175 28.4273 50.7463 28.835 50.5243 29.0613C50.3023 29.2891 50.0078 29.4023 49.6393 29.4023C49.2708 29.4023 49.0053 29.2804 48.7935 29.0352C48.5802 28.79 48.4743 28.4288 48.4743 27.9514C48.4743 27.5829 48.5526 27.0824 48.7079 26.4484C48.8631 25.8158 49.117 25.057 49.4681 24.1734C49.8192 23.2899 50.2588 22.3831 50.7855 21.4531C51.3121 20.5231 51.9389 19.5975 52.6643 18.6762H48.0434C47.5602 18.6762 47.199 18.5891 46.9596 18.4121C46.7202 18.2366 46.6012 17.9624 46.6012 17.5881C46.6012 17.1905 46.7275 16.9352 46.9814 16.8191C47.2352 16.7045 47.5893 16.6465 48.0434 16.6465V16.645Z" fill="url(#paint5_linear_205_724)"/>
<defs>
<linearGradient id="paint0_linear_205_724" x1="17.8577" y1="50.5117" x2="30.5371" y2="1.76008" gradientUnits="userSpaceOnUse">
<stop stop-color="#46ADD8"/>
<stop offset="1" stop-color="#675AF1"/>
</linearGradient>
<linearGradient id="paint1_linear_205_724" x1="17.8577" y1="50.5117" x2="30.5371" y2="1.76008" gradientUnits="userSpaceOnUse">
<stop stop-color="#46ADD8"/>
<stop offset="1" stop-color="#675AF1"/>
</linearGradient>
<linearGradient id="paint2_linear_205_724" x1="17.8577" y1="50.5117" x2="30.5371" y2="1.76008" gradientUnits="userSpaceOnUse">
<stop stop-color="#46ADD8"/>
<stop offset="1" stop-color="#675AF1"/>
</linearGradient>
<linearGradient id="paint3_linear_205_724" x1="17.8577" y1="50.5117" x2="30.5371" y2="1.76008" gradientUnits="userSpaceOnUse">
<stop stop-color="#46ADD8"/>
<stop offset="1" stop-color="#675AF1"/>
</linearGradient>
<linearGradient id="paint4_linear_205_724" x1="17.8577" y1="50.5117" x2="30.5371" y2="1.76008" gradientUnits="userSpaceOnUse">
<stop stop-color="#46ADD8"/>
<stop offset="1" stop-color="#675AF1"/>
</linearGradient>
<linearGradient id="paint5_linear_205_724" x1="17.8577" y1="50.5117" x2="30.5371" y2="1.76008" gradientUnits="userSpaceOnUse">
<stop stop-color="#46ADD8"/>
<stop offset="1" stop-color="#675AF1"/>
</linearGradient>
</defs>
</svg>
