<svg viewBox="0 0 409 48" fill="none" xmlns="http://www.w3.org/2000/svg">
<path d="M0.84 2.2H30.92V10.456H10.44V20.504H27.08V28.376H10.44V38.744H31.624V47H0.84V2.2ZM36.6985 2.2H45.7225V47H36.6985V2.2ZM60.267 1.88C61.227 2.84 61.739 4.056 61.739 5.464C61.739 6.936 61.227 8.152 60.267 9.112C59.243 10.136 58.027 10.584 56.555 10.584C55.019 10.584 53.803 10.136 52.779 9.112C51.755 8.152 51.307 6.936 51.307 5.464C51.307 4.056 51.755 2.84 52.779 1.88C53.803 0.919998 55.019 0.407997 56.555 0.407997C58.027 0.407997 59.243 0.919998 60.267 1.88ZM52.011 14.104H61.035V47H52.011V14.104ZM76.6035 30.232L64.9555 14.104H75.2595L82.1075 23.832L89.0835 14.104H98.7475L87.1635 30.232L99.3875 47H89.0835L81.5315 36.696L74.0435 47H64.3795L76.6035 30.232ZM110.892 1.88C111.852 2.84 112.364 4.056 112.364 5.464C112.364 6.936 111.852 8.152 110.892 9.112C109.868 10.136 108.652 10.584 107.18 10.584C105.644 10.584 104.428 10.136 103.404 9.112C102.38 8.152 101.932 6.936 101.932 5.464C101.932 4.056 102.38 2.84 103.404 1.88C104.428 0.919998 105.644 0.407997 107.18 0.407997C108.652 0.407997 109.868 0.919998 110.892 1.88ZM102.636 14.104H111.66V47H102.636V14.104ZM137.981 14.104V22.296H134.397C131.837 22.296 129.917 23.064 128.765 24.6C127.549 26.136 126.973 28.248 126.973 30.872V47H117.949V14.104H126.141L126.973 19.032C127.933 17.432 129.149 16.216 130.621 15.384C132.029 14.552 134.013 14.104 136.445 14.104H137.981Z" fill="#4339AC"/>
<path d="M155.326 2.2L165.246 2.136L173.502 34.904L182.27 2.2H190.91L199.422 34.904L207.87 2.2H217.598L205.182 47H194.11L186.366 17.24L178.814 47H167.742L155.326 2.2ZM219.029 21.72C220.437 19.16 222.357 17.24 224.853 15.832C227.349 14.424 230.229 13.72 233.557 13.72C236.885 13.72 239.765 14.424 242.325 15.704C244.885 16.984 246.869 18.84 248.277 21.208C249.685 23.576 250.453 26.328 250.517 29.528C250.517 30.68 250.389 31.704 250.261 32.6H226.389V32.856C226.581 35.288 227.349 37.144 228.693 38.488C229.973 39.896 231.829 40.536 234.133 40.536C235.925 40.536 237.461 40.152 238.677 39.384C239.893 38.616 240.725 37.4 241.109 35.864H250.005C249.621 38.04 248.789 40.024 247.509 41.752C246.165 43.544 244.437 44.888 242.261 45.912C240.085 46.936 237.589 47.384 234.773 47.384C231.061 47.384 227.925 46.744 225.237 45.336C222.549 43.992 220.501 42.072 219.093 39.512C217.685 36.952 216.981 34.008 216.981 30.616C216.981 27.224 217.621 24.28 219.029 21.72ZM241.493 26.712C241.173 24.728 240.341 23.192 238.997 22.104C237.653 21.016 235.989 20.44 233.941 20.44C231.957 20.44 230.293 21.016 228.949 22.168C227.605 23.32 226.837 24.792 226.581 26.712H241.493ZM282.265 15.768C284.569 17.112 286.361 19.032 287.641 21.592C288.921 24.152 289.625 27.096 289.625 30.488C289.625 33.816 288.921 36.76 287.641 39.32C286.361 41.88 284.569 43.864 282.265 45.272C279.961 46.68 277.337 47.384 274.457 47.384C272.153 47.384 270.105 47 268.441 46.104C266.713 45.208 265.305 44.056 264.217 42.52L263.321 47H255.449V2.2H264.473V18.264C266.969 15.256 270.297 13.72 274.393 13.72C277.337 13.72 279.961 14.424 282.265 15.768ZM278.233 37.4C279.705 35.672 280.473 33.368 280.473 30.552C280.473 27.736 279.705 25.496 278.233 23.704C276.697 21.976 274.777 21.08 272.345 21.08C269.913 21.08 267.929 21.976 266.521 23.704C265.049 25.432 264.345 27.672 264.345 30.488C264.345 33.368 265.049 35.672 266.521 37.4C267.929 39.192 269.913 40.024 272.345 40.024C274.777 40.024 276.697 39.192 278.233 37.4ZM313.58 2.2C316.78 2.2 319.66 2.84 322.156 4.056C324.652 5.272 326.572 7 327.98 9.24C329.324 11.544 330.028 14.168 330.028 17.112C330.028 19.992 329.324 22.552 327.98 24.728C326.572 26.904 324.716 28.568 322.348 29.72L331.18 47H320.556L313.068 31.96H304.94V47H295.34V2.2H313.58ZM304.94 23.96H312.812C315.052 23.96 316.844 23.384 318.188 22.104C319.532 20.888 320.236 19.224 320.236 17.112C320.236 15 319.532 13.336 318.188 12.056C316.844 10.84 315.052 10.2 312.812 10.2H304.94V23.96ZM331.658 2.2H367.114V10.456H354.186V47H344.586V10.456H331.658V2.2ZM370.11 12.632C371.902 9.176 374.398 6.552 377.726 4.632C381.054 2.776 384.958 1.816 389.438 1.816C392.894 1.816 396.03 2.52 398.846 3.864C401.597 5.272 403.838 7.192 405.566 9.624C407.23 12.12 408.254 15 408.638 18.2H399.038C398.462 15.64 397.31 13.656 395.518 12.184C393.726 10.712 391.55 9.944 388.926 9.944C385.342 9.944 382.462 11.288 380.414 13.976C378.302 16.664 377.278 20.248 377.278 24.6C377.278 28.952 378.302 32.536 380.414 35.224C382.462 37.912 385.342 39.256 388.926 39.256C391.55 39.256 393.726 38.552 395.518 37.08C397.31 35.608 398.462 33.56 399.038 31H408.638C408.254 34.264 407.23 37.144 405.566 39.576C403.838 42.072 401.597 43.992 398.846 45.336C396.03 46.744 392.894 47.384 389.438 47.384C384.958 47.384 381.054 46.488 377.726 44.568C374.398 42.712 371.902 40.088 370.11 36.632C368.318 33.176 367.486 29.208 367.486 24.6C367.486 20.056 368.318 16.088 370.11 12.632Z" fill="url(#paint0_linear_127_1470)"/>
<defs>
<linearGradient id="paint0_linear_127_1470" x1="332" y1="-34" x2="231" y2="73" gradientUnits="userSpaceOnUse">
<stop stop-color="#46ADD8"/>
<stop offset="1" stop-color="#675AF1"/>
</linearGradient>
</defs>
</svg>
