<svg width="67" height="56" viewBox="0 0 67 56" fill="none" xmlns="http://www.w3.org/2000/svg">
<path d="M63.6134 55.5H3.37905C0.884847 54.6966 0.0787088 52.9162 0.0869769 50.3931C0.140719 35.2956 0.113159 20.198 0.113159 5.10188C0.113159 2.11021 1.71166 0.500689 4.6799 0.500689C23.8812 0.500689 43.0824 0.500689 62.2837 0.500689C62.4904 0.500689 62.6957 0.497933 62.9024 0.503445C64.7214 0.551676 66.2592 1.75468 66.736 3.50063C66.7884 3.69355 66.8545 3.88371 66.9138 4.07526V51.9241C66.6671 52.5235 66.477 53.156 66.16 53.7155C65.6047 54.6966 64.6125 55.1155 63.6134 55.5ZM2.3483 14.4572C2.33452 14.7356 2.31523 14.9588 2.31523 15.1821C2.31385 27.1212 2.31385 39.0589 2.31523 50.998C2.31523 52.631 2.98219 53.3007 4.60135 53.3007C23.8536 53.3007 43.1045 53.3007 62.3567 53.3007C64.0227 53.3007 64.6786 52.6434 64.68 50.965C64.68 39.0493 64.68 27.1336 64.68 15.2179C64.68 14.974 64.6594 14.7314 64.647 14.4572H2.3483ZM64.647 12.1959C64.6594 11.9217 64.6773 11.7205 64.6773 11.5179C64.6787 9.3186 64.6828 7.11791 64.6773 4.9186C64.6731 3.38625 63.98 2.70138 62.4435 2.70138C43.1458 2.70138 23.8467 2.70138 4.54899 2.70138C3.01112 2.70138 2.31936 3.38487 2.31523 4.91723C2.30971 7.13996 2.31247 9.3627 2.31523 11.5854C2.31523 11.7825 2.34279 11.9782 2.35932 12.1959H64.647Z" fill="url(#paint0_linear_205_729)"/>
<path d="M34.2397 37.3488C34.3293 36.4407 34.7206 35.7572 35.4344 35.2377C36.6278 34.3695 36.6168 33.3677 35.4138 32.4803C34.3045 31.6631 33.971 30.3361 34.6242 29.1317C35.2346 28.0059 35.8782 26.8966 36.5451 25.8024C37.252 24.6407 38.5887 24.2453 39.8372 24.7813C41.2359 25.3821 42.1054 24.8819 42.2708 23.3799C42.421 22.0225 43.3883 21.0827 44.7843 21.0345C46.0658 20.9904 47.3501 20.9876 48.6317 21.0359C50.0538 21.0896 50.9757 22.0225 51.1355 23.4625C51.2871 24.8226 52.22 25.3739 53.4547 24.8323C54.8424 24.2232 56.1639 24.6352 56.9411 25.9402C57.5378 26.942 58.1193 27.9549 58.6898 28.9718C59.4408 30.3127 59.1418 31.6369 57.903 32.5326C56.7937 33.336 56.8019 34.3998 57.925 35.2129C59.128 36.0838 59.4367 37.4163 58.7091 38.7213C58.1303 39.7603 57.5336 40.7911 56.9232 41.8108C56.1405 43.1199 54.8438 43.5099 53.4354 42.887C52.2338 42.3551 51.2899 42.9008 51.1369 44.2154C50.9536 45.8057 49.9876 46.6862 48.4057 46.6959C47.2605 46.7028 46.1154 46.7041 44.9703 46.6959C43.4228 46.6848 42.4334 45.7905 42.2625 44.2637C42.1054 42.8595 41.1987 42.351 39.8799 42.9311C38.6562 43.4686 37.303 43.1268 36.6085 42.0203C35.8919 40.8779 35.2332 39.6969 34.5897 38.5118C34.4009 38.1632 34.3513 37.7388 34.2383 37.3488H34.2397ZM57.0899 30.569L56.8942 30.3485C56.8625 30.2644 56.8419 30.1735 56.7964 30.0963C56.2039 29.0642 55.6237 28.0238 54.9912 27.0164C54.903 26.8773 54.4841 26.796 54.3146 26.8814C51.9417 28.0706 49.0892 26.3233 48.9762 23.8635C48.9527 23.3564 48.7006 23.2049 48.2252 23.2159C47.2178 23.2379 46.2077 23.2421 45.2004 23.2145C44.6878 23.2007 44.4797 23.3799 44.4081 23.9021C44.0401 26.5465 41.6121 27.9342 39.1854 26.8924C38.7678 26.7133 38.5198 26.7381 38.2897 27.1529C37.7702 28.0941 37.2258 29.0228 36.676 29.9475C36.461 30.3085 36.4969 30.5387 36.851 30.8087C39.0393 32.4748 39.0434 35.2377 36.8607 36.9175C36.5175 37.1821 36.4486 37.4067 36.6691 37.776C37.2217 38.6993 37.7619 39.6294 38.2842 40.5692C38.4895 40.9385 38.7265 41.0653 39.1165 40.8627C41.4067 39.6694 44.3116 41.3726 44.426 43.8971C44.4466 44.367 44.6768 44.5172 45.1329 44.5076C46.1637 44.4828 47.1958 44.4814 48.2265 44.5076C48.7075 44.52 48.91 44.367 48.9844 43.8696C49.3882 41.1494 51.7143 39.8182 54.2457 40.8531C54.6812 41.0309 54.9113 40.9413 55.1304 40.543C55.6375 39.6211 56.168 38.7103 56.7123 37.8091C56.9494 37.4163 56.886 37.1793 56.5139 36.8968C54.378 35.2749 54.389 32.4527 56.5236 30.8225C56.6834 30.6999 56.8998 30.6503 57.0899 30.5676V30.569Z" fill="url(#paint1_linear_205_729)"/>
<path d="M13.3159 30.6034H9.67107C9.67107 31.1519 9.68347 31.6893 9.66831 32.2267C9.64626 33.0094 9.24664 33.4573 8.58519 33.4683C7.89343 33.4807 7.47727 33.0246 7.47451 32.2019C7.46762 29.7973 7.44695 27.3926 7.48416 24.9894C7.51585 22.8783 9.0234 21.2949 11.1455 21.051C13.0513 20.8319 14.902 22.1493 15.3912 24.0992C15.4794 24.4492 15.507 24.8226 15.5083 25.1851C15.5194 27.4974 15.518 29.8097 15.5125 32.122C15.5111 33.0108 15.1225 33.4766 14.4156 33.4697C13.7128 33.4628 13.3283 32.9901 13.3159 32.1027C13.309 31.6259 13.3159 31.1491 13.3159 30.6007V30.6034ZM13.2897 28.3517C13.2897 27.1253 13.3325 25.9623 13.276 24.8034C13.2346 23.9573 12.496 23.322 11.6278 23.2434C10.8066 23.169 9.84883 23.7244 9.77304 24.5388C9.65729 25.7914 9.74273 27.0633 9.74273 28.3504H13.2897V28.3517Z" fill="url(#paint2_linear_205_729)"/>
<path d="M19.9152 29.0931C19.9152 30.2176 19.9235 31.2208 19.9125 32.2253C19.9042 33.0149 19.5197 33.4532 18.8528 33.4711C18.172 33.489 17.7228 33.0191 17.7201 32.2116C17.7104 28.9167 17.709 25.6233 17.7201 22.3284C17.7228 21.5182 18.1004 21.0565 18.8376 21.0428C20.0255 21.0207 21.2257 20.9807 22.3998 21.1227C24.4475 21.3693 25.8862 23.2104 25.7883 25.2829C25.6932 27.3113 24.0176 28.9967 21.9781 29.0904C21.3208 29.1207 20.6607 29.0945 19.9152 29.0945V29.0931ZM19.9497 26.8842C20.6676 26.8842 21.3304 26.931 21.9836 26.8731C22.8642 26.7946 23.5311 26.0491 23.5876 25.1809C23.6428 24.3417 23.0957 23.4874 22.2675 23.3399C21.522 23.2076 20.7475 23.2393 19.9497 23.1966V26.8855V26.8842Z" fill="url(#paint3_linear_205_729)"/>
<path d="M27.5646 41.2003C26.3368 39.9808 25.1792 38.8439 24.0369 37.6933C23.476 37.1269 23.4595 36.5675 23.9501 36.0741C24.3952 35.6277 24.9684 35.5546 25.4204 35.9942C26.9293 37.4618 28.4176 38.95 29.8865 40.4576C30.3468 40.9303 30.3248 41.5118 29.8493 41.9968C28.4079 43.4672 26.9514 44.9237 25.4797 46.3624C24.9905 46.8406 24.4186 46.7965 23.9597 46.3293C23.4843 45.8456 23.4746 45.282 23.9928 44.757C25.1476 43.5857 26.323 42.435 27.566 41.2017L27.5646 41.2003Z" fill="url(#paint4_linear_205_729)"/>
<path d="M10.1231 41.2169C11.3137 42.4047 12.4615 43.5499 13.6094 44.695C13.9719 45.056 14.2075 45.4488 13.9677 45.9807C13.6425 46.7 12.7771 46.9343 12.2121 46.3844C10.7184 44.9334 9.25077 43.4562 7.79421 41.9693C7.32017 41.4856 7.34498 40.8793 7.83693 40.3791C9.2494 38.9445 10.6756 37.5224 12.1074 36.1086C12.6407 35.5822 13.1947 35.5794 13.677 36.0521C14.1606 36.5261 14.1565 37.1421 13.6246 37.6837C12.5828 38.7447 11.5245 39.7893 10.4731 40.8421C10.3766 40.9385 10.287 41.0405 10.1231 41.2169Z" fill="url(#paint5_linear_205_729)"/>
<path d="M30.1952 27.2424C30.1952 28.8919 30.2007 30.54 30.1925 32.1895C30.1883 33.0177 29.7832 33.4738 29.0873 33.4669C28.3955 33.46 27.9973 33.0012 27.9959 32.173C27.9918 28.8974 27.9918 25.6233 27.9959 22.3477C27.9959 21.5044 28.379 21.0827 29.0983 21.0896C29.8163 21.0965 30.1883 21.5209 30.1911 22.3643C30.1966 23.9903 30.1925 25.6164 30.1925 27.2424H30.1952Z" fill="url(#paint6_linear_205_729)"/>
<path d="M21.3994 36.8582C21.3594 37.007 21.3208 37.1862 21.2629 37.3571C20.3355 40.1544 19.4081 42.9532 18.4724 45.7492C18.2354 46.4575 17.7903 46.7634 17.2185 46.6587C16.5046 46.5278 16.0995 45.9462 16.3324 45.231C17.2887 42.2972 18.2726 39.3731 19.2593 36.4503C19.4467 35.895 19.8684 35.6662 20.4499 35.793C20.9997 35.9143 21.3304 36.2478 21.398 36.8568L21.3994 36.8582Z" fill="url(#paint7_linear_205_729)"/>
<path d="M52.5962 6.38068C54.9788 6.38068 57.36 6.41237 59.7412 6.36552C60.7926 6.34485 61.2846 7.3756 60.7761 8.0274C60.5322 8.34021 59.97 8.54692 59.5469 8.55518C56.937 8.60204 54.3256 8.57861 51.7143 8.57861C49.6307 8.57861 47.5458 8.58412 45.4622 8.57448C44.6823 8.57034 44.2937 8.2782 44.2027 7.68152C44.0828 6.89192 44.5211 6.38619 45.3809 6.38206C47.7856 6.37103 50.1902 6.37792 52.5948 6.37792L52.5962 6.38068Z" fill="url(#paint8_linear_205_729)"/>
<path d="M8.18832 7.46655C8.18832 8.05497 7.68121 8.56345 7.09418 8.56483C6.50715 8.56621 6.00004 8.0591 5.99728 7.46931C5.9959 6.86712 6.47959 6.38895 7.09005 6.38895C7.70189 6.38895 8.18695 6.86436 8.18695 7.46655H8.18832Z" fill="url(#paint9_linear_205_729)"/>
<path d="M10.3973 7.4445C10.4097 6.84369 10.9044 6.37792 11.5162 6.38895C12.1267 6.39997 12.6021 6.88916 12.5883 7.48998C12.5745 8.07839 12.055 8.57723 11.4708 8.56483C10.8837 8.55105 10.3863 8.03292 10.3987 7.4445H10.3973Z" fill="url(#paint10_linear_205_729)"/>
<path d="M16.9897 7.44313C17.0021 8.02878 16.5046 8.54967 15.9176 8.56483C15.3333 8.57999 14.8138 8.08115 14.7987 7.49273C14.7835 6.88916 15.2575 6.40135 15.868 6.39032C16.4812 6.37792 16.9745 6.84369 16.9883 7.4445L16.9897 7.44313Z" fill="url(#paint11_linear_205_729)"/>
<path d="M46.7231 28.3834C49.7672 28.3958 52.2159 30.868 52.198 33.9093C52.1801 36.9009 49.7065 39.3635 46.7093 39.3717C43.6929 39.3814 41.1973 36.8844 41.2 33.8597C41.2028 30.8239 43.6763 28.371 46.7231 28.3834ZM49.9973 33.8555C49.9918 32.0476 48.5366 30.5938 46.7204 30.5841C44.8724 30.5745 43.3938 32.0421 43.3993 33.879C43.4049 35.6731 44.878 37.1531 46.6749 37.1724C48.4856 37.1917 50.0028 35.6773 49.9973 33.8555Z" fill="url(#paint12_linear_205_729)"/>
<defs>
<linearGradient id="paint0_linear_205_729" x1="15.8013" y1="50.5117" x2="29.6692" y2="2.46523" gradientUnits="userSpaceOnUse">
<stop stop-color="#46ADD8"/>
<stop offset="1" stop-color="#675AF1"/>
</linearGradient>
<linearGradient id="paint1_linear_205_729" x1="15.8013" y1="50.5117" x2="29.6692" y2="2.46523" gradientUnits="userSpaceOnUse">
<stop stop-color="#46ADD8"/>
<stop offset="1" stop-color="#675AF1"/>
</linearGradient>
<linearGradient id="paint2_linear_205_729" x1="15.8013" y1="50.5117" x2="29.6692" y2="2.46523" gradientUnits="userSpaceOnUse">
<stop stop-color="#46ADD8"/>
<stop offset="1" stop-color="#675AF1"/>
</linearGradient>
<linearGradient id="paint3_linear_205_729" x1="15.8013" y1="50.5117" x2="29.6692" y2="2.46523" gradientUnits="userSpaceOnUse">
<stop stop-color="#46ADD8"/>
<stop offset="1" stop-color="#675AF1"/>
</linearGradient>
<linearGradient id="paint4_linear_205_729" x1="15.8013" y1="50.5117" x2="29.6692" y2="2.46523" gradientUnits="userSpaceOnUse">
<stop stop-color="#46ADD8"/>
<stop offset="1" stop-color="#675AF1"/>
</linearGradient>
<linearGradient id="paint5_linear_205_729" x1="15.8013" y1="50.5117" x2="29.6692" y2="2.46523" gradientUnits="userSpaceOnUse">
<stop stop-color="#46ADD8"/>
<stop offset="1" stop-color="#675AF1"/>
</linearGradient>
<linearGradient id="paint6_linear_205_729" x1="15.8013" y1="50.5117" x2="29.6692" y2="2.46523" gradientUnits="userSpaceOnUse">
<stop stop-color="#46ADD8"/>
<stop offset="1" stop-color="#675AF1"/>
</linearGradient>
<linearGradient id="paint7_linear_205_729" x1="15.8013" y1="50.5117" x2="29.6692" y2="2.46523" gradientUnits="userSpaceOnUse">
<stop stop-color="#46ADD8"/>
<stop offset="1" stop-color="#675AF1"/>
</linearGradient>
<linearGradient id="paint8_linear_205_729" x1="15.8013" y1="50.5117" x2="29.6692" y2="2.46523" gradientUnits="userSpaceOnUse">
<stop stop-color="#46ADD8"/>
<stop offset="1" stop-color="#675AF1"/>
</linearGradient>
<linearGradient id="paint9_linear_205_729" x1="15.8013" y1="50.5117" x2="29.6692" y2="2.46523" gradientUnits="userSpaceOnUse">
<stop stop-color="#46ADD8"/>
<stop offset="1" stop-color="#675AF1"/>
</linearGradient>
<linearGradient id="paint10_linear_205_729" x1="15.8013" y1="50.5117" x2="29.6692" y2="2.46523" gradientUnits="userSpaceOnUse">
<stop stop-color="#46ADD8"/>
<stop offset="1" stop-color="#675AF1"/>
</linearGradient>
<linearGradient id="paint11_linear_205_729" x1="15.8013" y1="50.5117" x2="29.6692" y2="2.46523" gradientUnits="userSpaceOnUse">
<stop stop-color="#46ADD8"/>
<stop offset="1" stop-color="#675AF1"/>
</linearGradient>
<linearGradient id="paint12_linear_205_729" x1="15.8013" y1="50.5117" x2="29.6692" y2="2.46523" gradientUnits="userSpaceOnUse">
<stop stop-color="#46ADD8"/>
<stop offset="1" stop-color="#675AF1"/>
</linearGradient>
</defs>
</svg>
