<svg width="63" height="56" viewBox="0 0 63 56" fill="none" xmlns="http://www.w3.org/2000/svg">
<path fill-rule="evenodd" clip-rule="evenodd" d="M43.6859 8.04736H50.727C56.9897 8.04736 62.0741 13.1317 62.0741 19.3944V44.1528C62.0741 50.4155 56.9897 55.4999 50.727 55.4999H50.1719C46.9487 54.9957 45.5507 54.029 44.471 53.2122L35.5189 45.8514C35.2943 45.6707 35.0147 45.5722 34.7264 45.5722C34.4381 45.5722 34.1585 45.6707 33.9339 45.8514L31.0255 48.2431L22.8347 41.5081C22.6105 41.3271 22.3309 41.2283 22.0427 41.2283C21.7545 41.2283 21.475 41.3271 21.2507 41.5081L9.87147 51.5183C7.5812 53.381 6.06643 53.0371 5.08404 52.9291C2.54661 50.8468 0.926758 47.6873 0.926758 44.1528V19.3944C0.926758 13.1317 6.01114 8.04736 12.2749 8.04736H19.3002L19.2874 8.07556L19.0505 8.76612L18.9769 9.00302L18.658 10.4171L18.6141 10.6653L18.4742 12.0816L18.4555 12.4705L18.4526 12.6067L18.4658 13.2562L18.498 13.6367L18.5767 14.2328L18.6774 14.7688L18.7968 15.2627L18.9517 15.7973L19.3537 16.9295L19.4862 17.2689L20.1863 18.7481L20.4335 19.2025L21.243 20.5921L21.5528 21.0933L22.6828 22.7571L22.8461 22.9776L24.3162 24.8911L24.7911 25.4798L26.4699 27.4424L26.8148 27.8199L28.1985 29.3087L28.7466 29.8762L29.6524 30.7759L29.4705 30.9278L29.3573 31.03C29.0493 31.3171 28.7579 31.6215 28.4844 31.9417C28.353 32.0966 28.2277 32.2566 28.1091 32.4213C27.9279 32.6729 27.7657 32.9376 27.6243 33.2137C27.5518 33.3569 27.487 33.5037 27.4299 33.6538C27.2823 34.037 27.1937 34.4403 27.167 34.85L27.1619 35.2037C27.1747 35.7024 27.2761 36.1949 27.4618 36.6581C27.6498 37.1277 27.9241 37.5579 28.2706 37.9264C28.5226 38.1948 28.8094 38.4283 29.1234 38.6207C29.391 38.7843 29.6762 38.9194 29.9725 39.022C30.6169 39.2405 31.3005 39.3182 31.9775 39.2501H31.9812C32.5588 39.194 33.1202 39.0273 33.6347 38.7591C33.8567 38.6417 34.068 38.505 34.266 38.3504C34.8333 37.9088 35.273 37.3242 35.5398 36.6566C35.7481 36.1359 35.8503 35.5798 35.8411 35.0196L35.825 34.727C35.787 34.3403 35.6946 33.9609 35.5508 33.6C35.4885 33.4429 35.4175 33.2895 35.3384 33.1397C35.192 32.8644 35.025 32.6004 34.8397 32.3496C34.7548 32.235 34.6669 32.1226 34.5761 32.0124C34.2737 31.6515 33.9482 31.3107 33.6018 30.9919L33.3568 30.7835L33.7717 30.3738L35.5544 28.5119L36.171 27.8349L37.1296 26.7566L37.7532 26.0272L38.6422 24.9445L39.2442 24.1877L40.128 23.0058L40.5744 22.3943L41.2075 21.4478L41.7347 20.6411L42.7281 18.9111L43.2964 17.776L43.3128 17.7412L43.7478 16.6882C43.7533 16.6746 43.7584 16.6607 43.7625 16.6464L44.2311 15.1851L44.2802 14.972L44.4834 13.8088L44.523 13.4939L44.535 13.3009L44.549 12.5726L44.5453 12.4368L44.5079 11.7847L44.4618 11.2783L44.2311 9.81771C44.2277 9.79807 44.2231 9.77864 44.2176 9.75949L43.9214 8.67971L43.8192 8.37946L43.6859 8.04736ZM47.0329 38.9216C45.5658 38.9421 44.3648 40.1431 44.3443 41.6099C44.3659 43.0767 45.5661 44.277 47.0329 44.2978C48.4994 44.2766 49.7 43.0767 49.7223 41.6099C49.7011 40.1431 48.5001 38.9421 47.0329 38.9216Z" fill="url(#paint0_linear_878_1131)"/>
<path fill-rule="evenodd" clip-rule="evenodd" d="M27.4723 54.5333L26.9978 54.9325C26.5587 55.2939 26.0092 55.4941 25.4405 55.5H12.2748C9.65222 55.5033 7.11006 54.5945 5.08398 52.9292C6.06637 53.0373 7.58114 53.3811 9.87142 51.5185L21.2507 41.5082C21.4749 41.3272 21.7544 41.2284 22.0427 41.2284C22.3309 41.2284 22.6104 41.3272 22.8346 41.5082L31.0255 48.2432L33.9338 45.8515C34.1584 45.6708 34.438 45.5723 34.7263 45.5723C35.0146 45.5723 35.2943 45.6708 35.5189 45.8515L44.4709 53.2123C45.5507 54.0292 46.9487 54.9958 50.1719 55.5H44.2168C43.6907 55.4934 43.1797 55.3232 42.7548 55.013L42.6504 54.9325L42.2085 54.5652C42.1733 54.5221 42.134 54.4825 42.0913 54.4469C39.8113 52.5543 37.5303 50.6628 35.2483 48.7727C35.1141 48.6614 34.9451 48.6006 34.7708 48.601C34.5964 48.6014 34.4278 48.6629 34.2941 48.7749C34.2941 48.7749 34.3102 48.7939 27.562 54.4469C27.5291 54.4744 27.4991 54.5033 27.4723 54.5333ZM47.0329 38.9217C45.5657 38.9422 44.3647 40.1432 44.3442 41.61C44.3658 43.0768 45.5661 44.2771 47.0329 44.2979C48.4993 44.2767 49.6999 43.0768 49.7223 41.61C49.701 40.1432 48.5 38.9422 47.0329 38.9217ZM29.6524 30.776L28.7465 29.8763L28.1984 29.3088L26.8147 27.82L26.4698 27.4425L24.791 25.48L24.3161 24.8908L22.846 22.9777L22.6827 22.7573L21.5527 21.0935L21.243 20.5922L20.4334 19.2027L20.1863 18.7483L19.4862 17.269L19.3536 16.9296L18.9516 15.7974L18.7967 15.2629L18.6774 14.7689L18.5767 14.2325L18.4979 13.6368L18.4657 13.2564L18.4525 12.6068L18.4555 12.4706L18.4741 12.0817L18.614 10.6651L18.658 10.4172L18.9769 9.00314L19.0505 8.76624L19.2874 8.07568L19.3632 7.89699L19.7403 7.06876L20.0017 6.57592L20.3657 5.97543L20.7285 5.44085L20.987 5.10106L21.2847 4.74223L21.6124 4.38157L21.8933 4.09927L22.5769 3.49768L23.0767 3.08869C23.0888 3.07844 23.1012 3.06929 23.114 3.0605L23.7054 2.66066L24.1751 2.36115L25.0674 1.89138C25.081 1.88295 25.0964 1.87636 25.1106 1.86977L26.3761 1.34471L26.4929 1.30077L27.6177 0.971603L28.0926 0.865053L28.7348 0.736168L29.1606 0.671359L29.8139 0.590073L30.2591 0.550529L31.1434 0.503662L31.4897 0.5L32.1455 0.513548L32.3161 0.523068L33.2667 0.602156L34.5237 0.779374L34.669 0.809764L35.9114 1.1188L36.2761 1.22754L36.6814 1.36778L37.175 1.55452L37.5653 1.72002L38.1387 1.99024L38.5001 2.17588L39.1496 2.55704L39.3917 2.70606L40.277 3.35232L40.5311 3.57274L41.1484 4.13515L41.1788 4.16554L41.7024 4.72722L41.8826 4.93043L42.497 5.74695L42.6222 5.94211L43.1099 6.76558L43.2567 7.04789L43.5317 7.66229L43.8192 8.37958L43.9213 8.67983L44.2175 9.75961C44.223 9.77865 44.2274 9.79805 44.2311 9.81782L44.4618 11.278L44.5079 11.7848L44.5452 12.4369L44.5489 12.5727L44.535 13.301L44.5229 13.494L44.4834 13.8089L44.2801 14.9721L44.2311 15.1852L43.7624 16.6466C43.7582 16.6607 43.7533 16.6746 43.7478 16.6883L43.3128 17.7413L43.2963 17.7761L42.728 18.9112L41.7347 20.6413L41.2074 21.4479L40.5743 22.3944L40.128 23.0059L39.2441 24.1878L38.6421 24.9446L37.7531 26.0274L37.1296 26.7567L36.171 27.835L35.5544 28.5121L33.7716 30.3739L33.3567 30.7837L33.6017 30.992C33.9481 31.3109 34.2736 31.6511 34.576 32.0125C34.6668 32.1227 34.7547 32.2351 34.8397 32.3497C35.0249 32.6005 35.1919 32.8645 35.3384 33.1398C35.4174 33.2889 35.4881 33.443 35.5507 33.6001C35.6932 33.9608 35.7891 34.3419 35.825 34.7271L35.8411 35.0197C35.8502 35.5799 35.7477 36.1364 35.5397 36.6567C35.273 37.3243 34.8333 37.9088 34.2659 38.3502C34.0678 38.5054 33.8565 38.6416 33.6347 38.7592C33.1201 39.0275 32.5587 39.1942 31.9811 39.2502H31.9775C31.3005 39.3184 30.6168 39.2406 29.9724 39.0221C29.6758 38.9192 29.3911 38.7847 29.1233 38.6208C28.8093 38.4284 28.5225 38.195 28.2705 37.9265C27.9241 37.558 27.6497 37.1278 27.4617 36.6582C27.2761 36.1951 27.1746 35.7026 27.1618 35.2038L27.167 34.8501C27.1937 34.4404 27.2823 34.0369 27.4298 33.6539C27.4873 33.5034 27.5521 33.3566 27.6243 33.2138C27.7656 32.9374 27.9282 32.673 28.1091 32.4215C28.2273 32.2567 28.3533 32.0967 28.4844 31.9418C28.7578 31.6216 29.0492 31.3172 29.3573 31.0301L29.4704 30.9279L29.6524 30.776Z" fill="#24175B"/>
<path fill-rule="evenodd" clip-rule="evenodd" d="M26.998 54.9326L34.2943 48.7751C34.428 48.6631 34.5967 48.6016 34.771 48.6012C34.9454 48.6008 35.1143 48.6615 35.2485 48.7729L42.6506 54.9326C43.1008 55.299 43.6633 55.4994 44.2438 55.5002H25.4141C25.9919 55.5004 26.5518 55.2997 26.998 54.9326ZM31.5398 32.9511L31.6112 32.972C31.6342 32.9829 31.6537 32.9994 31.6745 33.0137L31.7342 33.0664C31.8814 33.2019 32.0246 33.3443 32.1622 33.4901C32.2593 33.5937 32.3537 33.7002 32.4445 33.8104C32.5599 33.9496 32.6679 34.0957 32.7664 34.2476C32.8089 34.3146 32.8484 34.3824 32.8854 34.453C32.9176 34.5142 32.9465 34.5775 32.9718 34.6416C33.0165 34.7533 33.0502 34.8712 33.0604 34.9909L33.0582 35.2157C33.0433 35.4188 32.9804 35.6154 32.8746 35.7893C32.7688 35.9632 32.6231 36.1095 32.4497 36.2161C32.2246 36.3522 31.9716 36.4354 31.7097 36.4595L31.4318 36.4676L31.1971 36.4471C31.0874 36.4309 30.9794 36.4046 30.8745 36.3687C30.7677 36.3324 30.6653 36.2844 30.5691 36.2256L30.386 36.0916C30.1703 35.9073 30.0233 35.6553 29.969 35.3768C29.9599 35.3299 29.9527 35.2826 29.9474 35.2351L29.9408 35.0206C29.9445 34.9627 29.9532 34.9052 29.9661 34.8477C29.9979 34.7229 30.044 34.6013 30.1023 34.486C30.1773 34.341 30.263 34.2019 30.3586 34.0697C30.5171 33.8551 30.6892 33.6512 30.873 33.4582C30.9917 33.333 31.1128 33.2118 31.2395 33.0946L31.3296 33.0137C31.3922 32.972 31.393 32.972 31.4644 32.9511H31.5398ZM31.0788 3.04712L31.1077 3.04492V28.1204L31.0451 28.0051C30.2197 26.4781 29.4513 24.9208 28.7416 23.3367C28.1658 22.0548 27.6443 20.7491 27.1785 19.4232C26.8062 18.3668 26.4916 17.291 26.2361 16.2004C26.038 15.3344 25.886 14.4557 25.8238 13.5677C25.7997 13.1889 25.7925 12.8092 25.8022 12.4298C25.808 12.0991 25.8216 11.7692 25.8421 11.4393C25.875 10.9201 25.9278 10.4024 26.0039 9.88866C26.0643 9.48443 26.1387 9.0813 26.2309 8.68292C26.3042 8.3662 26.3888 8.05204 26.4858 7.74301C26.6257 7.29631 26.7934 6.85985 26.9885 6.43365C27.0599 6.28024 27.1368 6.12755 27.217 5.9778C27.701 5.08109 28.3579 4.25542 29.2184 3.70253C29.7774 3.33885 30.4153 3.11413 31.0788 3.04712ZM34.3302 3.11046L36.0171 3.59159C36.8018 3.87805 37.5488 4.2587 38.2418 4.72519C39.1838 5.36112 39.9957 6.17102 40.6339 7.1114C41.0085 7.67031 41.3193 8.2694 41.5606 8.89749C41.9116 9.82599 42.1287 10.7997 42.2054 11.7894C42.2277 12.0486 42.2406 12.3086 42.2457 12.5682C42.2515 12.8095 42.2501 13.0518 42.2307 13.2931C42.1827 13.833 42.0812 14.3668 41.9275 14.8866C41.804 15.3122 41.6581 15.7309 41.4903 16.1411C41.282 16.651 41.0504 17.1512 40.7965 17.6401C40.234 18.7261 39.5867 19.7649 38.8943 20.7696C38.0357 22.0044 37.1205 23.1989 36.1515 24.3491C35.0989 25.604 34.0013 26.8204 32.8609 27.996C33.6349 26.5449 34.3573 25.0667 35.0266 23.5648C35.3988 22.7279 35.7499 21.8818 36.0797 21.0274C36.4426 20.0891 36.7698 19.1374 37.0606 18.1743C37.278 17.4528 37.4661 16.7229 37.6245 15.9862C37.7592 15.3538 37.865 14.7149 37.9306 14.0719C37.9855 13.5359 38.0056 12.9966 37.9925 12.4587C37.9874 12.1295 37.9752 11.8005 37.9559 11.4719C37.8768 10.1494 37.6757 8.83121 37.2902 7.56287C37.144 7.08192 36.9663 6.61113 36.7582 6.15355C36.2646 5.07816 35.5755 4.07271 34.6433 3.33931L34.3302 3.11046Z" fill="white"/>
<defs>
<linearGradient id="paint0_linear_878_1131" x1="15.3056" y1="51.1961" x2="26.6845" y2="9.38626" gradientUnits="userSpaceOnUse">
<stop stop-color="#46ADD8"/>
<stop offset="1" stop-color="#675AF1"/>
</linearGradient>
</defs>
</svg>
