<svg width="382" height="487" viewBox="0 0 382 487" fill="none" xmlns="http://www.w3.org/2000/svg">
<path d="M376.703 165.698L353.515 149.147L374.368 153.779C363.234 102.113 337.774 48.8242 293.22 0.303029C291.933 0.658963 290.678 1.01009 289.428 1.39232C377.791 175.932 319.574 351.187 174.624 429.067C286.674 362.743 338.856 238.156 310.088 107.991C291.604 127.804 275.057 158.803 255.892 194.815L287.913 191.694L245.14 214.876C238.085 228.01 230.587 241.594 222.48 255.367C213.857 270.363 204.654 286.148 193.868 302.652L248.517 304.083L172.08 334.04C166.07 342.116 159.601 350.326 152.585 358.716C141.043 372.155 128.059 385.974 112.611 399.757L138.872 403.434L93.8474 415.447C69.4131 434.55 39.2891 453.187 0.57185 470.119C3.38128 469.911 21.7909 479.02 62.5715 483.91C102.134 488.349 164.005 488.579 225.642 460.792C244.453 452.505 263.271 441.546 280.99 427.797L281.974 387.508L293.8 417.217C300.27 411.519 306.549 405.405 312.606 398.88L304.875 379.454L318.086 392.762C341.261 366.06 360.145 333.017 371.038 293.438L347.201 264.931L374.667 278.983C382.302 244.609 383.768 205.805 376.703 165.698Z" fill="url(#paint0_linear_127_1478)"/>
<path d="M376.703 165.698L353.515 149.147L374.368 153.779C363.234 102.113 337.774 48.8242 293.22 0.303029C291.933 0.658963 290.678 1.01009 289.428 1.39232C377.791 175.932 319.574 351.187 174.624 429.067C286.674 362.743 338.856 238.156 310.088 107.991C291.604 127.804 275.057 158.803 255.892 194.815L287.913 191.694L245.14 214.876C238.085 228.01 230.587 241.594 222.48 255.367C213.857 270.363 204.654 286.148 193.868 302.652L248.517 304.083L172.08 334.04C166.07 342.116 159.601 350.326 152.585 358.716C141.043 372.155 128.059 385.974 112.611 399.757L138.872 403.434L93.8474 415.447C69.4131 434.55 39.2891 453.187 0.57185 470.119C3.38128 469.911 21.7909 479.02 62.5715 483.91C102.134 488.349 164.005 488.579 225.642 460.792C244.453 452.505 263.271 441.546 280.99 427.797L281.974 387.508L293.8 417.217C300.27 411.519 306.549 405.405 312.606 398.88L304.875 379.454L318.086 392.762C341.261 366.06 360.145 333.017 371.038 293.438L347.201 264.931L374.667 278.983C382.302 244.609 383.768 205.805 376.703 165.698Z" fill="url(#paint1_linear_127_1478)"/>
<defs>
<linearGradient id="paint0_linear_127_1478" x1="259.228" y1="47.2672" x2="174.196" y2="440.561" gradientUnits="userSpaceOnUse">
<stop stop-color="#46ADD8"/>
<stop offset="1" stop-color="#675AF1"/>
</linearGradient>
<linearGradient id="paint1_linear_127_1478" x1="259.228" y1="47.2672" x2="174.196" y2="440.561" gradientUnits="userSpaceOnUse">
<stop stop-color="#46ADD8"/>
<stop offset="1" stop-color="#675AF1"/>
</linearGradient>
</defs>
</svg>
