<svg width="122" height="164" viewBox="0 0 122 164" fill="none" xmlns="http://www.w3.org/2000/svg">
<path d="M61.8678 6.89413L53.3654 10.8196L58.0841 5.61977C41.5188 0.384476 22.1567 -1.02445 1.04615 3.79525C0.938289 4.22049 0.83416 4.63606 0.73966 5.05532C64.9671 8.25022 105.527 53.4148 104.158 107.486C103.469 64.6908 76.3932 29.5011 34.5416 16.5168C37.1888 25.0213 43.3451 34.7947 50.5064 46.1315L54.8303 36.4804L54.4836 52.4687C57.0848 56.6224 59.7423 60.9754 62.3544 65.5333C65.2321 70.4375 68.2403 75.6362 71.1963 81.4037L80.5048 66.0328L76.6102 92.7366C77.9374 95.768 79.2282 98.9521 80.481 102.322C82.4387 107.806 84.2699 113.764 85.6895 120.42L91.0163 113.52L87.1137 128.333C88.5887 138.42 89.0044 150.057 87.5335 163.87C87.9318 163.034 93.5308 159.261 101.568 148.413C109.279 137.839 119.421 120.21 121.525 98.0858C122.222 91.3649 122.158 84.2072 121.118 76.9084L109.774 70.0662L120.183 71.5277C119.61 68.7523 118.887 65.9639 118.01 63.172L111.204 62.2155L117.156 60.6108C113.305 49.6448 106.946 38.8714 97.419 29.3153L85.3974 31.4791L93.8828 25.925C85.3114 18.1468 74.4702 11.4085 61.8678 6.89413Z" fill="url(#paint0_linear_127_1479)"/>
<path d="M61.8678 6.89413L53.3654 10.8196L58.0841 5.61977C41.5188 0.384476 22.1567 -1.02445 1.04615 3.79525C0.938289 4.22049 0.83416 4.63606 0.73966 5.05532C64.9671 8.25022 105.527 53.4148 104.158 107.486C103.469 64.6908 76.3932 29.5011 34.5416 16.5168C37.1888 25.0213 43.3451 34.7947 50.5064 46.1315L54.8303 36.4804L54.4836 52.4687C57.0848 56.6224 59.7423 60.9754 62.3544 65.5333C65.2321 70.4375 68.2403 75.6362 71.1963 81.4037L80.5048 66.0328L76.6102 92.7366C77.9374 95.768 79.2282 98.9521 80.481 102.322C82.4387 107.806 84.2699 113.764 85.6895 120.42L91.0163 113.52L87.1137 128.333C88.5887 138.42 89.0044 150.057 87.5335 163.87C87.9318 163.034 93.5308 159.261 101.568 148.413C109.279 137.839 119.421 120.21 121.525 98.0858C122.222 91.3649 122.158 84.2072 121.118 76.9084L109.774 70.0662L120.183 71.5277C119.61 68.7523 118.887 65.9639 118.01 63.172L111.204 62.2155L117.156 60.6108C113.305 49.6448 106.946 38.8714 97.419 29.3153L85.3974 31.4791L93.8828 25.925C85.3114 18.1468 74.4702 11.4085 61.8678 6.89413Z" fill="url(#paint1_linear_127_1479)"/>
<defs>
<linearGradient id="paint0_linear_127_1479" x1="8.92002" y1="21.1496" x2="107.37" y2="109.48" gradientUnits="userSpaceOnUse">
<stop stop-color="#46ADD8"/>
<stop offset="1" stop-color="#675AF1"/>
</linearGradient>
<linearGradient id="paint1_linear_127_1479" x1="8.92002" y1="21.1496" x2="107.37" y2="109.48" gradientUnits="userSpaceOnUse">
<stop stop-color="#46ADD8"/>
<stop offset="1" stop-color="#675AF1"/>
</linearGradient>
</defs>
</svg>
