<svg width="57" height="56" viewBox="0 0 57 56" fill="none" xmlns="http://www.w3.org/2000/svg">
<path fill-rule="evenodd" clip-rule="evenodd" d="M51.891 12.8165L56.7627 33.9656C56.8829 34.5001 56.8833 35.0545 56.7638 35.5891C56.7278 35.7526 56.6811 35.9136 56.624 36.071C56.4872 36.4537 56.288 36.8111 56.0345 37.1289L42.8077 53.5741L42.3915 54.0911C42.1355 54.4056 41.8297 54.6761 41.4863 54.8919C41.3533 54.9767 41.2151 55.0535 41.0727 55.1216C40.9777 55.1672 40.8792 55.2049 40.7805 55.2426C40.654 55.2905 40.5251 55.3317 40.3943 55.3662C40.2118 55.4153 40.0259 55.4506 39.8381 55.4718C39.7072 55.4867 39.5756 55.4944 39.4438 55.495L17.7704 55.5H17.5581C17.234 55.4979 16.9115 55.4535 16.5989 55.3678C16.2177 55.2671 15.8541 55.1091 15.5204 54.8991C15.2565 54.7312 15.0147 54.5309 14.8006 54.303C14.7929 54.295 14.7853 54.287 14.7777 54.279C14.7201 54.2186 14.6627 54.1585 14.6101 54.0934L0.962418 37.1344C0.885795 37.0383 0.815325 36.9391 0.74849 36.8371C0.594155 36.5985 0.46812 36.3428 0.37293 36.0752C0.316607 35.9183 0.270739 35.7579 0.235625 35.595C0.116395 35.0602 0.116776 34.5058 0.236744 33.9712L5.10086 12.8213C5.23189 12.2741 5.48286 11.7628 5.83565 11.3243C6.18843 10.8858 6.63423 10.5311 7.14085 10.2858L26.8576 0.870285C27.3688 0.626512 27.9279 0.5 28.4943 0.5C29.0606 0.5 29.6198 0.626512 30.1309 0.870285L49.8516 10.2807C50.3581 10.5262 50.8037 10.8811 51.1564 11.3196C51.5091 11.7581 51.76 12.2694 51.891 12.8165ZM36.5045 42.6689C36.4289 42.5146 36.3633 42.3556 36.3079 42.1929C39.5487 40.2722 41.9699 37.2279 43.1111 33.6391C43.2796 33.6662 43.4478 33.6956 43.6155 33.7275C43.7952 33.5626 44.0323 33.4746 44.2761 33.4823C44.9804 33.6167 45.67 33.8194 46.3351 34.0874C46.6797 34.2439 47.0331 34.3803 47.3935 34.4961C47.4473 34.5102 47.5158 34.5238 47.5834 34.5373C47.623 34.5452 47.6624 34.553 47.6983 34.5609C47.7025 34.5619 47.7064 34.5635 47.7103 34.5651C47.714 34.5666 47.7177 34.568 47.7215 34.569L47.7386 34.5712C47.8952 34.6228 48.0609 34.6412 48.225 34.6251C48.3892 34.609 48.5481 34.5588 48.6917 34.4778C48.8354 34.3968 48.9605 34.2866 49.059 34.1545C49.1576 34.0224 49.2275 33.8711 49.2642 33.7104C49.3009 33.5497 49.3037 33.3831 49.2723 33.2213C49.2409 33.0595 49.176 32.906 49.0818 32.7707C48.9876 32.6354 48.8662 32.5213 48.7254 32.4355C48.5845 32.3498 48.4273 32.2945 48.2638 32.273C48.2272 32.2646 48.1851 32.2541 48.1416 32.2432C48.0646 32.2239 47.9832 32.2035 47.9198 32.1919C47.5447 32.1403 47.1669 32.1101 46.7884 32.1014C46.0733 32.0543 45.3645 31.9378 44.672 31.7534C44.4583 31.6331 44.2821 31.456 44.1631 31.2417L43.6866 31.103C44.1958 27.3829 43.3209 23.6053 41.2279 20.4872C41.288 20.4328 41.3741 20.3559 41.4541 20.2845C41.5369 20.2105 41.6131 20.1425 41.6466 20.1118C41.6303 19.8688 41.7098 19.629 41.868 19.4438C42.4118 18.977 42.9996 18.5642 43.6234 18.2113C43.961 18.0397 44.2885 17.8488 44.6041 17.6394C44.6564 17.6006 44.7222 17.5463 44.784 17.4953C44.812 17.4722 44.8392 17.4498 44.8639 17.4298C45.0041 17.3405 45.124 17.2227 45.2158 17.084C45.3075 16.9454 45.3691 16.789 45.3965 16.625C45.4238 16.4611 45.4164 16.2932 45.3746 16.1323C45.3329 15.9714 45.2577 15.8211 45.1541 15.6911C45.0504 15.5611 44.9206 15.4543 44.773 15.3777C44.6254 15.3011 44.4633 15.2564 44.2973 15.2465C44.1312 15.2366 43.965 15.2616 43.8093 15.3201C43.6536 15.3785 43.5119 15.469 43.3935 15.5857C43.3719 15.6028 43.3482 15.6213 43.3236 15.6405C43.2572 15.6923 43.1846 15.7489 43.1318 15.7942C42.8562 16.0538 42.596 16.3291 42.3524 16.6187C41.8699 17.1488 41.337 17.6306 40.7612 18.0575C40.5345 18.1497 40.2865 18.1766 40.0453 18.1352L39.5962 18.4558C37.0118 15.7451 33.5308 14.064 29.7998 13.7249C29.7895 13.569 29.7756 13.287 29.7713 13.1999L29.7712 13.1983C29.5707 13.0596 29.4323 12.8479 29.3856 12.6086C29.3607 11.8927 29.4054 11.1761 29.5193 10.4688C29.5948 10.0984 29.6489 9.7239 29.6812 9.34723C29.6835 9.28847 29.6819 9.21337 29.6805 9.14013C29.6796 9.09527 29.6787 9.05112 29.6787 9.01184C29.6953 8.84692 29.6771 8.68036 29.6253 8.5229C29.5735 8.36544 29.4893 8.22059 29.378 8.09769C29.2667 7.97479 29.1309 7.87657 28.9793 7.80938C28.8277 7.74218 28.6637 7.70751 28.4978 7.70759C28.332 7.70766 28.168 7.7425 28.0165 7.80983C27.8649 7.87717 27.7292 7.97551 27.6181 8.09852C27.5069 8.22153 27.4228 8.36646 27.3711 8.52397C27.3195 8.68148 27.3015 8.84806 27.3182 9.01296C27.3182 9.01837 27.3189 9.02379 27.3196 9.02924C27.3203 9.03476 27.321 9.04031 27.321 9.04594C27.3207 9.0762 27.32 9.10843 27.3193 9.14107C27.3177 9.21394 27.3161 9.2888 27.3182 9.34807C27.3505 9.72479 27.4042 10.0994 27.4793 10.4699C27.5925 11.1771 27.6365 11.8935 27.6107 12.6092C27.5438 12.845 27.4109 13.0568 27.2276 13.2196L27.1996 13.7182C26.4816 13.7774 25.7686 13.887 25.066 14.046C22.1137 14.7126 19.4282 16.2459 17.3543 18.4491C17.2111 18.35 17.0692 18.2492 16.9286 18.1467C16.6951 18.2166 16.4434 18.1922 16.2276 18.0788C15.6517 17.6526 15.1188 17.1713 14.6364 16.6416C14.3933 16.3521 14.1337 16.0769 13.859 15.8172C13.8023 15.7685 13.7213 15.7054 13.6501 15.65C13.6317 15.6357 13.614 15.6218 13.5975 15.6089C13.3635 15.4203 13.0752 15.3116 12.7748 15.2987C12.5964 15.2893 12.4183 15.322 12.2549 15.3943C12.0915 15.4666 11.9474 15.5763 11.8344 15.7146C11.6431 15.984 11.5662 16.3181 11.6206 16.6439C11.675 16.9698 11.8562 17.2608 12.1247 17.4536L12.1423 17.4659C12.1633 17.483 12.1857 17.5013 12.2085 17.5201C12.2698 17.5705 12.3345 17.6237 12.3867 17.6626C12.7016 17.8718 13.0283 18.0628 13.3651 18.2345C13.989 18.5872 14.5769 19 15.1205 19.467C15.2617 19.6673 15.3438 19.9032 15.3576 20.1479L15.736 20.4849C13.6489 23.6143 12.7912 27.4035 13.3274 31.126L12.8333 31.2702C12.7044 31.4763 12.5311 31.6511 12.326 31.7816C11.6339 31.9658 10.9255 32.0821 10.2108 32.1288C9.83182 32.1374 9.45367 32.1678 9.07822 32.2199C9.01499 32.2321 8.93382 32.2518 8.85691 32.2705C8.8243 32.2785 8.79245 32.2862 8.76306 32.2931L8.75271 32.2959L8.73566 32.3001C8.57215 32.3215 8.41491 32.3768 8.27402 32.4625C8.13313 32.5481 8.01168 32.6622 7.91745 32.7975C7.82322 32.9327 7.75829 33.0862 7.7268 33.248C7.69532 33.4097 7.69798 33.5763 7.73462 33.737C7.77126 33.8977 7.84107 34.049 7.93957 34.1812C8.03808 34.3134 8.16311 34.4235 8.30667 34.5046C8.45023 34.5857 8.60915 34.636 8.77326 34.6522C8.93737 34.6684 9.10306 34.6501 9.25971 34.5986C9.26579 34.5984 9.27186 34.5978 9.27788 34.597C9.28245 34.5958 9.28664 34.5942 9.29089 34.5925C9.29393 34.5913 9.297 34.59 9.30026 34.5888C9.32799 34.5828 9.35781 34.5766 9.38825 34.5702C9.46463 34.5542 9.54492 34.5374 9.60591 34.5206C9.96633 34.4058 10.3199 34.2705 10.6649 34.1154C11.3294 33.8475 12.0183 33.6449 12.722 33.5103C12.9662 33.5249 13.2014 33.6077 13.4009 33.7493L13.9152 33.6618C15.0701 37.2284 17.491 40.2493 20.7212 42.1547L20.5064 42.6689C20.6063 42.8761 20.6428 43.1082 20.6115 43.3361C20.3174 44.0082 19.9597 44.6508 19.5433 45.255C19.3145 45.5568 19.1033 45.8716 18.9107 46.1978C18.8784 46.2583 18.8401 46.3414 18.8049 46.4179C18.7889 46.4525 18.7736 46.4858 18.7597 46.515C18.6741 46.6567 18.6192 46.8147 18.5984 46.979C18.5777 47.1432 18.5916 47.31 18.6394 47.4685C18.6871 47.627 18.7675 47.7738 18.8754 47.8993C18.9834 48.0248 19.1165 48.1264 19.2661 48.1974C19.4157 48.2683 19.5786 48.3072 19.7442 48.3114C19.9097 48.3156 20.0743 48.285 20.2274 48.2217C20.3804 48.1585 20.5185 48.0638 20.6327 47.9439C20.7469 47.824 20.8346 47.6815 20.8903 47.5256L20.8923 47.5234V47.5209C20.9058 47.4932 20.921 47.4629 20.9367 47.4317C20.973 47.3591 21.0119 47.2816 21.0383 47.221C21.1727 46.8675 21.2864 46.5065 21.3789 46.1399C21.5827 45.3942 21.8903 44.6809 22.2928 44.0208C22.4335 43.889 22.6108 43.8027 22.8014 43.7732L23.0685 43.2894C26.5722 44.6361 30.4494 44.6461 33.96 43.3173C33.9972 43.3831 34.0505 43.4794 34.0992 43.5676C34.1487 43.657 34.1935 43.7382 34.2125 43.7709C34.4534 43.8093 34.6696 43.9404 34.8149 44.1362C35.1489 44.7695 35.4201 45.4338 35.6247 46.1198C35.7181 46.4864 35.8325 46.8474 35.9673 47.2008C35.9954 47.2649 36.0367 47.3482 36.0744 47.4245C36.0881 47.4521 36.1013 47.4788 36.1133 47.5033C36.1691 47.6589 36.2568 47.8012 36.371 47.9209C36.4851 48.0407 36.623 48.1352 36.7759 48.1985C36.9287 48.2618 37.0931 48.2923 37.2585 48.2883C37.424 48.2842 37.5867 48.2456 37.7362 48.175C37.8858 48.1043 38.019 48.0031 38.1271 47.8779C38.2352 47.7528 38.3159 47.6064 38.364 47.4481C38.4121 47.2899 38.4265 47.1234 38.4064 46.9593C38.3862 46.7951 38.3319 46.637 38.2469 46.4951C38.2338 46.468 38.2192 46.4371 38.204 46.4049C38.1669 46.3266 38.126 46.24 38.0923 46.1776C37.8997 45.8523 37.6884 45.5384 37.4595 45.2374C37.0505 44.6488 36.7 44.0216 36.4131 43.3648C36.351 43.1299 36.3838 42.8799 36.5045 42.6689ZM33.6345 32.0759C33.7146 32.0724 33.7949 32.0785 33.8736 32.0941L33.8842 32.0812L40.0296 33.1192C39.1222 35.6678 37.3909 37.8414 35.1093 39.2965L32.7245 33.5382L32.7318 33.5279C32.6258 33.2814 32.6191 33.0037 32.7131 32.7524C32.807 32.5012 32.9943 32.2959 33.236 32.1793C33.3605 32.1184 33.496 32.0832 33.6345 32.0759ZM23.9524 32.3334C24.1333 32.4801 24.2597 32.6832 24.3114 32.9102C24.361 33.1243 24.3408 33.3487 24.2536 33.5505L24.272 33.5729L21.9113 39.2742C19.6453 37.825 17.9211 35.6689 17.0063 33.1405L23.0983 32.1069L23.1087 32.1195C23.1762 32.1066 23.2449 32.1005 23.3137 32.1013C23.5466 32.105 23.7715 32.1868 23.9524 32.3334ZM29.0306 34.7453C29.1922 34.8418 29.3245 34.9803 29.4135 35.1461L29.4362 35.1458L32.439 40.5699C32.0484 40.7001 31.6483 40.8118 31.2388 40.905C29.0301 41.4111 26.7241 41.2925 24.5791 40.5626L27.5749 35.1483H27.5799C27.6685 34.9823 27.8005 34.8435 27.9618 34.7466C28.1232 34.6497 28.3078 34.5984 28.496 34.5982C28.6843 34.5979 28.869 34.6488 29.0306 34.7453ZM34.288 26.6924L38.8973 22.569V22.5696C40.3088 24.8639 40.9328 27.5557 40.6748 30.2366L34.7044 28.5177L34.6988 28.4928C34.5175 28.4428 34.3531 28.3446 34.2231 28.2087C34.0932 28.0728 34.0024 27.9043 33.9606 27.721C33.9187 27.5378 33.9273 27.3466 33.9854 27.1678C34.0434 26.989 34.1489 26.8292 34.2905 26.7055L34.288 26.6924ZM30.5057 23.5576C30.4019 23.4008 30.3425 23.2188 30.3338 23.031L30.3282 23.0294L29.9778 16.8512C32.6448 17.1818 35.1293 18.3788 37.0492 20.2582L32.0055 23.8326L31.9874 23.8248C31.8353 23.9354 31.6561 24.0028 31.4687 24.0198C31.2814 24.0369 31.093 24.0029 30.9234 23.9215C30.7538 23.8401 30.6095 23.7143 30.5057 23.5576ZM25.5114 24.0423C25.3241 24.0255 25.1448 23.9583 24.9926 23.8477L24.9829 23.8533L19.9062 20.2565C21.5223 18.669 23.5502 17.5645 25.7611 17.0678C26.1767 16.9742 26.5968 16.9019 27.0198 16.8512L26.6694 23.0389L26.6437 23.0512C26.6356 23.239 26.5768 23.4211 26.4734 23.5782C26.37 23.7352 26.226 23.8613 26.0566 23.9431C25.8872 24.0248 25.6988 24.0591 25.5114 24.0423ZM22.7632 28.2397C22.6328 28.3756 22.468 28.4735 22.2863 28.523L22.2815 28.5434L16.3405 30.2567C16.0444 27.5733 16.6513 24.8678 18.0653 22.5676L22.7001 26.7111L22.6951 26.7354C22.8372 26.8589 22.9431 27.0187 23.0015 27.1977C23.0599 27.3767 23.0686 27.5681 23.0266 27.7516C22.9846 27.9352 22.8936 28.1039 22.7632 28.2397ZM28.4977 31.1648L26.788 30.3431L26.364 28.5032L27.5472 27.0308H29.446L30.6258 28.5054L30.2024 30.345L28.4977 31.1648Z" fill="url(#paint0_linear_878_1123)"/>
<defs>
<linearGradient id="paint0_linear_878_1123" x1="13.4811" y1="50.5117" x2="29.3496" y2="3.86007" gradientUnits="userSpaceOnUse">
<stop stop-color="#46ADD8"/>
<stop offset="1" stop-color="#675AF1"/>
</linearGradient>
</defs>
</svg>
