<svg width="33" height="36" viewBox="0 0 33 36" fill="none" xmlns="http://www.w3.org/2000/svg">
<path d="M0.00603721 22.0415L1.61206 23.6023L0.0457542 22.9948C0.296462 27.1388 1.64184 31.5792 4.5287 35.8763C4.63296 35.864 4.73473 35.8516 4.8365 35.8368C0.0432708 21.234 6.65599 8.31784 18.8538 3.99353C9.35172 7.81156 3.81133 16.8652 4.49891 27.3142C6.17195 25.9954 7.82762 23.7851 9.7464 21.2167L7.21946 21.0784L10.8212 19.7868C11.5262 18.8508 12.2708 17.8851 13.0652 16.9121C13.9141 15.8502 14.8176 14.7339 15.8527 13.5806L11.6205 12.82L17.9205 11.4024C18.4839 10.8467 19.0846 10.2861 19.73 9.71811C20.7875 8.81176 21.9616 7.89306 23.3268 7.00647L21.3286 6.40882L24.9725 6.01121C27.0998 4.81838 29.664 3.72928 32.876 2.87479C32.6551 2.8575 31.3321 1.93139 28.2193 1.06703C25.1959 0.252051 20.3878 -0.501183 15.2644 0.923788C13.7031 1.34362 12.1095 1.97091 10.568 2.82787L10.012 5.94453L9.44604 3.49713C8.87513 3.86264 8.31414 4.26272 7.76556 4.69737L8.13542 6.29768L7.26663 5.10733C5.14678 6.90521 3.28509 9.24641 1.96702 12.1902L3.48119 14.687L1.51276 13.2694C0.509934 15.8477 -0.0659481 18.8434 0.00603721 22.0415Z" fill="url(#paint0_linear_127_1457)"/>
<path d="M0.00603721 22.0415L1.61206 23.6023L0.0457542 22.9948C0.296462 27.1388 1.64184 31.5792 4.5287 35.8763C4.63296 35.864 4.73473 35.8516 4.8365 35.8368C0.0432708 21.234 6.65599 8.31784 18.8538 3.99353C9.35172 7.81156 3.81133 16.8652 4.49891 27.3142C6.17195 25.9954 7.82762 23.7851 9.7464 21.2167L7.21946 21.0784L10.8212 19.7868C11.5262 18.8508 12.2708 17.8851 13.0652 16.9121C13.9141 15.8502 14.8176 14.7339 15.8527 13.5806L11.6205 12.82L17.9205 11.4024C18.4839 10.8467 19.0846 10.2861 19.73 9.71811C20.7875 8.81176 21.9616 7.89306 23.3268 7.00647L21.3286 6.40882L24.9725 6.01121C27.0998 4.81838 29.664 3.72928 32.876 2.87479C32.6551 2.8575 31.3321 1.93139 28.2193 1.06703C25.1959 0.252051 20.3878 -0.501183 15.2644 0.923788C13.7031 1.34362 12.1095 1.97091 10.568 2.82787L10.012 5.94453L9.44604 3.49713C8.87513 3.86264 8.31414 4.26272 7.76556 4.69737L8.13542 6.29768L7.26663 5.10733C5.14678 6.90521 3.28509 9.24641 1.96702 12.1902L3.48119 14.687L1.51276 13.2694C0.509934 15.8477 -0.0659481 18.8434 0.00603721 22.0415Z" fill="url(#paint1_linear_127_1457)"/>
<defs>
<linearGradient id="paint0_linear_127_1457" x1="7.73081" y1="32.6337" x2="18.9963" y2="3.09568" gradientUnits="userSpaceOnUse">
<stop stop-color="#46ADD8"/>
<stop offset="1" stop-color="#675AF1"/>
</linearGradient>
<linearGradient id="paint1_linear_127_1457" x1="7.73081" y1="32.6337" x2="18.9963" y2="3.09568" gradientUnits="userSpaceOnUse">
<stop stop-color="#46ADD8"/>
<stop offset="1" stop-color="#675AF1"/>
</linearGradient>
</defs>
</svg>
