<svg width="49" height="56" viewBox="0 0 49 56" fill="none" xmlns="http://www.w3.org/2000/svg">
<path d="M39.2325 2.96842C35.1076 0.610251 30.2066 -0.0938472 25.5615 1.0098C20.9164 2.11344 16.891 4.93263 14.3353 8.87781C13.5365 10.0737 3.50711 26.9441 3.50711 26.9441C3.40477 27.1117 3.33939 27.2961 3.31096 27.4889C3.28253 27.6817 3.29391 27.8773 3.34508 28.0645C3.39625 28.2517 3.48153 28.4277 3.60377 28.5842C3.72317 28.7378 3.87384 28.8692 4.0444 28.967C4.21497 29.0675 4.40544 29.1318 4.60159 29.1597C4.79774 29.1877 4.99958 29.1765 5.19289 29.1262C5.3862 29.0759 5.5653 28.9921 5.72449 28.8748C5.88369 28.7574 6.01446 28.6093 6.1168 28.4417L13.6701 15.8545C14.3069 16.472 15.0801 16.9442 15.9301 17.2292L0.8889 42.0654C0.687062 42.4035 0.627363 42.8058 0.726861 43.183C0.826359 43.563 1.07653 43.8871 1.4205 44.0855C1.65077 44.2168 1.91231 44.2895 2.17669 44.2923C2.44391 44.2923 2.70545 44.2252 2.93571 44.0967C3.16598 43.9681 3.35929 43.7809 3.49574 43.5574L18.9321 18.0562L19.9442 18.2825L21.5589 18.6402L10.5118 37.0026C10.3099 37.3407 10.2531 37.743 10.3554 38.1202C10.4549 38.4974 10.7051 38.8243 11.049 39.0227C11.2765 39.1568 11.5408 39.2267 11.8052 39.2239C12.0725 39.2267 12.334 39.1624 12.5643 39.0339C12.7945 38.9053 12.9878 38.7209 13.1243 38.4974L24.5807 19.4365C25.4307 19.7019 26.258 20.0232 27.0654 20.3948L19.3244 33.1021C19.1425 33.4402 19.1027 33.8314 19.2079 34.1974C19.3131 34.5634 19.5604 34.8736 19.8958 35.0663C20.2313 35.2591 20.6293 35.3178 21.0102 35.2312C21.3883 35.1446 21.7181 34.9183 21.9313 34.5997L29.6381 21.9455C30.3431 22.4429 31.014 22.9849 31.6479 23.5689L19.9072 43.0629C19.7963 43.2305 19.7196 43.4177 19.6855 43.6161C19.6485 43.8117 19.657 44.0156 19.7025 44.2084C19.748 44.404 19.8361 44.5856 19.9584 44.7477C20.0806 44.9097 20.2341 45.0439 20.4104 45.1444C20.5866 45.245 20.7828 45.3121 20.9846 45.3372C21.1865 45.3624 21.394 45.3484 21.5901 45.2925C21.7863 45.2366 21.9711 45.1444 22.1303 45.0187C22.2895 44.893 22.4202 44.7365 22.514 44.5605L33.8454 25.7538L34.9228 26.9077L35.6989 27.7515L20.291 53.2108C20.1801 53.3785 20.1033 53.5657 20.0664 53.764C20.0323 53.9596 20.038 54.1636 20.0834 54.3592C20.1289 54.5548 20.2171 54.7364 20.3393 54.8984C20.4615 55.0605 20.6151 55.1946 20.7913 55.2952C20.9676 55.3958 21.1637 55.4628 21.3684 55.488C21.5702 55.5131 21.7778 55.4991 21.9739 55.4433C22.1701 55.3874 22.3548 55.2952 22.514 55.1694C22.6732 55.0437 22.804 54.8873 22.8978 54.7112L37.9277 29.875C38.5787 30.4254 39.3462 30.8334 40.1763 31.0653L32.5576 43.8005C32.4524 43.9681 32.3842 44.1526 32.3529 44.3481C32.3217 44.5409 32.333 44.7393 32.3814 44.9293C32.4297 45.1193 32.5178 45.2981 32.6372 45.4546C32.7566 45.611 32.9073 45.7424 33.0807 45.8429C33.2541 45.9435 33.4446 46.0078 33.6436 46.0329C33.8426 46.0609 34.0444 46.0469 34.2377 45.9966C34.431 45.9463 34.613 45.8569 34.7722 45.7396C34.9314 45.6194 35.065 45.4713 35.1645 45.3009L45.8107 27.5616C48.2669 23.4459 48.9549 18.548 47.7239 13.9378C46.4902 9.32765 43.4398 5.38247 39.2354 2.96563L39.2325 2.96842ZM43.4199 25.6504L42.9054 26.5166C42.172 27.6705 41.6688 28.0645 41.1599 28.0812C40.2957 28.1092 38.6526 26.4914 37.2084 24.9156C35.3407 22.8592 33.0039 20.2943 29.8854 18.5145C26.7697 16.7346 23.3384 15.9803 20.5895 15.3795C18.4773 14.9241 16.2172 14.396 15.8107 13.6472C15.5321 13.1387 15.7397 12.3368 16.6579 10.8336C17.6529 9.11531 18.9833 7.60652 20.5753 6.39112C22.1672 5.17571 23.9866 4.27883 25.9339 3.75075C27.8812 3.22268 29.9138 3.07459 31.918 3.31488C33.9222 3.55517 35.861 4.17824 37.6178 5.14777C39.3775 6.1173 40.9211 7.41932 42.1663 8.97281C43.4114 10.5263 44.3296 12.3061 44.8698 14.206C45.4099 16.106 45.5634 18.0926 45.3161 20.0512C45.0716 22.0098 44.432 23.9014 43.437 25.6197L43.4199 25.6476V25.6504ZM35.1815 11.5517C34.6954 11.6607 34.1866 11.6299 33.7175 11.4567C33.2513 11.2835 32.8448 10.9817 32.5548 10.585C32.2648 10.1882 32.0999 9.71602 32.0829 9.22986C32.0658 8.7437 32.1994 8.26033 32.461 7.84681C32.7254 7.43329 33.1091 7.1036 33.564 6.90243C34.0188 6.70126 34.5248 6.63699 35.0166 6.71523C35.5085 6.79346 35.9661 7.01419 36.33 7.34947C36.6939 7.68196 36.9497 8.11504 37.0635 8.59003C37.1402 8.90575 37.1487 9.23265 37.0947 9.55118C37.0407 9.8697 36.9242 10.177 36.7479 10.4509C36.5717 10.7275 36.3442 10.965 36.0742 11.155C35.8041 11.3422 35.4999 11.4791 35.1758 11.5517H35.1815ZM28.1314 12.2055C27.7476 12.2893 27.3439 12.2642 26.9744 12.1273C26.6048 11.9904 26.2864 11.7501 26.0562 11.4372C25.8259 11.1242 25.698 10.7498 25.6838 10.367C25.6695 9.98146 25.7719 9.60147 25.9794 9.27177C26.1869 8.94487 26.4883 8.68223 26.8465 8.52018C27.2046 8.35812 27.6026 8.30224 27.9949 8.36092C28.3844 8.41959 28.7483 8.59003 29.0411 8.84987C29.3339 9.10972 29.5386 9.4478 29.6352 9.8222C29.6978 10.0737 29.712 10.3363 29.6693 10.5934C29.6296 10.8504 29.5357 11.0963 29.3936 11.317C29.2515 11.5377 29.0695 11.7277 28.8535 11.8786C28.6374 12.0295 28.3901 12.1357 28.1314 12.1915V12.2083V12.2055ZM41.3788 20.5234C40.9808 20.6128 40.5658 20.5876 40.182 20.4451C39.8011 20.3054 39.4685 20.0568 39.2325 19.7327C38.9937 19.4085 38.8601 19.023 38.8487 18.6234C38.8345 18.2239 38.9454 17.8327 39.1586 17.4946C39.3746 17.1565 39.6874 16.8883 40.0598 16.7235C40.4322 16.5586 40.8444 16.5055 41.2481 16.5726C41.6517 16.6369 42.0241 16.8185 42.3226 17.0923C42.6211 17.3661 42.8286 17.7182 42.9225 18.1065C43.0419 18.6262 42.948 19.1683 42.6581 19.6181C42.3681 20.0679 41.9076 20.3893 41.3788 20.5066V20.5234ZM40.7534 15.7595C40.4435 15.8322 40.1195 15.8154 39.8181 15.7092C39.5196 15.6031 39.2581 15.4103 39.0705 15.1588C38.8828 14.9073 38.7748 14.6084 38.7635 14.2955C38.7492 13.9853 38.8317 13.678 38.9994 13.4125C39.1671 13.1471 39.4088 12.9348 39.6987 12.8062C39.9887 12.6777 40.3099 12.633 40.6255 12.6805C40.941 12.7308 41.2338 12.8677 41.4669 13.08C41.7001 13.2924 41.8649 13.5662 41.9389 13.868C42.0327 14.2675 41.9588 14.6894 41.7399 15.0387C41.5181 15.3879 41.1656 15.6394 40.7562 15.7372V15.7539L40.7534 15.7595ZM37.1288 17.3298C36.9014 17.3801 36.6626 17.3633 36.4466 17.2795C36.2305 17.1985 36.0401 17.056 35.9064 16.8688C35.7728 16.6816 35.6961 16.4636 35.6904 16.2345C35.6847 16.0082 35.7444 15.7819 35.8695 15.5891C35.9917 15.3963 36.1708 15.2426 36.384 15.1476C36.5972 15.0526 36.8332 15.0219 37.0635 15.0582C37.2937 15.0945 37.5069 15.1979 37.6775 15.3516C37.8481 15.5053 37.9675 15.7064 38.0243 15.9272C38.0613 16.0753 38.067 16.2317 38.0414 16.3826C38.0158 16.5335 37.9618 16.6788 37.8765 16.8101C37.7941 16.9414 37.6832 17.0532 37.5553 17.1426C37.4273 17.232 37.2824 17.2935 37.1288 17.327V17.3298ZM23.8274 9.4925C23.6 9.54279 23.364 9.52324 23.1451 9.44221C22.9291 9.36118 22.7415 9.21868 22.605 9.03148C22.4714 8.84708 22.3946 8.62635 22.389 8.39724C22.3833 8.17092 22.443 7.9446 22.5652 7.75182C22.6874 7.55903 22.8665 7.40535 23.0769 7.31036C23.2901 7.21536 23.5232 7.18463 23.7535 7.22095C23.9838 7.25727 24.197 7.35786 24.3704 7.51153C24.5409 7.6652 24.6632 7.86637 24.7172 8.0871C24.7854 8.38606 24.7314 8.69899 24.5637 8.95884C24.396 9.21869 24.1287 9.4003 23.8246 9.46736V9.48971L23.8274 9.4925Z" fill="url(#paint0_linear_205_719)"/>
<defs>
<linearGradient id="paint0_linear_205_719" x1="11.8826" y1="50.5117" x2="29.988" y2="5.79278" gradientUnits="userSpaceOnUse">
<stop stop-color="#46ADD8"/>
<stop offset="1" stop-color="#675AF1"/>
</linearGradient>
</defs>
</svg>
