<svg width="81" height="81" viewBox="0 0 81 81" fill="none" xmlns="http://www.w3.org/2000/svg">
<path d="M40.4749 41.8099C41.3058 41.7932 42.0239 42.4675 42.0594 43.3025C42.097 44.1647 41.3935 44.9141 40.5313 44.9308C39.6691 44.9475 38.9406 44.2253 38.9468 43.361C38.9531 42.526 39.642 41.8266 40.4749 41.812V41.8099Z" fill="url(#paint0_linear_205_675)"/>
<path d="M40.5 9.38782C41.3622 9.38991 42.0803 8.65508 42.0594 7.79082L42.0615 7.79291C42.0406 6.95788 41.3392 6.26898 40.5063 6.26898C39.642 6.2669 38.926 6.99963 38.9468 7.86389C38.9656 8.69683 39.6691 9.38782 40.5 9.38782Z" fill="url(#paint1_linear_205_675)"/>
<path fill-rule="evenodd" clip-rule="evenodd" d="M55.0295 80.1628H25.9705C25.0415 79.5282 24.7263 78.9291 24.933 78.1963C25.1626 77.378 25.768 77.0336 26.9788 77.0315H28.271C28.7679 75.0172 29.2613 73.0193 29.7584 71.0061L30.5903 67.6374H5.63126C2.41639 67.6374 0.5 65.7043 0.5 62.4665V16.4417C0.5 13.1997 2.41222 11.275 5.63126 11.2729H26.4402C26.4402 11.0706 26.4394 10.8795 26.4387 10.6957C26.4374 10.3488 26.4361 10.0279 26.4402 9.70722C26.4799 7.3754 28.0372 5.49449 30.3314 5.09785C30.9985 4.98226 31.6948 4.99912 32.3797 5.01571L32.5881 5.02061C33.0369 5.03105 33.2728 4.89745 33.4691 4.46949C34.2227 2.8224 35.4418 1.59073 37.0701 0.816241C37.5811 0.572966 38.1269 0.404137 38.6732 0.235148C38.9191 0.159067 39.1652 0.0829538 39.4082 0H41.596C41.6531 0.0183428 41.7098 0.0385931 41.7664 0.0588169C41.8772 0.0984325 41.9879 0.137955 42.1012 0.162831C44.1449 0.624184 45.9277 1.62831 46.9068 3.46746C47.6291 4.8223 48.5038 5.07907 49.8836 5.04567C52.4973 4.97886 54.5097 7.06644 54.5619 9.68425C54.5688 10.0215 54.5666 10.3597 54.5643 10.7131C54.5631 10.8956 54.5619 11.0823 54.5619 11.275H55.5785C57.4876 11.275 59.3968 11.2746 61.306 11.2743C66.0799 11.2735 70.8544 11.2726 75.6276 11.2771C77.9886 11.2792 79.6733 12.5609 80.3539 14.8301C80.3783 14.9102 80.4124 14.9867 80.4465 15.0631C80.4648 15.1043 80.4832 15.1454 80.5 15.1871V63.7232C79.5752 66.9276 77.3373 67.6917 74.755 67.6666C69.1414 67.6094 63.5277 67.6195 57.9141 67.6296C55.7411 67.6335 53.5681 67.6374 51.3951 67.6374H50.4076C51.2009 70.8355 51.9629 73.9105 52.7374 77.0377C52.9446 77.0377 53.1483 77.0342 53.3493 77.0308C53.7905 77.0233 54.2189 77.016 54.6433 77.0461C55.7163 77.1233 56.4282 78.1692 55.9961 79.1044C55.8638 79.3891 55.6116 79.6184 55.3597 79.8474C55.2459 79.9509 55.1322 80.0543 55.0295 80.1628ZM77.3457 37.9458H3.66476V58.1744H12.6434C12.61 55.2497 13.658 52.8824 15.8583 51.0349C15.971 50.941 15.994 50.6863 15.9835 50.5088C15.9537 50.036 15.9071 49.5628 15.8605 49.0897C15.7668 48.1382 15.6731 47.1872 15.7163 46.2418C15.8416 43.4904 18.0565 41.2943 20.7641 41.0375C23.4424 40.7828 26.1145 42.4947 26.626 45.148C26.8818 46.4713 26.7893 47.8713 26.6979 49.2546C26.6775 49.5646 26.657 49.8738 26.6406 50.1811C26.6395 50.2009 26.6384 50.2204 26.6373 50.2396C26.636 50.2616 26.6347 50.2831 26.6334 50.3043C26.6085 50.7075 26.5919 50.9764 26.9663 51.2938C28.4672 52.5651 29.4025 54.1955 29.749 56.1411C29.8317 56.6077 29.8765 57.0801 29.9205 57.545C29.9409 57.7603 29.9611 57.9741 29.9849 58.1848H38.9427C38.9427 57.4143 38.9421 56.6487 38.9415 55.8865V55.8843C38.9402 54.1177 38.9389 52.3697 38.9448 50.6216C38.9489 49.5527 39.5836 48.8492 40.5063 48.8513C41.4269 48.8513 42.0594 49.5548 42.0636 50.6257C42.0703 52.0685 42.0692 53.5112 42.0682 54.9539C42.0676 55.7553 42.067 56.5567 42.0678 57.3582V58.189H51.0798C51.0485 55.2622 52.0944 52.8657 54.326 51.014C54.4241 50.9326 54.4492 50.7072 54.4387 50.5527C54.4058 50.0924 54.359 49.6321 54.3122 49.1719C54.2196 48.261 54.127 47.3507 54.1423 46.4422C54.1882 43.6574 56.3155 41.4049 59.0815 41.048C61.7473 40.7056 64.5113 42.4153 65.0499 45.1041C65.3258 46.4766 65.2234 47.9353 65.1226 49.3702C65.1029 49.6507 65.0833 49.9303 65.0666 50.2082C65.0373 50.7093 65.0478 50.9827 65.434 51.3105C66.7846 52.4545 67.676 53.9158 68.0831 55.6359C68.2174 56.2018 68.2833 56.7833 68.3503 57.3751C68.3812 57.6478 68.4123 57.9229 68.4505 58.1995H77.3457V37.9458ZM42.12 15.6067V34.7038H51.0819C51.0255 31.6414 52.2155 29.201 54.2926 27.5434C54.2724 26.979 54.2426 26.4401 54.2137 25.9187C54.1533 24.826 54.0971 23.8103 54.1423 22.7984C54.2655 20.0491 56.4386 17.8488 59.1567 17.5586C61.8183 17.2726 64.5154 18.9656 65.0436 21.6231C65.3006 22.918 65.2157 24.2869 65.1315 25.6438C65.109 26.0064 65.0866 26.368 65.0707 26.7272C65.0685 26.7799 65.0654 26.8303 65.0625 26.8789C65.0411 27.234 65.0258 27.4871 65.3693 27.7773C66.8932 29.0653 67.8451 30.7124 68.1917 32.6851C68.2716 33.1443 68.3131 33.6096 68.3548 34.0781C68.3731 34.2827 68.3914 34.4878 68.4129 34.6934H77.3791V16.3207C77.3791 14.9554 76.8113 14.4063 75.4084 14.4063H75.3826C65.3688 14.4063 55.3549 14.4063 45.3411 14.4084C45.0864 14.4084 44.8108 14.4147 44.5833 14.5086C44.004 14.7484 43.4322 15.0094 42.8421 15.2787C42.6049 15.387 42.3647 15.4966 42.12 15.6067ZM3.6251 34.7101H12.5641C12.5781 34.6758 12.5922 34.6475 12.6043 34.6233C12.6245 34.5826 12.6392 34.553 12.6392 34.5243C12.6392 31.7249 13.6726 29.4056 15.8144 27.5894C15.9355 27.4871 16.0086 27.2491 15.9961 27.0821C15.9636 26.5968 15.9141 26.1118 15.8646 25.6271C15.7743 24.7418 15.684 23.8573 15.6975 22.9737C15.7414 20.1597 17.9166 17.8738 20.6994 17.5607C23.3798 17.2601 26.0101 19.0157 26.6677 21.6711C27.0853 23.3558 27.056 25.0864 26.6281 26.7794C26.5153 27.2199 26.5613 27.4641 26.9182 27.7606C28.3441 28.9484 29.2626 30.4786 29.678 32.2802C29.8 32.8077 29.8535 33.3516 29.9081 33.9053C29.9338 34.1667 29.9598 34.4304 29.9932 34.6955H38.9197V15.5629C38.725 15.4873 38.5282 15.4199 38.3329 15.353C37.9024 15.2054 37.4792 15.0604 37.1014 14.8364C36.4585 14.4564 35.805 14.3917 35.0932 14.3917C27.4604 14.3999 19.8277 14.3991 12.1949 14.3984C10.014 14.3982 7.83305 14.398 5.65213 14.398C4.14699 14.398 3.62719 14.9157 3.62719 16.4146V34.7038L3.6251 34.7101ZM65.1939 61.4289H3.6251V62.1805C3.61884 64.0948 4.03426 64.506 5.97153 64.506H65.1939V61.4289ZM49.5121 77.0043C48.7367 73.8761 47.9757 70.8114 47.2169 67.7553L47.1948 67.6666H33.8093L32.737 72.0037C32.3267 73.6632 31.9154 75.3269 31.5005 77.0043H49.5121ZM40.5334 12.5234C43.0969 12.5087 45.1929 10.3899 45.1887 7.81588C45.1824 5.2419 43.0802 3.13762 40.5104 3.13345C37.9072 3.12927 35.7967 5.26277 35.8176 7.8785C35.8384 10.4462 37.9615 12.538 40.5334 12.5234ZM26.7638 34.7226C26.864 32.8521 26.2502 31.3407 24.887 30.1613C24.7138 30.013 24.2983 29.9525 24.1 30.0569C22.2275 31.0401 20.38 31.0485 18.5053 30.0715C18.3091 29.9692 17.9208 29.965 17.7726 30.0924C16.3676 31.2927 15.6892 32.8167 15.8061 34.7226H26.7638ZM65.2044 34.7163C65.3087 32.8104 64.6637 31.2719 63.2316 30.0798C63.0896 29.9609 62.7368 29.9442 62.5657 30.036C60.6743 31.0506 58.7997 31.0547 56.9062 30.0444C56.7392 29.9546 56.4261 29.9233 56.2946 30.0193C54.8333 31.0798 53.898 33.4325 54.3469 34.7163H65.2044ZM26.7638 58.2015C26.8681 56.2956 26.221 54.7571 24.791 53.565C24.6491 53.4461 24.2963 53.4294 24.1251 53.5212C22.2337 54.5358 20.357 54.5379 18.4636 53.5296C18.2966 53.4398 17.9834 53.4085 17.8519 53.5045C16.3906 54.5671 15.4554 56.9177 15.9042 58.2015H26.7638ZM54.2425 58.1995H65.2085C65.2962 56.2956 64.6637 54.7508 63.2274 53.563C63.0855 53.4461 62.7327 53.4314 62.5615 53.5254C60.6681 54.5379 58.7955 54.5358 56.8979 53.5358C56.7121 53.4377 56.3259 53.4732 56.1714 53.6089C54.7978 54.8051 54.1381 56.3186 54.2425 58.2015V58.1995ZM23.771 23.8146C23.7764 23.5477 23.7818 23.2811 23.7618 23.0155C23.6595 21.6878 22.5907 20.6795 21.3006 20.6712C19.9812 20.6628 18.8748 21.7003 18.8059 23.0614C18.7684 23.813 18.7621 24.5707 18.8101 25.3223C18.8915 26.6374 19.9917 27.6645 21.2693 27.675C22.5448 27.6854 23.6449 26.6708 23.7597 25.3557C23.7815 25.1039 23.7767 24.8494 23.7718 24.5946C23.7692 24.4586 23.7666 24.3225 23.7681 24.1866L23.766 24.1845C23.766 24.0612 23.7685 23.9378 23.771 23.8146ZM57.2403 24.147C57.2403 24.2703 57.2378 24.3936 57.2353 24.5169C57.2298 24.7838 57.2244 25.0504 57.2444 25.316C57.3405 26.6291 58.4239 27.6604 59.7015 27.6729C60.977 27.6854 62.098 26.675 62.192 25.3578C62.2483 24.5812 62.2442 23.7963 62.1962 23.0197C62.1126 21.6607 60.9874 20.6419 59.666 20.6712C58.3822 20.6983 57.3258 21.7296 57.2403 23.0552C57.2232 23.3244 57.2291 23.5947 57.2351 23.8645C57.2371 23.9588 57.2392 24.0529 57.2403 24.147ZM18.7935 47.9503C18.789 48.2184 18.7845 48.4863 18.8018 48.7532C18.8832 50.108 19.9875 51.1643 21.2922 51.1581C22.574 51.1518 23.6721 50.1331 23.7556 48.8137C23.8057 48.0372 23.8078 47.2522 23.7556 46.4757C23.6658 45.1521 22.5657 44.1522 21.2755 44.1564C19.9896 44.1605 18.9082 45.1751 18.8059 46.4944C18.7865 46.7351 18.7911 46.9776 18.7957 47.2207C18.798 47.3424 18.8004 47.4644 18.7997 47.5862L18.7976 47.5842C18.7976 47.7062 18.7955 47.8283 18.7935 47.9503ZM62.2045 47.6426C62.2045 47.5188 62.2072 47.3947 62.21 47.2707C62.2158 47.0039 62.2217 46.7373 62.2003 46.4736C62.0876 45.15 61.0062 44.1501 59.7161 44.1543C58.4302 44.1584 57.3321 45.173 57.2507 46.4924C57.2027 47.2689 57.2006 48.0539 57.2507 48.8304C57.3384 50.1435 58.4573 51.1643 59.7328 51.1581C61.0146 51.1518 62.0959 50.1331 62.2003 48.8137C62.2217 48.5486 62.2158 48.2826 62.21 48.0162C62.2072 47.8924 62.2045 47.7685 62.2045 47.6447V47.6426ZM68.3879 64.5039C69.1034 64.5039 69.8117 64.5051 70.5149 64.5063H70.5161C72.3054 64.5092 74.0615 64.5121 75.8176 64.4956C76.6568 64.4872 77.281 63.9173 77.3561 63.1178C77.3922 62.7306 77.3834 62.3395 77.3745 61.9477C77.3705 61.7735 77.3665 61.5989 77.3665 61.4248H68.3879V64.5039ZM33.4189 11.2458C33.3686 11.0895 33.3168 10.9363 33.2657 10.785C33.1475 10.4348 33.0325 10.0944 32.9451 9.74897C32.8545 9.39239 32.7906 9.02887 32.7276 8.67002C32.6992 8.50795 32.6708 8.34656 32.6403 8.18746C29.8972 7.97662 29.392 8.48181 29.6091 11.2458H33.4189ZM48.4119 8.18746C48.1468 9.2396 47.8963 10.2375 47.6374 11.2729H51.4013C51.5829 8.44841 51.084 7.95574 48.4119 8.18746Z" fill="url(#paint2_linear_205_675)"/>
<defs>
<linearGradient id="paint0_linear_205_675" x1="19.312" y1="72.8924" x2="43.0409" y2="5.36895" gradientUnits="userSpaceOnUse">
<stop stop-color="#46ADD8"/>
<stop offset="1" stop-color="#675AF1"/>
</linearGradient>
<linearGradient id="paint1_linear_205_675" x1="19.312" y1="72.8924" x2="43.0409" y2="5.36895" gradientUnits="userSpaceOnUse">
<stop stop-color="#46ADD8"/>
<stop offset="1" stop-color="#675AF1"/>
</linearGradient>
<linearGradient id="paint2_linear_205_675" x1="19.312" y1="72.8924" x2="43.0409" y2="5.36895" gradientUnits="userSpaceOnUse">
<stop stop-color="#46ADD8"/>
<stop offset="1" stop-color="#675AF1"/>
</linearGradient>
</defs>
</svg>