<svg width="81" height="56" viewBox="0 0 81 56" fill="none" xmlns="http://www.w3.org/2000/svg">
<path d="M79.776 26.8184C76.4883 22.1157 72.7461 17.8022 68.5571 13.881C63.6303 9.27017 58.252 5.32403 51.9304 2.80068C46.9071 0.797255 41.728 0.00335744 36.3404 0.814379C30.8641 1.63785 25.9279 3.82341 21.3467 6.83711C13.0356 12.3025 6.35445 19.4072 0.717773 27.5407V28.4716C3.073 31.4495 5.29747 34.5426 7.80993 37.3804C12.9205 43.154 18.7143 48.1509 25.6633 51.6238C27.9609 52.7727 30.4345 53.5837 32.8597 54.4616C33.9759 54.8664 34.9986 54.1036 34.997 53.0295C34.997 52.2558 34.5269 51.7235 33.5509 51.451C29.6016 50.3474 25.9808 48.5417 22.5889 46.272C15.4905 41.5227 9.69193 35.447 4.61099 28.6382C4.25607 28.1634 4.24361 27.8567 4.60165 27.3757C7.58577 23.3548 10.8672 19.5971 14.5207 16.174C19.1206 11.8651 24.1455 8.17272 30.0297 5.77391C34.1658 4.08804 38.445 3.27546 42.9251 3.72845C48.003 4.24215 52.5873 6.13505 56.8806 8.77982C64.7604 13.6335 71.0151 20.1964 76.5054 27.5532C76.781 27.9221 76.7156 28.1603 76.4681 28.4981C72.0814 34.4445 67.0939 39.8134 61.1926 44.292C56.9802 47.4893 52.4426 50.0796 47.2947 51.4869C46.6191 51.6721 46.1505 52.0893 46.0711 52.8271C45.9404 54.0351 46.9429 54.7917 48.2271 54.4445C51.9273 53.4451 55.3629 51.8402 58.6023 49.8166C67.1919 44.4507 74.0195 37.273 79.8507 29.0834C80.4531 28.2381 80.4189 27.7384 79.7775 26.8184H79.776Z" fill="url(#paint0_linear_205_699)"/>
<path d="M60.7365 28.0016C60.7318 16.8185 51.6845 7.78051 40.4874 7.77584C29.3059 7.77117 20.243 16.8294 20.2445 28.0078C20.2445 39.1831 29.3106 48.2382 40.4936 48.2366C51.6814 48.2335 60.7411 39.1784 60.7365 28.0031V28.0016ZM23.3516 27.9642C23.3828 18.4966 31.0493 10.8627 40.5123 10.8814C50.0173 10.8985 57.6963 18.6164 57.6294 28.0856C57.5624 37.5657 49.8741 45.1871 40.4313 45.1326C30.945 45.0781 23.3221 37.4147 23.3532 27.9657L23.3516 27.9642Z" fill="url(#paint1_linear_205_699)"/>
<path d="M40.545 52.4116C39.6966 52.3758 38.9432 53.1059 38.9416 53.9682C38.9416 54.8104 39.6203 55.4907 40.4718 55.5C41.3233 55.5078 42.0207 54.8415 42.0378 54.004C42.0549 53.1759 41.3731 52.4489 40.545 52.4131V52.4116Z" fill="url(#paint2_linear_205_699)"/>
<path d="M40.5497 19.1535C35.6322 19.1317 31.6393 23.0856 31.63 27.9844C31.6206 32.8552 35.5761 36.8418 40.4313 36.859C45.3504 36.8761 49.3464 32.9191 49.3526 28.0249C49.3588 23.1494 45.4158 19.1753 40.5497 19.1535ZM40.4858 33.755C37.2978 33.7534 34.7293 31.174 34.7371 27.9813C34.7449 24.8291 37.304 22.2684 40.4563 22.259C43.6567 22.2481 46.2377 24.8057 46.2439 27.9922C46.2486 31.1818 43.677 33.7581 40.4858 33.755Z" fill="url(#paint3_linear_205_699)"/>
<defs>
<linearGradient id="paint0_linear_205_699" x1="19.4272" y1="50.5118" x2="31.345" y2="1.35197" gradientUnits="userSpaceOnUse">
<stop stop-color="#46ADD8"/>
<stop offset="1" stop-color="#675AF1"/>
</linearGradient>
<linearGradient id="paint1_linear_205_699" x1="19.4272" y1="50.5118" x2="31.345" y2="1.35197" gradientUnits="userSpaceOnUse">
<stop stop-color="#46ADD8"/>
<stop offset="1" stop-color="#675AF1"/>
</linearGradient>
<linearGradient id="paint2_linear_205_699" x1="19.4272" y1="50.5118" x2="31.345" y2="1.35197" gradientUnits="userSpaceOnUse">
<stop stop-color="#46ADD8"/>
<stop offset="1" stop-color="#675AF1"/>
</linearGradient>
<linearGradient id="paint3_linear_205_699" x1="19.4272" y1="50.5118" x2="31.345" y2="1.35197" gradientUnits="userSpaceOnUse">
<stop stop-color="#46ADD8"/>
<stop offset="1" stop-color="#675AF1"/>
</linearGradient>
</defs>
</svg>
