<svg width="1200" height="630" viewBox="0 0 1200 630" fill="none" xmlns="http://www.w3.org/2000/svg">
<rect width="1200" height="630" fill="#F6F5FF"/>
<path d="M123.84 191.2H153.92V199.456H133.44V209.504H150.08V217.376H133.44V227.744H154.624V236H123.84V191.2ZM159.699 191.2H168.723V236H159.699V191.2ZM183.267 190.88C184.227 191.84 184.739 193.056 184.739 194.464C184.739 195.936 184.227 197.152 183.267 198.112C182.243 199.136 181.027 199.584 179.555 199.584C178.019 199.584 176.803 199.136 175.779 198.112C174.755 197.152 174.307 195.936 174.307 194.464C174.307 193.056 174.755 191.84 175.779 190.88C176.803 189.92 178.019 189.408 179.555 189.408C181.027 189.408 182.243 189.92 183.267 190.88ZM175.011 203.104H184.035V236H175.011V203.104ZM199.604 219.232L187.956 203.104H198.26L205.108 212.832L212.084 203.104H221.748L210.164 219.232L222.388 236H212.084L204.532 225.696L197.044 236H187.38L199.604 219.232ZM233.892 190.88C234.852 191.84 235.364 193.056 235.364 194.464C235.364 195.936 234.852 197.152 233.892 198.112C232.868 199.136 231.652 199.584 230.18 199.584C228.644 199.584 227.428 199.136 226.404 198.112C225.38 197.152 224.932 195.936 224.932 194.464C224.932 193.056 225.38 191.84 226.404 190.88C227.428 189.92 228.644 189.408 230.18 189.408C231.652 189.408 232.868 189.92 233.892 190.88ZM225.636 203.104H234.66V236H225.636V203.104ZM260.981 203.104V211.296H257.397C254.837 211.296 252.917 212.064 251.765 213.6C250.549 215.136 249.973 217.248 249.973 219.872V236H240.949V203.104H249.141L249.973 208.032C250.933 206.432 252.149 205.216 253.621 204.384C255.029 203.552 257.013 203.104 259.445 203.104H260.981Z" fill="#4339AC"/>
<path d="M278.326 191.2L288.246 191.136L296.502 223.904L305.27 191.2H313.91L322.422 223.904L330.87 191.2H340.598L328.182 236H317.11L309.366 206.24L301.814 236H290.742L278.326 191.2ZM342.029 210.72C343.437 208.16 345.357 206.24 347.853 204.832C350.349 203.424 353.229 202.72 356.557 202.72C359.885 202.72 362.765 203.424 365.325 204.704C367.885 205.984 369.869 207.84 371.277 210.208C372.685 212.576 373.453 215.328 373.517 218.528C373.517 219.68 373.389 220.704 373.261 221.6H349.389V221.856C349.581 224.288 350.349 226.144 351.693 227.488C352.973 228.896 354.829 229.536 357.133 229.536C358.925 229.536 360.461 229.152 361.677 228.384C362.893 227.616 363.725 226.4 364.109 224.864H373.005C372.621 227.04 371.789 229.024 370.509 230.752C369.165 232.544 367.437 233.888 365.261 234.912C363.085 235.936 360.589 236.384 357.773 236.384C354.061 236.384 350.925 235.744 348.237 234.336C345.549 232.992 343.501 231.072 342.093 228.512C340.685 225.952 339.981 223.008 339.981 219.616C339.981 216.224 340.621 213.28 342.029 210.72ZM364.493 215.712C364.173 213.728 363.341 212.192 361.997 211.104C360.653 210.016 358.989 209.44 356.941 209.44C354.957 209.44 353.293 210.016 351.949 211.168C350.605 212.32 349.837 213.792 349.581 215.712H364.493ZM405.265 204.768C407.569 206.112 409.361 208.032 410.641 210.592C411.921 213.152 412.625 216.096 412.625 219.488C412.625 222.816 411.921 225.76 410.641 228.32C409.361 230.88 407.569 232.864 405.265 234.272C402.961 235.68 400.337 236.384 397.457 236.384C395.153 236.384 393.105 236 391.441 235.104C389.713 234.208 388.305 233.056 387.217 231.52L386.321 236H378.449V191.2H387.473V207.264C389.969 204.256 393.297 202.72 397.393 202.72C400.337 202.72 402.961 203.424 405.265 204.768ZM401.233 226.4C402.705 224.672 403.473 222.368 403.473 219.552C403.473 216.736 402.705 214.496 401.233 212.704C399.697 210.976 397.777 210.08 395.345 210.08C392.913 210.08 390.929 210.976 389.521 212.704C388.049 214.432 387.345 216.672 387.345 219.488C387.345 222.368 388.049 224.672 389.521 226.4C390.929 228.192 392.913 229.024 395.345 229.024C397.777 229.024 399.697 228.192 401.233 226.4ZM436.58 191.2C439.78 191.2 442.66 191.84 445.156 193.056C447.652 194.272 449.572 196 450.98 198.24C452.324 200.544 453.028 203.168 453.028 206.112C453.028 208.992 452.324 211.552 450.98 213.728C449.572 215.904 447.716 217.568 445.348 218.72L454.18 236H443.556L436.068 220.96H427.94V236H418.34V191.2H436.58ZM427.94 212.96H435.812C438.052 212.96 439.844 212.384 441.188 211.104C442.532 209.888 443.236 208.224 443.236 206.112C443.236 204 442.532 202.336 441.188 201.056C439.844 199.84 438.052 199.2 435.812 199.2H427.94V212.96ZM454.658 191.2H490.114V199.456H477.186V236H467.586V199.456H454.658V191.2ZM493.11 201.632C494.902 198.176 497.398 195.552 500.726 193.632C504.054 191.776 507.958 190.816 512.438 190.816C515.894 190.816 519.03 191.52 521.846 192.864C524.597 194.272 526.838 196.192 528.566 198.624C530.23 201.12 531.254 204 531.638 207.2H522.038C521.462 204.64 520.31 202.656 518.518 201.184C516.726 199.712 514.55 198.944 511.926 198.944C508.342 198.944 505.462 200.288 503.414 202.976C501.302 205.664 500.278 209.248 500.278 213.6C500.278 217.952 501.302 221.536 503.414 224.224C505.462 226.912 508.342 228.256 511.926 228.256C514.55 228.256 516.726 227.552 518.518 226.08C520.31 224.608 521.462 222.56 522.038 220H531.638C531.254 223.264 530.23 226.144 528.566 228.576C526.838 231.072 524.597 232.992 521.846 234.336C519.03 235.744 515.894 236.384 512.438 236.384C507.958 236.384 504.054 235.488 500.726 233.568C497.398 231.712 494.902 229.088 493.11 225.632C491.318 222.176 490.486 218.208 490.486 213.6C490.486 209.056 491.318 205.088 493.11 201.632Z" fill="url(#paint0_linear_506_306)"/>
<path d="M128.604 292.494C129.33 292.906 129.898 293.494 130.31 294.258C130.721 295.042 130.937 295.944 130.937 297.002C130.937 298.021 130.721 298.903 130.31 299.668C129.898 300.452 129.33 301.04 128.604 301.471C127.86 301.902 127.036 302.118 126.135 302.118C125.312 302.118 124.626 301.98 124.057 301.686C123.469 301.392 123.018 300.981 122.705 300.471L122.489 302H121.098V288.28H122.705V293.611C123.528 292.474 124.684 291.886 126.135 291.886C127.056 291.886 127.879 292.102 128.604 292.494ZM128.369 299.668C128.977 298.982 129.29 298.1 129.29 297.002C129.29 295.924 128.977 295.042 128.369 294.356C127.762 293.67 126.958 293.317 125.978 293.317C125.331 293.317 124.763 293.474 124.253 293.788C123.744 294.101 123.371 294.532 123.097 295.081C122.822 295.63 122.685 296.257 122.685 296.963C122.685 297.688 122.822 298.335 123.097 298.903C123.371 299.472 123.744 299.903 124.253 300.216C124.763 300.53 125.331 300.687 125.978 300.687C126.958 300.687 127.762 300.354 128.369 299.668ZM133.096 292.004L136.173 300.158L139.153 292.004H140.858L136.252 303.686C136.017 304.293 135.801 304.744 135.625 305.038C135.429 305.352 135.213 305.567 134.939 305.704C134.664 305.861 134.292 305.92 133.841 305.92H131.92V304.45H133.351C133.665 304.45 133.9 304.43 134.057 304.352C134.213 304.293 134.331 304.195 134.429 304.038C134.527 303.882 134.645 303.627 134.801 303.274L135.311 302.078L131.391 292.004H133.096Z" fill="#001A72"/>
<path fill-rule="evenodd" clip-rule="evenodd" d="M163.05 270H248.808L259.825 281.012V319H174.024L163.05 308.031V270ZM164.322 272.175V307.504L173.652 316.829V281.538L164.322 272.175ZM165.217 271.272L174.552 280.639H257.653L248.281 271.272H165.217ZM258.553 317.728H174.924V281.911H258.553V317.728Z" fill="#001A72"/>
<path d="M189.937 296.068C189.937 297.34 189.089 298.442 187.053 298.442C186.163 298.442 185.442 298.23 184.806 297.976V296.195C185.484 296.535 186.29 296.746 187.011 296.746C187.689 296.746 188.029 296.535 188.029 296.153C188.029 294.966 184.806 295.348 184.806 292.932C184.806 291.448 185.993 290.558 187.647 290.558C188.326 290.558 188.962 290.727 189.64 291.109V292.932C188.75 292.381 188.113 292.211 187.605 292.211C187.011 292.211 186.672 292.423 186.672 292.804C186.672 293.949 189.937 293.483 189.937 296.068Z" fill="#001A72"/>
<path d="M191.591 294.5C191.591 292.338 193.372 290.558 195.535 290.558C197.698 290.558 199.479 292.338 199.479 294.5C199.479 296.662 197.698 298.442 195.535 298.442C193.33 298.4 191.591 296.662 191.591 294.5ZM197.528 294.5C197.528 293.313 196.637 292.423 195.535 292.423C194.432 292.423 193.499 293.313 193.499 294.5C193.499 295.687 194.39 296.577 195.492 296.577C196.595 296.577 197.528 295.687 197.528 294.5Z" fill="#001A72"/>
<path d="M203.847 290.092V290.728H206.349L205.501 292.508H203.89V298.273H202.066V292.508H200.794V290.728H202.066V290.007C202.066 287.718 203.254 286.574 205.12 286.574C205.586 286.574 206.01 286.658 206.392 286.743V288.523C206.053 288.396 205.671 288.354 205.289 288.354C204.271 288.312 203.847 288.99 203.847 290.092Z" fill="#001A72"/>
<path d="M210.164 292.508V295.518C210.164 296.323 210.631 296.662 211.352 296.662C211.818 296.662 212.285 296.535 212.666 296.28V298.103C212.158 298.315 211.691 298.442 211.013 298.442C209.359 298.442 208.341 297.552 208.341 295.729V292.508H207.238V290.728H208.341V288.82L210.164 288.354V290.77H212.666V292.55H210.164V292.508Z" fill="#001A72"/>
<path d="M225.855 290.728L223.437 298.273H221.614L219.96 293.101L218.264 298.273H216.398L213.98 290.728H216.058L217.416 295.772L219.027 290.728H220.851L222.462 295.772L223.819 290.728H225.855Z" fill="#001A72"/>
<path d="M226.831 294.5C226.831 292.338 228.4 290.558 230.563 290.558C231.411 290.558 232.09 290.812 232.599 291.236V290.727H234.422V298.272H232.641V297.679C232.132 298.145 231.411 298.442 230.521 298.442C228.4 298.4 226.831 296.662 226.831 294.5ZM232.768 294.5C232.768 293.313 231.878 292.423 230.775 292.423C229.672 292.423 228.782 293.313 228.782 294.5C228.782 295.687 229.672 296.577 230.775 296.577C231.835 296.577 232.768 295.687 232.768 294.5Z" fill="#001A72"/>
<path d="M236.966 290.728H238.747V291.787C239.298 290.77 240.316 290.6 241.207 290.6V292.762C239.934 292.423 238.789 293.144 238.789 294.754V298.273H236.966V290.728Z" fill="#001A72"/>
<path d="M246.975 296.662C247.696 296.662 248.544 296.535 249.392 296.195L248.459 298.103C248.035 298.272 247.399 298.442 246.636 298.442C243.964 298.442 242.353 296.789 242.353 294.5C242.353 292.338 243.964 290.558 246.296 290.558C247.866 290.558 249.138 291.363 249.647 292.381V295.093H244.303C244.6 296.026 245.448 296.662 246.975 296.662ZM244.303 293.695H248.247C247.993 292.804 247.229 292.253 246.254 292.253C245.279 292.253 244.558 292.847 244.303 293.695Z" fill="#001A72"/>
<path d="M195.366 304.631V309.59H193.543V304.928C193.543 304.122 192.949 303.656 192.355 303.656C191.719 303.656 191.168 304.122 191.168 304.928V309.59H189.344V304.928C189.344 304.122 188.75 303.656 188.157 303.656C187.521 303.656 186.969 304.122 186.969 304.928V309.59H185.019V302.088H186.8V302.639C187.351 302.088 187.902 301.918 188.623 301.918C189.429 301.918 190.108 302.257 190.574 302.893C191.21 302.215 191.973 301.918 192.864 301.918C194.263 301.918 195.366 303.02 195.366 304.631Z" fill="#001A72"/>
<path d="M197.315 305.818C197.315 303.656 198.885 301.875 201.047 301.875C201.895 301.875 202.574 302.13 203.083 302.554V302.045H204.906V309.59H203.125V308.997C202.616 309.463 201.895 309.76 201.005 309.76C198.885 309.76 197.315 307.979 197.315 305.818ZM203.253 305.818C203.253 304.631 202.362 303.741 201.259 303.741C200.157 303.741 199.266 304.631 199.266 305.818C199.266 307.004 200.157 307.895 201.259 307.895C202.32 307.937 203.253 307.004 203.253 305.818Z" fill="#001A72"/>
<path d="M207.366 302.088H209.147V302.639C209.699 302.088 210.42 301.918 211.141 301.918C212.71 301.918 213.982 303.105 213.982 304.716V309.59H212.158V305.097C212.158 304.292 211.522 303.656 210.716 303.656C209.911 303.656 209.275 304.292 209.275 305.097V309.59H207.451V302.088H207.366Z" fill="#001A72"/>
<path d="M221.318 307.386C221.318 308.658 220.47 309.76 218.434 309.76C217.544 309.76 216.823 309.548 216.187 309.293V307.513C216.865 307.852 217.671 308.064 218.392 308.064C219.07 308.064 219.41 307.852 219.41 307.471C219.41 306.284 216.187 306.665 216.187 304.249C216.187 302.766 217.374 301.875 219.028 301.875C219.706 301.875 220.343 302.045 221.021 302.427V304.249C220.13 303.698 219.494 303.529 218.985 303.529C218.392 303.529 218.052 303.741 218.052 304.122C218.01 305.266 221.318 304.843 221.318 307.386Z" fill="#001A72"/>
<path d="M225.262 302.088V309.633H223.438V302.088H225.262Z" fill="#001A72"/>
<path d="M227.171 305.818C227.171 303.656 228.952 301.875 231.115 301.875C233.278 301.875 235.059 303.656 235.059 305.818C235.059 307.979 233.278 309.76 231.115 309.76C228.952 309.76 227.171 307.979 227.171 305.818ZM233.108 305.818C233.108 304.631 232.217 303.741 231.115 303.741C230.012 303.741 229.122 304.631 229.122 305.818C229.122 307.004 230.012 307.895 231.115 307.895C232.217 307.895 233.108 307.004 233.108 305.818Z" fill="#001A72"/>
<path d="M236.966 302.088H238.747V302.639C239.298 302.088 240.019 301.918 240.74 301.918C242.309 301.918 243.581 303.105 243.581 304.716V309.59H241.758V305.097C241.758 304.292 241.122 303.656 240.316 303.656C239.51 303.656 238.874 304.292 238.874 305.097V309.59H237.051V302.088H236.966Z" fill="#001A72"/>
<path d="M247.146 307.513V307.81H246.51V309.59H246.17V307.81H245.534V307.513H247.146Z" fill="#001A72"/>
<path d="M247.866 307.513L248.545 309.166L249.181 307.513H249.605V309.59H249.266V308.064L248.63 309.59H248.333L247.782 308.064V309.59H247.442V307.513H247.866Z" fill="#001A72"/>
<path d="M130.112 382.6C132.48 382.6 134.304 383.112 135.584 384.136C136.864 385.16 137.536 386.6 137.536 388.392C137.536 389.736 137.184 390.824 136.512 391.688C135.808 392.552 134.816 393.16 133.536 393.48C136.8 394.12 138.464 395.88 138.464 398.824C138.464 400.744 137.76 402.28 136.352 403.368C134.944 404.456 132.96 405 130.336 405H122.176V382.6H130.112ZM124.96 392.328H130.24C131.648 392.328 132.768 392.008 133.568 391.368C134.336 390.728 134.752 389.864 134.752 388.712C134.752 387.592 134.336 386.728 133.568 386.088C132.8 385.448 131.68 385.128 130.24 385.128H124.96V392.328ZM124.96 402.472H130.336C132.032 402.472 133.344 402.152 134.24 401.48C135.136 400.84 135.616 399.912 135.616 398.728C135.616 397.48 135.136 396.52 134.24 395.848C133.312 395.176 132 394.824 130.336 394.824H124.96V402.472ZM157.634 402.6V405H156.194C155.137 405 154.401 404.808 153.953 404.36C153.505 403.944 153.25 403.304 153.25 402.472C151.969 404.296 150.146 405.192 147.777 405.192C145.953 405.192 144.481 404.776 143.393 403.912C142.305 403.08 141.761 401.896 141.761 400.424C141.761 398.792 142.305 397.544 143.425 396.648C144.545 395.784 146.177 395.336 148.321 395.336H153.122V394.216C153.122 393.16 152.738 392.328 152.033 391.72C151.33 391.144 150.337 390.824 149.057 390.824C147.905 390.824 146.977 391.08 146.241 391.592C145.505 392.104 145.057 392.744 144.897 393.576H142.273C142.465 391.976 143.169 390.728 144.385 389.832C145.601 388.936 147.201 388.488 149.186 388.488C151.266 388.488 152.865 389 154.017 390.024C155.17 391.048 155.746 392.488 155.746 394.376V401.416C155.746 402.216 156.097 402.6 156.833 402.6H157.634ZM153.122 397.544H148.065C145.633 397.544 144.417 398.472 144.417 400.264C144.417 401.096 144.737 401.736 145.377 402.216C146.017 402.728 146.881 402.952 147.969 402.952C149.569 402.952 150.818 402.536 151.745 401.704C152.641 400.872 153.122 399.752 153.122 398.344V397.544ZM161.379 391.08H158.435V388.68H161.379V384.104H164.003V388.68H168.131V391.08H164.003V400.712C164.003 401.416 164.131 401.896 164.387 402.184C164.643 402.472 165.123 402.6 165.795 402.6H168.643V405H165.635C164.099 405 162.979 404.68 162.339 403.976C161.699 403.304 161.379 402.216 161.379 400.744V391.08ZM171.149 384.104H173.773V388.68H177.901V391.08H173.773V400.712C173.773 401.416 173.901 401.896 174.157 402.184C174.413 402.472 174.893 402.6 175.565 402.6H178.413V405H175.405C173.869 405 172.749 404.68 172.109 403.976C171.469 403.304 171.149 402.216 171.149 400.744V384.104ZM180.892 392.456C181.532 391.208 182.46 390.248 183.644 389.544C184.796 388.84 186.14 388.488 187.676 388.488C189.148 388.488 190.492 388.808 191.644 389.416C192.796 390.056 193.692 390.952 194.364 392.104C195.004 393.288 195.356 394.664 195.42 396.232C195.42 396.488 195.388 396.84 195.356 397.352H182.684V397.576C182.716 399.176 183.196 400.456 184.156 401.416C185.084 402.376 186.3 402.856 187.836 402.856C188.988 402.856 189.98 402.568 190.812 401.992C191.644 401.416 192.188 400.584 192.476 399.528H195.132C194.812 401.192 194.012 402.568 192.732 403.624C191.452 404.68 189.884 405.192 188.028 405.192C186.396 405.192 184.988 404.872 183.772 404.168C182.556 403.464 181.596 402.504 180.924 401.224C180.252 399.944 179.932 398.504 179.932 396.84C179.932 395.176 180.252 393.736 180.892 392.456ZM192.7 395.176C192.572 393.8 192.028 392.712 191.132 391.944C190.236 391.176 189.084 390.792 187.708 390.792C186.46 390.792 185.372 391.208 184.444 392.008C183.484 392.84 182.972 393.896 182.844 395.176H192.7ZM207.342 388.68V391.24H206.03C204.462 391.24 203.342 391.784 202.67 392.808C201.998 393.864 201.678 395.144 201.678 396.68V405H199.054V388.68H201.326L201.678 391.144C202.126 390.408 202.734 389.8 203.502 389.352C204.238 388.904 205.262 388.68 206.606 388.68H207.342ZM212.91 382.856C213.23 383.176 213.39 383.592 213.39 384.072C213.39 384.584 213.23 384.968 212.91 385.288C212.59 385.608 212.174 385.768 211.694 385.768C211.182 385.768 210.798 385.608 210.478 385.288C210.158 384.968 209.998 384.584 209.998 384.072C209.998 383.592 210.158 383.176 210.478 382.856C210.798 382.536 211.182 382.376 211.694 382.376C212.174 382.376 212.59 382.536 212.91 382.856ZM210.382 388.68H213.006V405H210.382V388.68ZM217.625 392.456C218.265 391.208 219.193 390.248 220.377 389.544C221.529 388.84 222.873 388.488 224.409 388.488C225.881 388.488 227.225 388.808 228.377 389.416C229.529 390.056 230.425 390.952 231.097 392.104C231.737 393.288 232.089 394.664 232.153 396.232C232.153 396.488 232.121 396.84 232.089 397.352H219.417V397.576C219.449 399.176 219.929 400.456 220.889 401.416C221.817 402.376 223.033 402.856 224.569 402.856C225.721 402.856 226.713 402.568 227.545 401.992C228.377 401.416 228.921 400.584 229.209 399.528H231.865C231.545 401.192 230.745 402.568 229.465 403.624C228.185 404.68 226.617 405.192 224.761 405.192C223.129 405.192 221.721 404.872 220.505 404.168C219.289 403.464 218.329 402.504 217.657 401.224C216.985 399.944 216.665 398.504 216.665 396.84C216.665 395.176 216.985 393.736 217.625 392.456ZM229.433 395.176C229.305 393.8 228.761 392.712 227.865 391.944C226.969 391.176 225.817 390.792 224.441 390.792C223.193 390.792 222.105 391.208 221.177 392.008C220.217 392.84 219.705 393.896 219.577 395.176H229.433ZM237.773 399.624C237.805 400.616 238.221 401.416 239.053 402.024C239.885 402.664 240.941 402.952 242.253 402.952C243.405 402.952 244.333 402.728 245.037 402.28C245.741 401.832 246.125 401.224 246.125 400.456C246.125 399.816 245.933 399.336 245.613 398.984C245.261 398.664 244.813 398.408 244.269 398.28C243.725 398.152 242.957 398.024 241.965 397.896C240.557 397.736 239.405 397.512 238.509 397.224C237.613 396.968 236.877 396.52 236.333 395.912C235.757 395.304 235.501 394.472 235.501 393.384C235.501 392.424 235.757 391.592 236.301 390.824C236.845 390.088 237.581 389.512 238.541 389.096C239.469 388.68 240.525 388.456 241.709 388.456C243.629 388.456 245.165 388.904 246.381 389.8C247.597 390.696 248.269 391.976 248.397 393.64H245.773C245.645 392.808 245.229 392.104 244.525 391.528C243.789 390.984 242.893 390.696 241.805 390.696C240.685 390.696 239.789 390.952 239.117 391.4C238.413 391.848 238.093 392.456 238.093 393.192C238.093 393.768 238.253 394.184 238.573 394.472C238.893 394.792 239.277 394.984 239.789 395.08C240.301 395.208 241.069 395.304 242.093 395.432C243.501 395.624 244.685 395.848 245.613 396.136C246.541 396.456 247.277 396.936 247.853 397.576C248.429 398.248 248.717 399.144 248.717 400.264C248.717 401.256 248.429 402.12 247.853 402.856C247.277 403.624 246.477 404.2 245.517 404.584C244.525 405 243.437 405.192 242.253 405.192C240.109 405.192 238.381 404.712 237.101 403.72C235.821 402.76 235.149 401.384 235.149 399.624H237.773ZM263.876 382.856C264.196 383.176 264.356 383.592 264.356 384.072C264.356 384.584 264.196 384.968 263.876 385.288C263.556 385.608 263.14 385.768 262.66 385.768C262.148 385.768 261.764 385.608 261.444 385.288C261.124 384.968 260.964 384.584 260.964 384.072C260.964 383.592 261.124 383.176 261.444 382.856C261.764 382.536 262.148 382.376 262.66 382.376C263.14 382.376 263.556 382.536 263.876 382.856ZM261.348 388.68H263.972V405H261.348V388.68ZM280.975 390.28C282.191 391.496 282.799 393.352 282.799 395.912V405H280.175V396.072C280.175 394.408 279.791 393.128 279.023 392.232C278.255 391.336 277.167 390.888 275.759 390.888C274.223 390.888 273.007 391.432 272.143 392.488C271.247 393.576 270.831 395.016 270.831 396.84V405H268.207V388.68H270.479L270.831 390.888C272.047 389.288 273.839 388.488 276.207 388.488C278.191 388.488 279.759 389.096 280.975 390.28ZM298.944 403.656C297.664 404.68 296.064 405.192 294.144 405.192C292.544 405.192 291.168 404.84 289.984 404.136C288.768 403.432 287.84 402.472 287.2 401.192C286.528 399.912 286.208 398.472 286.208 396.808C286.208 395.176 286.528 393.736 287.2 392.456C287.872 391.208 288.832 390.248 290.048 389.544C291.264 388.84 292.64 388.488 294.24 388.488C296.16 388.488 297.728 389 298.976 390.024C300.224 391.048 301.024 392.456 301.344 394.248H298.688C298.432 393.224 297.888 392.392 297.088 391.752C296.256 391.144 295.296 390.824 294.144 390.824C292.576 390.824 291.296 391.4 290.336 392.488C289.376 393.608 288.896 395.048 288.896 396.808C288.896 398.6 289.376 400.072 290.336 401.192C291.296 402.312 292.576 402.856 294.144 402.856C295.328 402.856 296.32 402.568 297.152 401.928C297.952 401.32 298.464 400.456 298.72 399.368H301.344C300.992 401.192 300.192 402.632 298.944 403.656ZM305.018 382.6H307.642V405H305.018V382.6ZM325.925 388.68V405H323.653L323.301 402.824C322.053 404.424 320.325 405.192 318.085 405.192C316.133 405.192 314.565 404.616 313.413 403.4C312.229 402.216 311.653 400.328 311.653 397.768V388.68H314.277V397.608C314.277 399.304 314.629 400.584 315.365 401.48C316.101 402.376 317.157 402.792 318.533 402.792C320.005 402.792 321.189 402.28 322.021 401.192C322.853 400.136 323.301 398.696 323.301 396.84V388.68H325.925ZM345.63 382.6V405H343.358L343.006 402.376C341.63 404.264 339.774 405.192 337.406 405.192C335.87 405.192 334.526 404.872 333.342 404.2C332.158 403.56 331.23 402.6 330.558 401.32C329.886 400.072 329.566 398.568 329.566 396.84C329.566 395.208 329.886 393.768 330.558 392.488C331.23 391.24 332.158 390.248 333.374 389.544C334.558 388.84 335.902 388.488 337.406 388.488C338.718 388.488 339.838 388.744 340.798 389.224C341.726 389.704 342.462 390.344 343.006 391.176V382.6H345.63ZM340.446 402.12C341.278 401.608 341.918 400.904 342.366 400.008C342.814 399.112 343.038 398.056 343.038 396.904C343.038 395.752 342.814 394.696 342.366 393.768C341.918 392.84 341.278 392.104 340.446 391.592C339.614 391.08 338.686 390.824 337.662 390.824C336.03 390.824 334.718 391.4 333.726 392.52C332.734 393.64 332.254 395.08 332.254 396.84C332.254 398.632 332.734 400.072 333.726 401.192C334.718 402.312 336.03 402.856 337.662 402.856C338.686 402.856 339.614 402.632 340.446 402.12ZM350.229 392.456C350.869 391.208 351.797 390.248 352.981 389.544C354.133 388.84 355.477 388.488 357.013 388.488C358.485 388.488 359.829 388.808 360.981 389.416C362.133 390.056 363.029 390.952 363.701 392.104C364.341 393.288 364.693 394.664 364.757 396.232C364.757 396.488 364.725 396.84 364.693 397.352H352.021V397.576C352.053 399.176 352.533 400.456 353.493 401.416C354.421 402.376 355.637 402.856 357.173 402.856C358.325 402.856 359.317 402.568 360.149 401.992C360.981 401.416 361.525 400.584 361.813 399.528H364.469C364.149 401.192 363.349 402.568 362.069 403.624C360.789 404.68 359.221 405.192 357.365 405.192C355.733 405.192 354.325 404.872 353.109 404.168C351.893 403.464 350.933 402.504 350.261 401.224C349.589 399.944 349.269 398.504 349.269 396.84C349.269 395.176 349.589 393.736 350.229 392.456ZM362.037 395.176C361.909 393.8 361.365 392.712 360.469 391.944C359.573 391.176 358.421 390.792 357.045 390.792C355.797 390.792 354.709 391.208 353.781 392.008C352.821 392.84 352.309 393.896 352.181 395.176H362.037ZM383.879 382.6V405H381.607L381.255 402.376C379.879 404.264 378.023 405.192 375.655 405.192C374.119 405.192 372.775 404.872 371.591 404.2C370.407 403.56 369.479 402.6 368.807 401.32C368.135 400.072 367.815 398.568 367.815 396.84C367.815 395.208 368.135 393.768 368.807 392.488C369.479 391.24 370.407 390.248 371.623 389.544C372.807 388.84 374.151 388.488 375.655 388.488C376.967 388.488 378.087 388.744 379.047 389.224C379.975 389.704 380.711 390.344 381.255 391.176V382.6H383.879ZM378.695 402.12C379.527 401.608 380.167 400.904 380.615 400.008C381.063 399.112 381.287 398.056 381.287 396.904C381.287 395.752 381.063 394.696 380.615 393.768C380.167 392.84 379.527 392.104 378.695 391.592C377.863 391.08 376.935 390.824 375.911 390.824C374.279 390.824 372.967 391.4 371.975 392.52C370.983 393.64 370.503 395.08 370.503 396.84C370.503 398.632 370.983 400.072 371.975 401.192C372.967 402.312 374.279 402.856 375.911 402.856C376.935 402.856 377.863 402.632 378.695 402.12ZM396.212 382.6H399.124L404.372 401.416L409.876 382.6H412.692L418.004 401.416L423.284 382.6H426.164L419.604 405H416.276L411.156 387.24L406.068 405H402.74L396.212 382.6ZM428.445 392.456C429.085 391.208 430.013 390.248 431.197 389.544C432.349 388.84 433.693 388.488 435.229 388.488C436.701 388.488 438.045 388.808 439.197 389.416C440.349 390.056 441.245 390.952 441.917 392.104C442.557 393.288 442.909 394.664 442.973 396.232C442.973 396.488 442.941 396.84 442.909 397.352H430.237V397.576C430.269 399.176 430.749 400.456 431.709 401.416C432.637 402.376 433.853 402.856 435.389 402.856C436.541 402.856 437.533 402.568 438.365 401.992C439.197 401.416 439.741 400.584 440.029 399.528H442.685C442.365 401.192 441.565 402.568 440.285 403.624C439.005 404.68 437.437 405.192 435.581 405.192C433.949 405.192 432.541 404.872 431.325 404.168C430.109 403.464 429.149 402.504 428.477 401.224C427.805 399.944 427.485 398.504 427.485 396.84C427.485 395.176 427.805 393.736 428.445 392.456ZM440.253 395.176C440.125 393.8 439.581 392.712 438.685 391.944C437.789 391.176 436.637 390.792 435.261 390.792C434.013 390.792 432.925 391.208 431.997 392.008C431.037 392.84 430.525 393.896 430.397 395.176H440.253ZM458.863 389.48C460.047 390.152 460.975 391.112 461.647 392.36C462.319 393.64 462.671 395.112 462.671 396.84C462.671 398.504 462.319 399.944 461.647 401.192C460.975 402.472 460.047 403.432 458.863 404.136C457.647 404.84 456.303 405.192 454.831 405.192C453.487 405.192 452.367 404.968 451.439 404.488C450.479 404.008 449.743 403.336 449.231 402.504L448.879 405H446.607V382.6H449.231V391.304C450.575 389.448 452.463 388.488 454.831 388.488C456.335 388.488 457.679 388.84 458.863 389.48ZM458.479 401.192C459.471 400.072 459.983 398.632 459.983 396.84C459.983 395.08 459.471 393.64 458.479 392.52C457.487 391.4 456.175 390.824 454.575 390.824C453.519 390.824 452.591 391.08 451.759 391.592C450.927 392.104 450.319 392.808 449.871 393.704C449.423 394.6 449.199 395.624 449.199 396.776C449.199 397.96 449.423 399.016 449.871 399.944C450.319 400.872 450.927 401.576 451.759 402.088C452.591 402.6 453.519 402.856 454.575 402.856C456.175 402.856 457.487 402.312 458.479 401.192ZM475.269 382.6C476.741 382.6 478.021 382.888 479.173 383.464C480.293 384.04 481.157 384.84 481.797 385.864C482.405 386.888 482.725 388.104 482.725 389.48C482.725 391.048 482.277 392.392 481.413 393.544C480.549 394.696 479.397 395.464 477.957 395.848L482.981 405H479.845L475.205 396.392H469.477V405H466.693V382.6H475.269ZM469.477 393.832H475.045C476.517 393.832 477.669 393.448 478.565 392.648C479.429 391.88 479.877 390.824 479.877 389.48C479.877 388.2 479.429 387.144 478.565 386.344C477.669 385.576 476.517 385.16 475.077 385.16H469.477V393.832ZM484.301 382.6H501.613V385.16H494.349V405H491.565V385.16H484.301V382.6ZM504.016 387.848C504.88 386.12 506.128 384.808 507.76 383.848C509.36 382.888 511.248 382.408 513.392 382.408C515.856 382.408 517.936 383.08 519.6 384.424C521.264 385.768 522.32 387.624 522.768 389.928H519.984C519.568 388.392 518.768 387.176 517.584 386.28C516.4 385.416 514.96 384.968 513.264 384.968C511.728 384.968 510.352 385.352 509.2 386.088C508.016 386.856 507.12 387.88 506.48 389.224C505.84 390.568 505.552 392.072 505.552 393.8C505.552 395.528 505.84 397.032 506.48 398.376C507.12 399.72 508.016 400.776 509.2 401.512C510.352 402.28 511.728 402.632 513.264 402.632C514.992 402.632 516.432 402.216 517.584 401.352C518.736 400.488 519.504 399.272 519.952 397.672H522.736C522.288 400.008 521.264 401.832 519.6 403.176C517.936 404.52 515.888 405.192 513.392 405.192C511.248 405.192 509.36 404.744 507.76 403.784C506.128 402.824 504.88 401.512 504.016 399.784C503.12 398.056 502.704 396.072 502.704 393.8C502.704 391.56 503.12 389.576 504.016 387.848ZM124.32 419.856C124.64 420.176 124.8 420.592 124.8 421.072C124.8 421.584 124.64 421.968 124.32 422.288C124 422.608 123.584 422.768 123.104 422.768C122.592 422.768 122.208 422.608 121.888 422.288C121.568 421.968 121.408 421.584 121.408 421.072C121.408 420.592 121.568 420.176 121.888 419.856C122.208 419.536 122.592 419.376 123.104 419.376C123.584 419.376 124 419.536 124.32 419.856ZM121.792 425.68H124.416V442H121.792V425.68ZM151.307 427.216C152.459 428.368 153.035 430.16 153.035 432.592V442H150.411V432.752C150.411 431.184 150.059 429.968 149.387 429.136C148.715 428.304 147.755 427.888 146.539 427.888C145.163 427.888 144.075 428.368 143.307 429.328C142.539 430.288 142.155 431.6 142.155 433.264V442H139.531V432.752C139.531 431.184 139.179 429.968 138.507 429.136C137.803 428.304 136.843 427.888 135.595 427.888C134.251 427.888 133.195 428.4 132.427 429.424C131.659 430.448 131.275 431.76 131.275 433.392V442H128.651V425.68H130.923L131.275 427.92C132.427 426.32 134.027 425.488 136.043 425.488C137.195 425.488 138.251 425.776 139.147 426.288C140.043 426.8 140.747 427.568 141.195 428.592C142.347 426.544 144.235 425.488 146.859 425.488C148.683 425.488 150.155 426.064 151.307 427.216ZM169.297 426.48C170.481 427.152 171.409 428.112 172.081 429.36C172.753 430.64 173.105 432.112 173.105 433.84C173.105 435.504 172.753 436.944 172.081 438.192C171.409 439.472 170.481 440.432 169.297 441.136C168.081 441.84 166.737 442.192 165.265 442.192C163.921 442.192 162.801 441.968 161.873 441.488C160.913 441.008 160.177 440.336 159.665 439.504V448.4H157.041V425.68H159.313L159.665 428.304C161.009 426.448 162.897 425.488 165.265 425.488C166.769 425.488 168.113 425.84 169.297 426.48ZM168.913 438.192C169.905 437.072 170.417 435.632 170.417 433.84C170.417 432.08 169.905 430.64 168.913 429.52C167.921 428.4 166.609 427.824 165.009 427.824C163.953 427.824 163.025 428.08 162.193 428.592C161.361 429.104 160.753 429.808 160.305 430.704C159.857 431.6 159.633 432.624 159.633 433.776C159.633 434.96 159.857 436.016 160.305 436.944C160.753 437.872 161.361 438.576 162.193 439.088C163.025 439.6 163.953 439.856 165.009 439.856C166.609 439.856 167.921 439.312 168.913 438.192ZM176.743 419.6H179.367V442H176.743V419.6ZM183.986 429.456C184.626 428.208 185.554 427.248 186.738 426.544C187.89 425.84 189.234 425.488 190.77 425.488C192.242 425.488 193.586 425.808 194.738 426.416C195.89 427.056 196.786 427.952 197.458 429.104C198.098 430.288 198.45 431.664 198.514 433.232C198.514 433.488 198.482 433.84 198.45 434.352H185.778V434.576C185.81 436.176 186.29 437.456 187.25 438.416C188.178 439.376 189.394 439.856 190.93 439.856C192.082 439.856 193.074 439.568 193.906 438.992C194.738 438.416 195.282 437.584 195.57 436.528H198.226C197.906 438.192 197.106 439.568 195.826 440.624C194.546 441.68 192.978 442.192 191.122 442.192C189.49 442.192 188.082 441.872 186.866 441.168C185.65 440.464 184.69 439.504 184.018 438.224C183.346 436.944 183.026 435.504 183.026 433.84C183.026 432.176 183.346 430.736 183.986 429.456ZM195.794 432.176C195.666 430.8 195.122 429.712 194.226 428.944C193.33 428.176 192.178 427.792 190.802 427.792C189.554 427.792 188.466 428.208 187.538 429.008C186.578 429.84 186.066 430.896 185.938 432.176H195.794ZM224.804 427.216C225.956 428.368 226.532 430.16 226.532 432.592V442H223.908V432.752C223.908 431.184 223.556 429.968 222.884 429.136C222.212 428.304 221.252 427.888 220.036 427.888C218.66 427.888 217.572 428.368 216.804 429.328C216.036 430.288 215.652 431.6 215.652 433.264V442H213.028V432.752C213.028 431.184 212.676 429.968 212.004 429.136C211.3 428.304 210.34 427.888 209.092 427.888C207.748 427.888 206.692 428.4 205.924 429.424C205.156 430.448 204.772 431.76 204.772 433.392V442H202.148V425.68H204.42L204.772 427.92C205.924 426.32 207.524 425.488 209.54 425.488C210.692 425.488 211.748 425.776 212.644 426.288C213.54 426.8 214.244 427.568 214.692 428.592C215.844 426.544 217.732 425.488 220.356 425.488C222.18 425.488 223.652 426.064 224.804 427.216ZM230.922 429.456C231.562 428.208 232.49 427.248 233.674 426.544C234.826 425.84 236.17 425.488 237.706 425.488C239.178 425.488 240.522 425.808 241.674 426.416C242.826 427.056 243.722 427.952 244.394 429.104C245.034 430.288 245.386 431.664 245.45 433.232C245.45 433.488 245.418 433.84 245.386 434.352H232.714V434.576C232.746 436.176 233.226 437.456 234.186 438.416C235.114 439.376 236.33 439.856 237.866 439.856C239.018 439.856 240.01 439.568 240.842 438.992C241.674 438.416 242.218 437.584 242.506 436.528H245.162C244.842 438.192 244.042 439.568 242.762 440.624C241.482 441.68 239.914 442.192 238.058 442.192C236.426 442.192 235.018 441.872 233.802 441.168C232.586 440.464 231.626 439.504 230.954 438.224C230.282 436.944 229.962 435.504 229.962 433.84C229.962 432.176 230.282 430.736 230.922 429.456ZM242.73 432.176C242.602 430.8 242.058 429.712 241.162 428.944C240.266 428.176 239.114 427.792 237.738 427.792C236.49 427.792 235.402 428.208 234.474 429.008C233.514 429.84 233.002 430.896 232.874 432.176H242.73ZM261.853 427.28C263.069 428.496 263.677 430.352 263.677 432.912V442H261.053V433.072C261.053 431.408 260.669 430.128 259.901 429.232C259.133 428.336 258.045 427.888 256.637 427.888C255.101 427.888 253.885 428.432 253.021 429.488C252.125 430.576 251.709 432.016 251.709 433.84V442H249.085V425.68H251.357L251.709 427.888C252.925 426.288 254.717 425.488 257.085 425.488C259.069 425.488 260.637 426.096 261.853 427.28ZM268.75 428.08H265.806V425.68H268.75V421.104H271.374V425.68H275.502V428.08H271.374V437.712C271.374 438.416 271.502 438.896 271.758 439.184C272.014 439.472 272.494 439.6 273.166 439.6H276.014V442H273.006C271.47 442 270.35 441.68 269.71 440.976C269.07 440.304 268.75 439.216 268.75 437.744V428.08ZM293.535 439.6V442H292.095C291.039 442 290.303 441.808 289.855 441.36C289.407 440.944 289.151 440.304 289.151 439.472C287.871 441.296 286.047 442.192 283.679 442.192C281.855 442.192 280.383 441.776 279.295 440.912C278.207 440.08 277.663 438.896 277.663 437.424C277.663 435.792 278.207 434.544 279.327 433.648C280.447 432.784 282.079 432.336 284.223 432.336H289.023V431.216C289.023 430.16 288.639 429.328 287.935 428.72C287.231 428.144 286.239 427.824 284.959 427.824C283.807 427.824 282.879 428.08 282.143 428.592C281.407 429.104 280.959 429.744 280.799 430.576H278.175C278.367 428.976 279.071 427.728 280.287 426.832C281.503 425.936 283.103 425.488 285.087 425.488C287.167 425.488 288.767 426 289.919 427.024C291.071 428.048 291.647 429.488 291.647 431.376V438.416C291.647 439.216 291.999 439.6 292.735 439.6H293.535ZM289.023 434.544H283.967C281.535 434.544 280.319 435.472 280.319 437.264C280.319 438.096 280.639 438.736 281.279 439.216C281.919 439.728 282.783 439.952 283.871 439.952C285.471 439.952 286.719 439.536 287.647 438.704C288.543 437.872 289.023 436.752 289.023 435.344V434.544ZM297.28 428.08H294.336V425.68H297.28V421.104H299.904V425.68H304.032V428.08H299.904V437.712C299.904 438.416 300.032 438.896 300.288 439.184C300.544 439.472 301.024 439.6 301.696 439.6H304.544V442H301.536C300 442 298.88 441.68 298.24 440.976C297.6 440.304 297.28 439.216 297.28 437.744V428.08ZM309.579 419.856C309.899 420.176 310.059 420.592 310.059 421.072C310.059 421.584 309.899 421.968 309.579 422.288C309.259 422.608 308.843 422.768 308.363 422.768C307.851 422.768 307.467 422.608 307.147 422.288C306.827 421.968 306.667 421.584 306.667 421.072C306.667 420.592 306.827 420.176 307.147 419.856C307.467 419.536 307.851 419.376 308.363 419.376C308.843 419.376 309.259 419.536 309.579 419.856ZM307.051 425.68H309.675V442H307.051V425.68ZM317.205 441.136C315.989 440.432 315.029 439.472 314.357 438.192C313.653 436.944 313.333 435.504 313.333 433.84C313.333 432.208 313.653 430.768 314.357 429.488C315.029 428.24 315.989 427.248 317.205 426.544C318.421 425.84 319.829 425.488 321.429 425.488C322.997 425.488 324.405 425.84 325.621 426.544C326.837 427.248 327.797 428.24 328.501 429.488C329.173 430.768 329.525 432.208 329.525 433.84C329.525 435.504 329.173 436.944 328.501 438.192C327.797 439.472 326.837 440.432 325.621 441.136C324.405 441.84 322.997 442.192 321.429 442.192C319.829 442.192 318.421 441.84 317.205 441.136ZM324.245 439.088C325.077 438.576 325.717 437.872 326.165 436.944C326.613 436.048 326.837 434.992 326.837 433.84C326.837 432.688 326.613 431.664 326.165 430.736C325.717 429.84 325.077 429.104 324.245 428.592C323.413 428.08 322.485 427.824 321.429 427.824C320.341 427.824 319.413 428.08 318.581 428.592C317.749 429.104 317.141 429.84 316.693 430.736C316.245 431.664 316.021 432.688 316.021 433.84C316.021 434.992 316.245 436.048 316.693 436.944C317.141 437.872 317.749 438.576 318.581 439.088C319.413 439.6 320.341 439.856 321.429 439.856C322.485 439.856 323.413 439.6 324.245 439.088ZM345.943 427.28C347.159 428.496 347.767 430.352 347.767 432.912V442H345.143V433.072C345.143 431.408 344.759 430.128 343.991 429.232C343.223 428.336 342.135 427.888 340.727 427.888C339.191 427.888 337.975 428.432 337.111 429.488C336.215 430.576 335.799 432.016 335.799 433.84V442H333.175V425.68H335.447L335.799 427.888C337.015 426.288 338.807 425.488 341.175 425.488C343.159 425.488 344.727 426.096 345.943 427.28ZM361.855 425.68V423.856C361.855 422.416 362.175 421.36 362.847 420.656C363.519 419.952 364.607 419.6 366.111 419.6H369.119V422H366.271C365.631 422 365.151 422.16 364.895 422.416C364.607 422.704 364.479 423.152 364.479 423.792V425.68H369.087V428.08H364.479V442H361.855V428.08H358.911V425.68H361.855ZM374.047 441.136C372.831 440.432 371.871 439.472 371.199 438.192C370.495 436.944 370.175 435.504 370.175 433.84C370.175 432.208 370.495 430.768 371.199 429.488C371.871 428.24 372.831 427.248 374.047 426.544C375.263 425.84 376.671 425.488 378.271 425.488C379.839 425.488 381.247 425.84 382.463 426.544C383.679 427.248 384.639 428.24 385.343 429.488C386.015 430.768 386.367 432.208 386.367 433.84C386.367 435.504 386.015 436.944 385.343 438.192C384.639 439.472 383.679 440.432 382.463 441.136C381.247 441.84 379.839 442.192 378.271 442.192C376.671 442.192 375.263 441.84 374.047 441.136ZM381.087 439.088C381.919 438.576 382.559 437.872 383.007 436.944C383.455 436.048 383.679 434.992 383.679 433.84C383.679 432.688 383.455 431.664 383.007 430.736C382.559 429.84 381.919 429.104 381.087 428.592C380.255 428.08 379.327 427.824 378.271 427.824C377.183 427.824 376.255 428.08 375.423 428.592C374.591 429.104 373.983 429.84 373.535 430.736C373.087 431.664 372.863 432.688 372.863 433.84C372.863 434.992 373.087 436.048 373.535 436.944C373.983 437.872 374.591 438.576 375.423 439.088C376.255 439.6 377.183 439.856 378.271 439.856C379.327 439.856 380.255 439.6 381.087 439.088ZM398.304 425.68V428.24H396.992C395.424 428.24 394.304 428.784 393.632 429.808C392.96 430.864 392.64 432.144 392.64 433.68V442H390.016V425.68H392.288L392.64 428.144C393.088 427.408 393.696 426.8 394.464 426.352C395.2 425.904 396.224 425.68 397.568 425.68H398.304ZM410.742 419.6H425.014V422.16H413.526V429.328H423.094V431.888H413.526V439.44H425.43V442H410.742V419.6ZM428.811 419.6H431.435V442H428.811V419.6ZM438.198 419.856C438.518 420.176 438.678 420.592 438.678 421.072C438.678 421.584 438.518 421.968 438.198 422.288C437.878 422.608 437.462 422.768 436.982 422.768C436.47 422.768 436.086 422.608 435.766 422.288C435.446 421.968 435.286 421.584 435.286 421.072C435.286 420.592 435.446 420.176 435.766 419.856C436.086 419.536 436.47 419.376 436.982 419.376C437.462 419.376 437.878 419.536 438.198 419.856ZM435.67 425.68H438.294V442H435.67V425.68ZM447.2 433.616L441.408 425.68H444.544L448.896 431.728L453.312 425.68H456.224L450.4 433.616L456.64 442H453.504L448.704 435.44L443.904 442H440.992L447.2 433.616ZM461.853 419.856C462.173 420.176 462.333 420.592 462.333 421.072C462.333 421.584 462.173 421.968 461.853 422.288C461.533 422.608 461.117 422.768 460.637 422.768C460.125 422.768 459.741 422.608 459.421 422.288C459.101 421.968 458.941 421.584 458.941 421.072C458.941 420.592 459.101 420.176 459.421 419.856C459.741 419.536 460.125 419.376 460.637 419.376C461.117 419.376 461.533 419.536 461.853 419.856ZM459.325 425.68H461.949V442H459.325V425.68ZM474.471 425.68V428.24H473.159C471.591 428.24 470.471 428.784 469.799 429.808C469.127 430.864 468.807 432.144 468.807 433.68V442H466.183V425.68H468.455L468.807 428.144C469.255 427.408 469.863 426.8 470.631 426.352C471.367 425.904 472.391 425.68 473.735 425.68H474.471ZM486.91 429.456C487.55 428.208 488.478 427.248 489.662 426.544C490.814 425.84 492.158 425.488 493.694 425.488C495.166 425.488 496.51 425.808 497.662 426.416C498.814 427.056 499.71 427.952 500.382 429.104C501.022 430.288 501.374 431.664 501.438 433.232C501.438 433.488 501.406 433.84 501.374 434.352H488.702V434.576C488.734 436.176 489.214 437.456 490.174 438.416C491.102 439.376 492.318 439.856 493.854 439.856C495.006 439.856 495.998 439.568 496.83 438.992C497.662 438.416 498.206 437.584 498.494 436.528H501.15C500.83 438.192 500.03 439.568 498.75 440.624C497.47 441.68 495.902 442.192 494.046 442.192C492.414 442.192 491.006 441.872 489.79 441.168C488.574 440.464 487.614 439.504 486.942 438.224C486.27 436.944 485.95 435.504 485.95 433.84C485.95 432.176 486.27 430.736 486.91 429.456ZM498.718 432.176C498.59 430.8 498.046 429.712 497.15 428.944C496.254 428.176 495.102 427.792 493.726 427.792C492.478 427.792 491.39 428.208 490.462 429.008C489.502 429.84 488.99 430.896 488.862 432.176H498.718ZM517.232 440.656C515.952 441.68 514.352 442.192 512.432 442.192C510.832 442.192 509.456 441.84 508.272 441.136C507.056 440.432 506.128 439.472 505.488 438.192C504.816 436.912 504.496 435.472 504.496 433.808C504.496 432.176 504.816 430.736 505.488 429.456C506.16 428.208 507.12 427.248 508.336 426.544C509.552 425.84 510.928 425.488 512.528 425.488C514.448 425.488 516.016 426 517.264 427.024C518.512 428.048 519.312 429.456 519.632 431.248H516.976C516.72 430.224 516.176 429.392 515.376 428.752C514.544 428.144 513.584 427.824 512.432 427.824C510.864 427.824 509.584 428.4 508.624 429.488C507.664 430.608 507.184 432.048 507.184 433.808C507.184 435.6 507.664 437.072 508.624 438.192C509.584 439.312 510.864 439.856 512.432 439.856C513.616 439.856 514.608 439.568 515.44 438.928C516.24 438.32 516.752 437.456 517.008 436.368H519.632C519.28 438.192 518.48 439.632 517.232 440.656ZM526.258 441.136C525.042 440.432 524.082 439.472 523.41 438.192C522.706 436.944 522.386 435.504 522.386 433.84C522.386 432.208 522.706 430.768 523.41 429.488C524.082 428.24 525.042 427.248 526.258 426.544C527.474 425.84 528.882 425.488 530.482 425.488C532.05 425.488 533.458 425.84 534.674 426.544C535.89 427.248 536.85 428.24 537.554 429.488C538.226 430.768 538.578 432.208 538.578 433.84C538.578 435.504 538.226 436.944 537.554 438.192C536.85 439.472 535.89 440.432 534.674 441.136C533.458 441.84 532.05 442.192 530.482 442.192C528.882 442.192 527.474 441.84 526.258 441.136ZM533.298 439.088C534.13 438.576 534.77 437.872 535.218 436.944C535.666 436.048 535.89 434.992 535.89 433.84C535.89 432.688 535.666 431.664 535.218 430.736C534.77 429.84 534.13 429.104 533.298 428.592C532.466 428.08 531.538 427.824 530.482 427.824C529.394 427.824 528.466 428.08 527.634 428.592C526.802 429.104 526.194 429.84 525.746 430.736C525.298 431.664 525.074 432.688 525.074 433.84C525.074 434.992 525.298 436.048 525.746 436.944C526.194 437.872 526.802 438.576 527.634 439.088C528.466 439.6 529.394 439.856 530.482 439.856C531.538 439.856 532.466 439.6 533.298 439.088ZM544.212 436.624C544.244 437.616 544.66 438.416 545.492 439.024C546.324 439.664 547.38 439.952 548.692 439.952C549.844 439.952 550.772 439.728 551.476 439.28C552.18 438.832 552.564 438.224 552.564 437.456C552.564 436.816 552.372 436.336 552.052 435.984C551.7 435.664 551.252 435.408 550.708 435.28C550.164 435.152 549.396 435.024 548.404 434.896C546.996 434.736 545.844 434.512 544.948 434.224C544.052 433.968 543.316 433.52 542.772 432.912C542.196 432.304 541.94 431.472 541.94 430.384C541.94 429.424 542.196 428.592 542.74 427.824C543.284 427.088 544.02 426.512 544.98 426.096C545.908 425.68 546.964 425.456 548.148 425.456C550.068 425.456 551.604 425.904 552.82 426.8C554.036 427.696 554.708 428.976 554.836 430.64H552.212C552.084 429.808 551.668 429.104 550.964 428.528C550.228 427.984 549.332 427.696 548.244 427.696C547.124 427.696 546.228 427.952 545.556 428.4C544.852 428.848 544.532 429.456 544.532 430.192C544.532 430.768 544.692 431.184 545.012 431.472C545.332 431.792 545.716 431.984 546.228 432.08C546.74 432.208 547.508 432.304 548.532 432.432C549.94 432.624 551.124 432.848 552.052 433.136C552.98 433.456 553.716 433.936 554.292 434.576C554.868 435.248 555.156 436.144 555.156 437.264C555.156 438.256 554.868 439.12 554.292 439.856C553.716 440.624 552.916 441.2 551.956 441.584C550.964 442 549.876 442.192 548.692 442.192C546.548 442.192 544.82 441.712 543.54 440.72C542.26 439.76 541.588 438.384 541.588 436.624H544.212ZM559.55 425.68L564.574 438.992L569.438 425.68H572.222L564.702 444.752C564.318 445.744 563.966 446.48 563.678 446.96C563.358 447.472 563.006 447.824 562.558 448.048C562.11 448.304 561.502 448.4 560.766 448.4H557.63V446H559.966C560.478 446 560.862 445.968 561.118 445.84C561.374 445.744 561.566 445.584 561.726 445.328C561.886 445.072 562.078 444.656 562.334 444.08L563.166 442.128L556.766 425.68H559.55ZM576.555 436.624C576.587 437.616 577.003 438.416 577.835 439.024C578.667 439.664 579.723 439.952 581.035 439.952C582.187 439.952 583.115 439.728 583.819 439.28C584.523 438.832 584.907 438.224 584.907 437.456C584.907 436.816 584.715 436.336 584.395 435.984C584.043 435.664 583.595 435.408 583.051 435.28C582.507 435.152 581.739 435.024 580.747 434.896C579.339 434.736 578.187 434.512 577.291 434.224C576.395 433.968 575.659 433.52 575.115 432.912C574.539 432.304 574.283 431.472 574.283 430.384C574.283 429.424 574.539 428.592 575.083 427.824C575.627 427.088 576.363 426.512 577.323 426.096C578.251 425.68 579.307 425.456 580.491 425.456C582.411 425.456 583.947 425.904 585.163 426.8C586.379 427.696 587.051 428.976 587.179 430.64H584.555C584.427 429.808 584.011 429.104 583.307 428.528C582.571 427.984 581.675 427.696 580.587 427.696C579.467 427.696 578.571 427.952 577.899 428.4C577.195 428.848 576.875 429.456 576.875 430.192C576.875 430.768 577.035 431.184 577.355 431.472C577.675 431.792 578.059 431.984 578.571 432.08C579.083 432.208 579.851 432.304 580.875 432.432C582.283 432.624 583.467 432.848 584.395 433.136C585.323 433.456 586.059 433.936 586.635 434.576C587.211 435.248 587.499 436.144 587.499 437.264C587.499 438.256 587.211 439.12 586.635 439.856C586.059 440.624 585.259 441.2 584.299 441.584C583.307 442 582.219 442.192 581.035 442.192C578.891 442.192 577.163 441.712 575.883 440.72C574.603 439.76 573.931 438.384 573.931 436.624H576.555ZM592.204 428.08H589.26V425.68H592.204V421.104H594.828V425.68H598.956V428.08H594.828V437.712C594.828 438.416 594.956 438.896 595.212 439.184C595.468 439.472 595.948 439.6 596.62 439.6H599.468V442H596.46C594.924 442 593.804 441.68 593.164 440.976C592.524 440.304 592.204 439.216 592.204 437.744V428.08ZM601.952 429.456C602.592 428.208 603.52 427.248 604.704 426.544C605.856 425.84 607.2 425.488 608.736 425.488C610.208 425.488 611.552 425.808 612.704 426.416C613.856 427.056 614.752 427.952 615.424 429.104C616.064 430.288 616.416 431.664 616.48 433.232C616.48 433.488 616.448 433.84 616.416 434.352H603.744V434.576C603.776 436.176 604.256 437.456 605.216 438.416C606.144 439.376 607.36 439.856 608.896 439.856C610.048 439.856 611.04 439.568 611.872 438.992C612.704 438.416 613.248 437.584 613.536 436.528H616.192C615.872 438.192 615.072 439.568 613.792 440.624C612.512 441.68 610.944 442.192 609.088 442.192C607.456 442.192 606.048 441.872 604.832 441.168C603.616 440.464 602.656 439.504 601.984 438.224C601.312 436.944 600.992 435.504 600.992 433.84C600.992 432.176 601.312 430.736 601.952 429.456ZM613.76 432.176C613.632 430.8 613.088 429.712 612.192 428.944C611.296 428.176 610.144 427.792 608.768 427.792C607.52 427.792 606.432 428.208 605.504 429.008C604.544 429.84 604.032 430.896 603.904 432.176H613.76ZM642.771 427.216C643.923 428.368 644.499 430.16 644.499 432.592V442H641.875V432.752C641.875 431.184 641.523 429.968 640.851 429.136C640.179 428.304 639.219 427.888 638.003 427.888C636.627 427.888 635.539 428.368 634.771 429.328C634.003 430.288 633.619 431.6 633.619 433.264V442H630.995V432.752C630.995 431.184 630.643 429.968 629.971 429.136C629.267 428.304 628.307 427.888 627.059 427.888C625.715 427.888 624.659 428.4 623.891 429.424C623.123 430.448 622.739 431.76 622.739 433.392V442H620.115V425.68H622.387L622.739 427.92C623.891 426.32 625.491 425.488 627.507 425.488C628.659 425.488 629.715 425.776 630.611 426.288C631.507 426.8 632.211 427.568 632.659 428.592C633.811 426.544 635.699 425.488 638.323 425.488C640.147 425.488 641.619 426.064 642.771 427.216ZM648.697 439.12C649.017 438.8 649.465 438.608 650.009 438.608C650.521 438.608 650.969 438.8 651.321 439.12C651.641 439.44 651.833 439.888 651.833 440.4C651.833 440.944 651.641 441.392 651.321 441.712C650.969 442.032 650.521 442.192 650.009 442.192C649.465 442.192 649.017 442.032 648.697 441.712C648.345 441.392 648.185 440.944 648.185 440.4C648.185 439.888 648.345 439.44 648.697 439.12Z" fill="#4339AC"/>
<path d="M1068.2 247.457L1044.76 232.845L1065.22 236.064C1051.32 186.744 1023.45 136.72 977.399 92.4673C976.176 92.8897 974.983 93.3055 973.796 93.7512C1069.88 257.294 1024.16 430.41 888.617 514.556C993.026 443.586 1035.97 319.865 1000.25 195.651C983.561 215.944 969.427 246.944 953.064 282.952L983.86 277.992L943.875 303.017C937.844 316.154 931.411 329.753 924.401 343.571C916.966 358.605 909.016 374.437 899.579 391.062L952.548 389.135L880.398 422.755C875.071 430.934 869.309 439.271 863.028 447.814C852.674 461.518 840.946 475.677 826.833 489.951L852.468 491.918L809.627 506.271C787.14 526.236 759.119 546.096 722.68 564.826C725.386 564.455 743.752 572.154 783.51 574.415C822.063 576.314 881.948 572.787 939.908 542.163C957.609 533.005 975.154 521.26 991.468 506.881L989.978 467.835L1003.22 495.867C1009.14 489.962 1014.84 483.665 1020.31 476.984L1011.65 458.654L1025.24 470.731C1046.05 443.488 1062.32 410.37 1070.46 371.41L1045.67 345.269L1073.1 357.203C1078.4 323.477 1077.47 285.839 1068.2 247.457Z" fill="url(#paint1_linear_506_306)"/>
<path d="M1068.2 247.457L1044.76 232.845L1065.22 236.064C1051.32 186.744 1023.45 136.72 977.399 92.4673C976.176 92.8897 974.983 93.3055 973.796 93.7512C1069.88 257.294 1024.16 430.41 888.617 514.556C993.026 443.586 1035.97 319.865 1000.25 195.651C983.561 215.944 969.427 246.944 953.064 282.952L983.86 277.992L943.875 303.017C937.844 316.154 931.411 329.753 924.401 343.571C916.966 358.605 909.016 374.437 899.579 391.062L952.548 389.135L880.398 422.755C875.071 430.934 869.309 439.271 863.028 447.814C852.674 461.518 840.946 475.677 826.833 489.951L852.468 491.918L809.627 506.271C787.14 526.236 759.119 546.096 722.68 564.826C725.386 564.455 743.752 572.154 783.51 574.415C822.063 576.314 881.948 572.787 939.908 542.163C957.609 533.005 975.154 521.26 991.468 506.881L989.978 467.835L1003.22 495.867C1009.14 489.962 1014.84 483.665 1020.31 476.984L1011.65 458.654L1025.24 470.731C1046.05 443.488 1062.32 410.37 1070.46 371.41L1045.67 345.269L1073.1 357.203C1078.4 323.477 1077.47 285.839 1068.2 247.457Z" fill="url(#paint2_linear_506_306)"/>
<path d="M877.492 64.9179L866.153 68.9408L872.801 62.843C852.223 54.1988 827.618 50.1212 800.045 53.8066C799.857 54.338 799.675 54.8574 799.504 55.3826C881.297 67.017 927.88 129.563 919.775 198.578C923.921 143.747 893.418 95.5466 841.402 74.0176C843.789 85.2087 850.516 98.4355 858.346 113.781L865.012 101.942L862.689 122.355C865.529 127.975 868.418 133.856 871.224 139.994C874.329 146.606 877.567 153.611 880.671 161.337L894.385 142.766L886.265 176.471C887.607 180.505 888.884 184.731 890.091 189.189C891.951 196.435 893.594 204.273 894.628 212.954L902.253 204.753L895.52 223.245C896.222 236.324 895.386 251.26 891.881 268.758C892.489 267.735 900.095 263.566 911.653 250.632C922.76 238.011 937.806 216.65 943.097 188.592C944.78 180.076 945.538 170.911 945.065 161.452L931.357 151.365L944.501 154.458C944.094 150.84 943.497 147.188 942.703 143.513L934.109 141.49L941.911 140.136C938.274 125.654 931.404 111.124 920.339 97.7795L904.705 99.1351L916.213 93.0266C906.162 82.0686 893.084 72.1741 877.492 64.9179Z" fill="url(#paint3_linear_506_306)"/>
<path d="M877.492 64.9179L866.153 68.9408L872.801 62.843C852.223 54.1988 827.618 50.1212 800.045 53.8066C799.857 54.338 799.675 54.8574 799.504 55.3826C881.297 67.017 927.88 129.563 919.775 198.578C923.921 143.747 893.418 95.5466 841.402 74.0176C843.789 85.2087 850.516 98.4355 858.346 113.781L865.012 101.942L862.689 122.355C865.529 127.975 868.418 133.856 871.224 139.994C874.329 146.606 877.567 153.611 880.671 161.337L894.385 142.766L886.265 176.471C887.607 180.505 888.884 184.731 890.091 189.189C891.951 196.435 893.594 204.273 894.628 212.954L902.253 204.753L895.52 223.245C896.222 236.324 895.386 251.26 891.881 268.758C892.489 267.735 900.095 263.566 911.653 250.632C922.76 238.011 937.806 216.65 943.097 188.592C944.78 180.076 945.538 170.911 945.065 161.452L931.357 151.365L944.501 154.458C944.094 150.84 943.497 147.188 942.703 143.513L934.109 141.49L941.911 140.136C938.274 125.654 931.404 111.124 920.339 97.7795L904.705 99.1351L916.213 93.0266C906.162 82.0686 893.084 72.1741 877.492 64.9179Z" fill="url(#paint4_linear_506_306)"/>
<defs>
<linearGradient id="paint0_linear_506_306" x1="455" y1="155" x2="354" y2="262" gradientUnits="userSpaceOnUse">
<stop stop-color="#46ADD8"/>
<stop offset="1" stop-color="#675AF1"/>
</linearGradient>
<linearGradient id="paint1_linear_506_306" x1="947.351" y1="139.973" x2="888.9" y2="525.703" gradientUnits="userSpaceOnUse">
<stop stop-color="#46ADD8"/>
<stop offset="1" stop-color="#675AF1"/>
</linearGradient>
<linearGradient id="paint2_linear_506_306" x1="947.351" y1="139.973" x2="888.9" y2="525.703" gradientUnits="userSpaceOnUse">
<stop stop-color="#46ADD8"/>
<stop offset="1" stop-color="#675AF1"/>
</linearGradient>
<linearGradient id="paint3_linear_506_306" x1="808.079" y1="76.9339" x2="923.65" y2="201.506" gradientUnits="userSpaceOnUse">
<stop stop-color="#46ADD8"/>
<stop offset="1" stop-color="#675AF1"/>
</linearGradient>
<linearGradient id="paint4_linear_506_306" x1="808.079" y1="76.9339" x2="923.65" y2="201.506" gradientUnits="userSpaceOnUse">
<stop stop-color="#46ADD8"/>
<stop offset="1" stop-color="#675AF1"/>
</linearGradient>
</defs>
</svg>
