<svg width="81" height="56" viewBox="0 0 81 56" fill="none" xmlns="http://www.w3.org/2000/svg">
<path d="M15.5287 0.500827C10.4068 0.53809 4.59927 2.01542 0.538436 4.97537C0.439179 5.05317 0.349269 5.12556 0.260742 5.20067C0.274155 5.22481 0.276209 5.2394 0.28694 5.26354C0.38888 5.26354 0.483652 5.24808 0.585592 5.23735C1.37697 5.11126 2.16017 5.13721 2.93813 5.27402C5.93195 5.81591 8.93419 8.17915 9.96432 14.8938C10.6296 19.2074 9.87579 21.2841 10.9703 25.7238C13.3605 35.4189 22.4178 39.2558 27.0347 39.1056C27.5122 39.0921 29.9003 38.9271 30.2517 38.8279C29.9486 38.5006 24.7698 38.7039 21.7008 32.5928C21.1589 31.5117 20.7544 30.3772 20.8939 29.119C21.2588 25.9133 25.0319 25.3468 27.4329 26.7927C31.9611 29.5075 35.3924 38.2752 41.7315 39.0532C46.3832 39.6192 52.3715 36.9127 55.3385 33.3421C55.2634 33.3287 55.2369 33.3209 55.2128 33.3316C55.1618 33.345 55.1088 33.3549 55.0713 33.3683C50.8837 34.8893 43.2128 34.5906 38.1319 31.5083C33.4025 28.6405 31.4556 24.1229 31.6192 22.1243C31.8446 19.447 34.4993 19.211 36.1357 19.6617C37.9465 20.1526 39.2027 21.8728 41.0242 23.1041C42.9852 24.4105 45.1641 24.8248 47.4792 24.3982C49.3517 24.0576 51.8035 22.8512 52.069 22.5749C51.9296 22.5615 51.8432 22.5647 51.7547 22.5539C50.974 22.4788 50.1956 22.4545 49.4283 22.3391C35.4465 20.2654 33.22 1.76271 17.6769 0.56894C16.9804 0.515623 16.2604 0.495503 15.5287 0.500827ZM14.1716 3.11534C14.0322 4.96368 11.3757 5.79357 9.72854 3.96938C9.61319 3.8433 9.6144 3.81983 9.56612 3.71789C11.0872 3.39061 12.6104 3.20387 14.1716 3.11534ZM33.7727 7.75231C33.8961 7.89181 33.9648 7.97061 34.0399 8.04573C35.9258 10.0201 38.0724 11.6528 40.5002 12.8975C43.4055 14.3703 46.4514 15.1634 49.7322 14.8361C50.8509 14.7342 51.9299 14.4445 52.9493 13.9402C53.0244 13.9026 53.0995 13.8392 53.1746 13.7882C53.0995 13.7507 53.0369 13.7381 52.986 13.7516C52.4441 13.8159 51.9193 13.9154 51.3774 13.9664C49.7437 14.1166 48.1983 13.8674 46.8033 12.9499C44.5392 11.453 42.9658 9.81668 40.4897 8.81069C37.5093 7.60351 34.7277 7.75231 33.7727 7.75231ZM38.462 13.9192C38.3225 14.1016 38.5412 14.197 38.6297 14.3069C44.4778 21.3059 54.5592 22.3841 60.8714 20.128C65.6116 18.4433 68.7474 21.0898 69.3752 23.759C69.3859 23.8073 69.4087 23.8679 69.4328 23.9162C69.4569 23.9028 69.4872 23.9005 69.5114 23.9005C69.5114 22.8087 69.3069 21.5616 68.8669 20.4215C68.1238 18.4953 66.8579 17.0133 64.8325 16.2246C61.6643 14.9986 58.5332 15.9924 56.4702 16.6228C53.2886 17.6047 50.2569 17.9945 46.4261 17.2568C43.6576 16.7337 41.1194 15.7021 38.8445 14.0764C38.7292 13.9906 38.4754 13.8951 38.462 13.9192ZM61.212 25.8339C60.4182 25.8007 59.5742 25.8459 58.6708 25.9753C54.8642 26.528 52.6909 28.2505 49.968 29.8735C47.6368 31.2444 46.238 31.0846 43.1986 30.6071C43.1986 30.6312 43.1828 30.6406 43.1828 30.6647C43.2311 30.6888 43.2658 30.7192 43.3033 30.7433C45.8679 32.0497 48.0645 32.1758 51.3722 31.7493C55.1064 31.2584 56.8617 29.9237 58.938 28.6789C61.4409 27.182 63.7727 27.6233 67.3003 28.1759C67.311 28.1518 67.3131 28.1215 67.3265 28.0973C65.5318 26.7393 63.5933 25.9335 61.212 25.8339ZM66.2786 29.8316C62.3192 30.1262 59.9499 32.5182 57.8116 34.741C56.8726 35.7202 55.9459 36.7053 54.956 37.6228C53.0755 39.3826 51.5822 39.5203 51.2307 39.7081V39.7605C52.0087 39.8115 54.5777 39.6954 56.858 39.2313C65.6087 37.4313 65.7852 31.1552 69.8467 31.131C70.7883 31.131 71.6993 31.2042 72.5765 31.5449C72.6006 31.5584 72.6301 31.5449 72.6918 31.5449C72.6542 31.494 72.6403 31.4591 72.6027 31.4349C71.7496 30.8689 70.9703 30.0622 68.0758 29.8369C67.4413 29.7866 66.8442 29.7895 66.2786 29.8316ZM72.4036 33.2687C70.8704 33.1272 69.4092 33.5543 68.0129 34.4214C67.9753 34.4483 67.9361 34.5003 67.8609 34.5996C68.765 34.664 70.1395 34.7029 71.3976 35.658C72.9187 36.8169 73.8213 38.1955 75.3692 38.6864C77.8855 39.4805 80.2997 38.41 80.7397 38.021C80.7155 37.97 80.7007 37.9605 80.6873 37.9686C80.4217 37.8935 79.142 37.9547 77.7846 36.6482C76.3762 35.3042 75.5318 34.1325 73.9597 33.6041C73.4319 33.425 72.9147 33.3159 72.4036 33.2687ZM16.4089 38.0577L16.3565 38.1048C16.5846 38.4938 18.1322 40.3409 18.7143 40.9499C22.7087 45.1643 28.9457 48.5558 34.37 48.4109C38.3242 48.3009 41.0661 47.4149 44.1941 47.6617C47.212 47.879 48.6779 48.611 49.2869 48.7934C49.3003 48.7693 49.3258 48.7547 49.3393 48.7305C49.0871 48.3764 48.364 47.67 48.0608 47.4259C43.7257 43.9975 39.0586 45.8475 35.7375 44.3398C34.2674 43.6719 34.2055 42.7831 34.852 42.2493C35.3456 41.8227 35.5463 41.7519 37.8909 41.2904C37.6227 40.8773 35.3046 39.81 32.4261 40.9394C29.4484 42.1037 26.4202 42.188 23.3513 41.3376C19.6627 40.3182 17.2459 38.5566 16.4089 38.0577ZM42.3445 48.9244C42.3096 48.9244 42.27 48.9474 42.2083 48.9716C43.0533 49.1969 45.4912 49.6008 48.1604 52.7073C49.7404 54.5449 51.6256 55.3229 53.8924 55.5C53.9058 55.4356 53.9825 55.3987 53.7143 55.2485C53.0999 54.8971 52.5944 54.4584 52.2 53.8548C51.3926 52.6101 50.2057 50.2165 47.1072 49.4117C45.5406 49.0093 43.9487 48.9378 42.3445 48.9244Z" fill="url(#paint0_linear_878_1122)"/>
<defs>
<linearGradient id="paint0_linear_878_1122" x1="19.1854" y1="50.5117" x2="30.9826" y2="1.2899" gradientUnits="userSpaceOnUse">
<stop stop-color="#46ADD8"/>
<stop offset="1" stop-color="#675AF1"/>
</linearGradient>
</defs>
</svg>
