<svg width="81" height="65" viewBox="0 0 81 65" fill="none" xmlns="http://www.w3.org/2000/svg">
<path d="M80.4958 59.3111C80.4436 59.4551 80.3769 59.5949 80.3393 59.7431C79.6818 62.3103 77.5654 64.099 74.9293 64.1262C70.0642 64.1762 65.199 64.1491 60.3338 64.1387C59.3278 64.1366 58.639 63.4708 58.6306 62.5837C58.6223 61.6508 59.3069 61.0205 60.386 61.0184C65.0174 61.01 69.6488 61.0163 74.2802 61.0142C76.4196 61.0142 77.3713 60.0562 77.3713 57.9127C77.3713 52.5695 77.3713 47.2243 77.3734 41.8811C77.3734 40.944 77.77 40.3679 78.5255 40.1446C79.2331 39.9359 79.8363 40.2176 80.3455 40.9899C80.3852 41.0525 80.4457 41.1005 80.4958 41.1569V59.3152V59.3111Z" fill="url(#paint0_linear_205_655)"/>
<path d="M80.4958 22.9943C80.1222 23.537 79.7257 24.0442 78.9847 24.0713C78.0559 24.1068 77.3755 23.3617 77.3734 22.268C77.3671 18.2272 77.3713 14.1865 77.3713 10.1457C77.3713 8.73897 77.3776 7.33013 77.3713 5.92338C77.3609 4.20564 76.311 3.14328 74.5933 3.1391C69.989 3.12866 65.3826 3.13701 60.7783 3.13493C60.4674 3.13493 60.148 3.14954 59.8454 3.0911C59.1691 2.96378 58.664 2.33763 58.6348 1.6426C58.6035 0.922528 59.0731 0.267158 59.8015 0.0834867C60.0979 0.00834867 60.4193 0.0062615 60.7282 0.0062615C65.2303 0.00208717 69.7302 0.00208717 74.2322 0.00417434C77.5738 0.00417434 79.4898 1.46519 80.4144 4.70865C80.4269 4.75666 80.4708 4.79423 80.5 4.83597V22.9943H80.4958Z" fill="url(#paint1_linear_205_655)"/>
<path d="M11.1622 53.4983C12.1473 53.4983 13.1012 53.4983 14.0571 53.4983C15.5411 53.4983 17.025 53.4774 18.509 53.5108C19.0329 53.5233 19.3481 53.3584 19.6528 52.9181C23.5579 47.2869 27.4838 41.6703 31.4056 36.0496C32.4743 34.5155 33.5491 34.5176 34.624 36.0537C35.7866 37.7172 36.9471 39.3807 38.1618 41.1172C38.3538 40.873 38.5124 40.6873 38.6523 40.4869C41.3218 36.6632 43.9892 32.8374 46.6586 29.0116C47.648 27.5944 48.7521 27.5903 49.7477 29.0158C55.2807 36.9429 60.8117 44.8699 66.3281 52.8095C66.6725 53.3063 67.0211 53.5672 67.6514 53.5129C68.3464 53.4524 69.0519 53.4983 69.8763 53.4983V52.6363C69.8763 49.1403 69.8763 45.6443 69.8763 42.1483C69.8763 41.9396 69.868 41.7308 69.8826 41.5221C69.9473 40.6163 70.5839 40.0068 71.4521 40.0131C72.3183 40.0194 72.9862 40.6309 72.9904 41.5472C73.0091 46.0596 73.0091 50.5742 72.9904 55.0866C72.9862 55.9152 72.4018 56.4996 71.5836 56.6061C71.3018 56.6437 71.0117 56.627 70.7258 56.627C50.5721 56.627 30.4205 56.627 10.2668 56.627C8.45513 56.627 8.01265 56.1803 8.01265 54.3582C8.01265 39.4871 8.01265 24.6181 8.01265 9.74708C8.01265 7.97924 8.47182 7.5138 10.223 7.5138C30.4267 7.5138 50.6326 7.5138 70.8364 7.5138C72.5291 7.5138 73.0029 7.99594 73.0029 9.71368C73.0029 15.4012 73.0029 21.0887 73.0029 26.7742C73.0029 26.9829 73.0112 27.1916 72.9966 27.4003C72.9361 28.3083 72.3058 28.9386 71.4542 28.9448C70.6006 28.9532 69.9494 28.3291 69.8847 27.4296C69.868 27.1958 69.8784 26.96 69.8784 26.7262C69.8784 21.6919 69.8784 16.6556 69.8784 11.6214V10.7051H11.1622V53.4983ZM48.2512 32.3344C48.1301 32.4388 48.0612 32.4805 48.0174 32.5389C45.4648 36.1915 42.9226 39.8503 40.3554 43.4924C40.0632 43.9057 40.2615 44.1457 40.4723 44.4483C42.4572 47.289 44.4483 50.1254 46.4124 52.9807C46.6816 53.371 46.9613 53.5108 47.4288 53.5087C52.3754 53.492 57.3241 53.4983 62.2707 53.4962C62.4627 53.4962 62.6547 53.467 62.9678 53.4419C58.0275 46.3581 53.1581 39.3744 48.2491 32.3302L48.2512 32.3344ZM33.0107 39.2095C29.6754 43.9933 26.4027 48.6874 23.0862 53.4461H42.9393C39.604 48.6623 36.3397 43.9808 33.0107 39.2095Z" fill="url(#paint2_linear_205_655)"/>
<path d="M0.505102 50.1943C0.505102 47.4559 0.503015 44.7197 0.505102 41.9813C0.505102 40.802 1.13751 40.0569 2.09552 40.0778C3.03058 40.0987 3.62542 40.8187 3.62751 41.9625C3.63168 47.3078 3.62751 52.653 3.62751 57.9982C3.62751 60.0332 4.61056 61.0142 6.64764 61.0142C11.1497 61.0163 15.6517 61.0142 20.1537 61.0142C20.4396 61.0142 20.7277 61.0017 21.0115 61.035C21.7441 61.1227 22.2993 61.7092 22.3619 62.4376C22.4225 63.1285 22.0134 63.7985 21.333 64.0135C21.0178 64.1136 20.6692 64.1387 20.3374 64.1387C15.7581 64.147 11.1768 64.147 6.59755 64.1429C2.89908 64.1387 0.505102 61.7301 0.500928 58.017C0.49884 55.4101 0.500928 52.8012 0.500928 50.1943H0.505102Z" fill="url(#paint3_linear_205_655)"/>
<path d="M0.505102 13.8504C0.505102 11.2164 0.49884 8.58244 0.505102 5.95052C0.517625 2.4879 2.95126 0.0187845 6.393 0.00834867C11.1037 -0.00834867 15.8124 0.0062615 20.5231 0C21.2244 0 21.8986 0.164886 22.1428 0.841129C22.3077 1.29822 22.2847 1.92437 22.1031 2.37937C21.8318 3.06188 21.1347 3.14119 20.4459 3.1391C15.8917 3.12866 11.3375 3.13284 6.7833 3.13493C6.52241 3.13493 6.26151 3.1224 6.0027 3.14745C4.55838 3.29355 3.63377 4.3747 3.63168 5.94008C3.62751 11.2081 3.63168 16.474 3.63168 21.742C3.63168 21.9758 3.64003 22.2116 3.62751 22.4454C3.58367 23.3951 2.93665 24.0671 2.07257 24.0713C1.221 24.0755 0.528061 23.3888 0.513451 22.4538C0.490492 20.9426 0.505102 19.4294 0.505102 17.9163C0.505102 16.5596 0.505102 15.205 0.505102 13.8484V13.8504Z" fill="url(#paint4_linear_205_655)"/>
<path d="M25.165 32.5911C20.928 32.6037 17.5155 29.2037 17.503 24.9604C17.4905 20.7235 20.8926 17.288 25.117 17.2671C29.3101 17.2463 32.7769 20.6984 32.8019 24.9124C32.8249 29.1223 29.3894 32.5765 25.165 32.589V32.5911ZM25.1128 29.4604C27.6049 29.4771 29.6378 27.4859 29.6774 24.9855C29.7171 22.4934 27.6383 20.3937 25.1316 20.3979C22.6458 20.4021 20.6338 22.4266 20.6296 24.927C20.6254 27.4442 22.604 29.4416 25.1128 29.4583V29.4604Z" fill="url(#paint5_linear_205_655)"/>
<path d="M72.9904 34.4258C73.0071 35.2669 72.3225 35.9765 71.4751 35.9974C70.6214 36.0183 69.9118 35.3587 69.8784 34.5092C69.845 33.641 70.5651 32.8854 71.4313 32.8833C72.2619 32.8812 72.9758 33.5867 72.9904 34.4258Z" fill="url(#paint6_linear_205_655)"/>
<defs>
<linearGradient id="paint0_linear_205_655" x1="19.312" y1="58.3368" x2="35.1357" y2="2.07356" gradientUnits="userSpaceOnUse">
<stop stop-color="#46ADD8"/>
<stop offset="1" stop-color="#675AF1"/>
</linearGradient>
<linearGradient id="paint1_linear_205_655" x1="19.312" y1="58.3368" x2="35.1357" y2="2.07356" gradientUnits="userSpaceOnUse">
<stop stop-color="#46ADD8"/>
<stop offset="1" stop-color="#675AF1"/>
</linearGradient>
<linearGradient id="paint2_linear_205_655" x1="19.312" y1="58.3368" x2="35.1357" y2="2.07356" gradientUnits="userSpaceOnUse">
<stop stop-color="#46ADD8"/>
<stop offset="1" stop-color="#675AF1"/>
</linearGradient>
<linearGradient id="paint3_linear_205_655" x1="19.312" y1="58.3368" x2="35.1357" y2="2.07356" gradientUnits="userSpaceOnUse">
<stop stop-color="#46ADD8"/>
<stop offset="1" stop-color="#675AF1"/>
</linearGradient>
<linearGradient id="paint4_linear_205_655" x1="19.312" y1="58.3368" x2="35.1357" y2="2.07356" gradientUnits="userSpaceOnUse">
<stop stop-color="#46ADD8"/>
<stop offset="1" stop-color="#675AF1"/>
</linearGradient>
<linearGradient id="paint5_linear_205_655" x1="19.312" y1="58.3368" x2="35.1357" y2="2.07356" gradientUnits="userSpaceOnUse">
<stop stop-color="#46ADD8"/>
<stop offset="1" stop-color="#675AF1"/>
</linearGradient>
<linearGradient id="paint6_linear_205_655" x1="19.312" y1="58.3368" x2="35.1357" y2="2.07356" gradientUnits="userSpaceOnUse">
<stop stop-color="#46ADD8"/>
<stop offset="1" stop-color="#675AF1"/>
</linearGradient>
</defs>
</svg>
