<svg width="1213" height="215" viewBox="0 0 1213 215" fill="none" xmlns="http://www.w3.org/2000/svg">
<g filter="url(#filter0_d_95_35)">
<path d="M18.4009 194.839V11.7295H100.929C109.526 11.7295 117.435 13.5348 124.656 17.1454C132.05 20.5841 138.411 25.3123 143.741 31.33C149.071 37.1757 153.197 43.7952 156.12 51.1884C159.215 58.5816 160.763 66.0607 160.763 73.6258C160.763 81.1909 159.559 88.4121 157.152 95.2895C154.745 101.995 151.306 108.099 146.836 113.601C142.366 118.93 137.036 123.315 130.846 126.754L171.079 194.839H124.398L89.3238 135.78H60.6968V194.839H18.4009ZM60.6968 98.9001H99.382C102.821 98.9001 105.83 97.8685 108.409 95.8053C111.159 93.5702 113.395 90.5613 115.114 86.7788C116.833 82.9962 117.693 78.6119 117.693 73.6258C117.693 68.6397 116.661 64.3413 114.598 60.7307C112.707 56.9482 110.3 54.0253 107.377 51.9621C104.454 49.8989 101.359 48.8673 98.0925 48.8673H60.6968V98.9001ZM338.749 48.8673H283.042V194.839H240.746V48.8673H184.782V11.7295H338.749V48.8673ZM355.621 101.737C355.621 90.5613 357.684 79.6435 361.811 68.9836C365.937 58.1517 371.955 48.3515 379.864 39.5828C387.773 30.8142 397.401 23.8508 408.749 18.6928C420.097 13.3628 432.992 10.6978 447.434 10.6978C464.628 10.6978 479.5 14.3944 492.051 21.7876C504.774 29.1808 514.231 38.8091 520.42 50.6726L487.925 73.3679C485.174 66.8344 481.477 61.7623 476.835 58.1517C472.365 54.5411 467.378 52.0481 461.877 50.6726C456.547 49.1252 451.389 48.3515 446.402 48.3515C438.322 48.3515 431.272 49.9848 425.255 53.2516C419.237 56.3464 414.251 60.5588 410.296 65.8888C406.342 71.2187 403.419 77.1505 401.528 83.684C399.636 90.2175 398.691 96.751 398.691 103.284C398.691 110.506 399.808 117.469 402.043 124.174C404.279 130.88 407.459 136.812 411.586 141.97C415.884 147.128 421.042 151.254 427.06 154.349C433.078 157.272 439.697 158.733 446.918 158.733C452.076 158.733 457.32 157.874 462.65 156.154C467.98 154.435 472.88 151.77 477.351 148.159C481.993 144.377 485.518 139.477 487.925 133.459L522.483 153.833C518.873 162.774 512.941 170.425 504.688 176.786C496.435 183.148 487.065 188.048 476.577 191.487C466.261 194.754 456.031 196.387 445.887 196.387C432.648 196.387 420.44 193.722 409.265 188.392C398.261 182.89 388.719 175.669 380.638 166.728C372.729 157.616 366.539 147.472 362.069 136.296C357.77 124.948 355.621 113.429 355.621 101.737ZM550.46 194.839V152.802H584.245V194.839H550.46ZM705.291 196.387C691.536 196.387 679.071 193.808 667.895 188.65C656.892 183.32 647.349 176.271 639.268 167.502C631.359 158.561 625.256 148.589 620.957 137.585C616.659 126.41 614.51 114.89 614.51 103.027C614.51 90.8192 616.745 79.2137 621.215 68.2099C625.858 57.2061 632.219 47.4058 640.3 38.8091C648.553 30.0405 658.267 23.1631 669.443 18.177C680.619 13.1909 692.826 10.6978 706.065 10.6978C719.648 10.6978 731.941 13.3628 742.945 18.6928C754.12 23.8508 763.663 30.9001 771.572 39.8407C779.653 48.7813 785.842 58.8395 790.141 70.0152C794.439 81.019 796.588 92.2807 796.588 103.8C796.588 116.008 794.353 127.613 789.883 138.617C785.413 149.621 779.051 159.507 770.798 168.276C762.545 176.872 752.831 183.75 741.655 188.908C730.651 193.894 718.53 196.387 705.291 196.387ZM657.579 103.542C657.579 110.592 658.611 117.469 660.674 124.174C662.737 130.708 665.746 136.554 669.701 141.712C673.827 146.87 678.899 150.996 684.917 154.091C690.935 157.186 697.812 158.733 705.549 158.733C713.63 158.733 720.679 157.186 726.697 154.091C732.715 150.824 737.701 146.526 741.655 141.196C745.61 135.866 748.533 129.934 750.424 123.401C752.487 116.695 753.519 109.904 753.519 103.027C753.519 95.9773 752.487 89.1859 750.424 82.6523C748.361 76.1188 745.266 70.2731 741.139 65.1151C737.013 59.7851 731.941 55.6587 725.923 52.7358C719.906 49.8129 713.114 48.3515 705.549 48.3515C697.468 48.3515 690.419 49.8989 684.401 52.9937C678.555 56.0885 673.569 60.3009 669.443 65.6308C665.488 70.7889 662.48 76.7206 660.416 83.4261C658.525 89.9596 657.579 96.665 657.579 103.542ZM873.64 90.1315V194.839H831.345V11.7295H864.872L949.721 119.532V11.7295H992.017V194.839H957.458L873.64 90.1315Z" fill="white"/>
</g>
<g filter="url(#filter1_d_95_35)">
<path d="M1063.96 9.18347V195.783L1200.5 102.483L1063.96 9.18347Z" fill="white"/>
</g>
<defs>
<filter id="filter0_d_95_35" x="18.4009" y="10.6979" width="985.753" height="203.894" filterUnits="userSpaceOnUse" color-interpolation-filters="sRGB">
<feFlood flood-opacity="0" result="BackgroundImageFix"/>
<feColorMatrix in="SourceAlpha" type="matrix" values="0 0 0 0 0 0 0 0 0 0 0 0 0 0 0 0 0 0 127 0" result="hardAlpha"/>
<feOffset dx="12.1365" dy="18.2048"/>
<feComposite in2="hardAlpha" operator="out"/>
<feColorMatrix type="matrix" values="0 0 0 0 1 0 0 0 0 0 0 0 0 0 1 0 0 0 1 0"/>
<feBlend mode="normal" in2="BackgroundImageFix" result="effect1_dropShadow_95_35"/>
<feBlend mode="normal" in="SourceGraphic" in2="effect1_dropShadow_95_35" result="shape"/>
</filter>
<filter id="filter1_d_95_35" x="1063.96" y="9.18347" width="148.673" height="204.804" filterUnits="userSpaceOnUse" color-interpolation-filters="sRGB">
<feFlood flood-opacity="0" result="BackgroundImageFix"/>
<feColorMatrix in="SourceAlpha" type="matrix" values="0 0 0 0 0 0 0 0 0 0 0 0 0 0 0 0 0 0 127 0" result="hardAlpha"/>
<feOffset dx="12.1365" dy="18.2048"/>
<feComposite in2="hardAlpha" operator="out"/>
<feColorMatrix type="matrix" values="0 0 0 0 1 0 0 0 0 0 0 0 0 0 1 0 0 0 1 0"/>
<feBlend mode="normal" in2="BackgroundImageFix" result="effect1_dropShadow_95_35"/>
<feBlend mode="normal" in="SourceGraphic" in2="effect1_dropShadow_95_35" result="shape"/>
</filter>
</defs>
</svg>
