<svg width="63" height="56" viewBox="0 0 63 56" fill="none" xmlns="http://www.w3.org/2000/svg">
<path d="M9.73238 0.5C9.81626 0.54913 9.90014 0.599458 9.98522 0.648587C10.4921 0.945762 10.6946 1.38673 10.576 1.95951C10.4525 2.55027 10.0355 2.82947 9.47235 2.8774C9.017 2.91694 8.55566 2.8798 8.09792 2.89657C6.74505 2.9469 5.68337 3.94627 5.67977 5.28955C5.6606 11.6045 5.67258 17.9183 5.67498 24.2333C5.67498 24.2692 5.69655 24.3052 5.7325 24.4142C5.941 24.4142 6.17227 24.4142 6.40474 24.4142C15.9491 24.4142 25.4922 24.4166 35.0366 24.4118C36.7214 24.4118 38.0431 25.0601 38.7549 26.6119C39.0329 27.2206 39.1347 27.9575 39.1371 28.637C39.1635 35.7284 39.1539 42.8199 39.1539 49.9113V50.719C39.3852 50.719 39.5937 50.719 39.8022 50.719C42.3521 50.719 44.9033 50.7154 47.4532 50.7214C48.2717 50.7226 48.7618 51.088 48.8516 51.7315C48.9667 52.5547 48.4262 53.1036 47.4628 53.1072C45.391 53.1155 43.3179 53.1096 41.2461 53.1096C40.9873 53.1096 40.7272 53.1263 40.4696 53.106C39.5397 53.0341 38.7968 53.094 38.218 54.1017C37.6309 55.1251 36.4745 55.4977 35.2679 55.4989C32.9767 55.5013 30.6856 55.4989 28.3933 55.4989C20.7818 55.4989 13.1715 55.4989 5.55995 55.4989C2.78951 55.4989 1.84646 54.8483 0.881836 52.2708V27.5202C1.24492 26.4681 1.73022 25.4843 2.76914 24.9582C3.2113 24.7341 3.282 24.4597 3.2808 24.0271C3.27002 17.9099 3.27841 11.7926 3.27002 5.6754C3.26762 4.28179 3.65946 3.04756 4.6133 2.01463C5.38499 1.18302 6.39156 0.782796 7.45923 0.5C8.21655 0.5 8.97386 0.5 9.73238 0.5ZM20.0784 26.8048C15.0971 26.8048 10.1146 26.8048 5.13335 26.8048C3.78408 26.8048 3.27481 27.3033 3.27481 28.6286C3.27361 36.179 3.27481 43.7306 3.27481 51.281C3.27481 52.6087 3.78409 53.1084 5.12976 53.1084C15.054 53.1084 24.977 53.1084 34.9012 53.1084C36.2696 53.1084 36.7597 52.6111 36.7597 51.2246C36.7597 43.7138 36.7597 36.2029 36.7597 28.6921C36.7597 27.2817 36.2756 26.8048 34.8449 26.8048C29.9223 26.8048 25.0009 26.8048 20.0784 26.8048Z" fill="url(#paint0_linear_205_704)"/>
<path d="M57.9286 0.5C59.0335 0.799572 60.0664 1.21777 60.8525 2.1081C61.7715 3.14941 62.1202 4.37166 62.119 5.73651C62.1119 14.2827 62.1155 22.8301 62.1155 31.3762C62.1155 36.9147 62.119 42.4532 62.1131 47.9917C62.1107 50.4613 60.7758 52.3379 58.4823 52.9106C57.6315 53.1227 56.7052 53.094 55.8161 53.0724C55.181 53.0568 54.764 52.5032 54.7712 51.9005C54.7784 51.2977 55.2025 50.8112 55.8448 50.7429C56.2786 50.6962 56.7208 50.7262 57.1581 50.719C58.6788 50.6914 59.7117 49.6765 59.7189 48.1558C59.7321 45.2668 59.7237 42.3789 59.7237 39.4898C59.7237 28.2739 59.7237 17.0579 59.7237 5.84196C59.7237 3.81086 58.8034 2.89298 56.7675 2.89298C43.9351 2.89298 31.1026 2.89298 18.269 2.89298C18.0701 2.89298 17.8687 2.90496 17.6722 2.88339C17.1066 2.82108 16.6848 2.55386 16.5566 1.9715C16.432 1.40471 16.6309 0.955349 17.139 0.655777C17.2229 0.606647 17.3043 0.552725 17.387 0.501198C30.9013 0.501198 44.4156 0.501198 57.9298 0.501198L57.9286 0.5Z" fill="url(#paint1_linear_205_704)"/>
<path d="M13.2002 0.5C13.4746 0.769614 13.8461 0.991297 14.0019 1.31723C14.2739 1.88522 13.9276 2.55027 13.3524 2.78513C12.7928 3.014 12.1541 2.79592 11.8569 2.27466C11.5442 1.72585 11.7048 1.07757 12.2476 0.708502C12.3602 0.631811 12.4836 0.569501 12.6023 0.5C12.8012 0.5 13.0013 0.5 13.2002 0.5Z" fill="url(#paint2_linear_205_704)"/>
<path d="M51.4267 15.8249C51.2662 16.0993 51.1883 16.3234 51.0373 16.4755C48.8169 18.708 46.5952 20.9392 44.358 23.1536C43.0507 24.4477 41.3024 24.564 39.9951 23.4783C38.6961 22.3999 38.4984 20.4455 39.5733 19.1417C39.8884 18.7583 40.2503 18.412 40.6014 18.0597C42.6002 16.0561 44.6001 14.0538 46.6048 12.0575C46.7582 11.9053 46.9583 11.7998 47.2064 11.6237C45.9518 11.0329 45.258 10.2241 45.0746 9.01742C44.8182 7.33742 46.1183 5.59032 47.8151 5.534C50.1434 5.45731 52.4776 5.47049 54.8071 5.52801C56.2678 5.56396 57.5284 6.85331 57.5668 8.332C57.6243 10.562 57.6207 12.7944 57.5811 15.0256C57.5548 16.4767 56.5542 17.6439 55.2085 17.9542C53.7981 18.279 52.4357 17.6642 51.7179 16.3785C51.6604 16.2754 51.6077 16.1688 51.4267 15.8249ZM51.3632 7.87905C50.3471 7.87905 49.3321 7.88144 48.316 7.87905C47.8283 7.87785 47.5 8.08395 47.4436 8.58484C47.3969 9.01143 47.7804 9.33376 48.3208 9.34695C48.8384 9.36013 49.3597 9.32058 49.8738 9.36492C50.8468 9.4488 51.3057 10.4709 50.7389 11.2642C50.6131 11.4404 50.4513 11.5937 50.2968 11.7483C47.4808 14.5655 44.6624 17.3803 41.8452 20.1974C41.705 20.3376 41.5529 20.473 41.439 20.6336C41.2018 20.9667 41.1718 21.3813 41.5097 21.5862C41.7542 21.7348 42.158 21.6785 42.4743 21.6234C42.6373 21.5946 42.7667 21.3682 42.9069 21.228C45.7097 18.4252 48.5113 15.6224 51.3141 12.8208C51.4543 12.6806 51.5921 12.5344 51.7467 12.4098C52.1313 12.0982 52.5591 11.994 53.0264 12.212C53.483 12.4265 53.7203 12.7992 53.7346 13.3001C53.749 13.7782 53.7334 14.2563 53.7418 14.7332C53.7526 15.2904 54.0378 15.6427 54.468 15.6523C54.9042 15.6607 55.2025 15.3216 55.2061 14.7536C55.2145 12.7621 55.2169 10.7705 55.2061 8.77896C55.2025 8.12589 54.9557 7.89223 54.2894 7.88384C53.314 7.87186 52.3374 7.88024 51.362 7.88144L51.3632 7.87905Z" fill="url(#paint3_linear_205_704)"/>
<path d="M52.5184 53.1036C51.8761 53.1191 51.3237 52.5967 51.3021 51.9544C51.2794 51.2894 51.833 50.7214 52.4992 50.725C53.1355 50.7286 53.6867 51.2726 53.6927 51.9053C53.6987 52.5368 53.1583 53.088 52.5184 53.1036Z" fill="url(#paint4_linear_205_704)"/>
<path d="M20.0017 28.2403C24.506 28.2403 29.0104 28.2403 33.5148 28.2403C35.0078 28.2403 35.3242 28.5627 35.3242 30.0785C35.3242 36.6547 35.3242 43.2309 35.3242 49.8059C35.3242 51.3648 35.0186 51.6752 33.4848 51.6752C24.4953 51.6752 15.5069 51.6752 6.51737 51.6752C5.02431 51.6752 4.70796 51.3541 4.70796 49.837C4.70796 43.2608 4.70796 36.6846 4.70796 30.1096C4.70796 28.5339 5.00514 28.2403 6.60725 28.2403C11.0721 28.2403 15.5369 28.2403 20.0017 28.2403ZM32.8905 49.2571V30.6776H7.1321V49.2571H32.8905Z" fill="url(#paint5_linear_205_704)"/>
<defs>
<linearGradient id="paint0_linear_205_704" x1="15.2818" y1="50.5117" x2="30.1967" y2="3.16035" gradientUnits="userSpaceOnUse">
<stop stop-color="#46ADD8"/>
<stop offset="1" stop-color="#675AF1"/>
</linearGradient>
<linearGradient id="paint1_linear_205_704" x1="15.2818" y1="50.5117" x2="30.1967" y2="3.16035" gradientUnits="userSpaceOnUse">
<stop stop-color="#46ADD8"/>
<stop offset="1" stop-color="#675AF1"/>
</linearGradient>
<linearGradient id="paint2_linear_205_704" x1="15.2818" y1="50.5117" x2="30.1967" y2="3.16035" gradientUnits="userSpaceOnUse">
<stop stop-color="#46ADD8"/>
<stop offset="1" stop-color="#675AF1"/>
</linearGradient>
<linearGradient id="paint3_linear_205_704" x1="15.2818" y1="50.5117" x2="30.1967" y2="3.16035" gradientUnits="userSpaceOnUse">
<stop stop-color="#46ADD8"/>
<stop offset="1" stop-color="#675AF1"/>
</linearGradient>
<linearGradient id="paint4_linear_205_704" x1="15.2818" y1="50.5117" x2="30.1967" y2="3.16035" gradientUnits="userSpaceOnUse">
<stop stop-color="#46ADD8"/>
<stop offset="1" stop-color="#675AF1"/>
</linearGradient>
<linearGradient id="paint5_linear_205_704" x1="15.2818" y1="50.5117" x2="30.1967" y2="3.16035" gradientUnits="userSpaceOnUse">
<stop stop-color="#46ADD8"/>
<stop offset="1" stop-color="#675AF1"/>
</linearGradient>
</defs>
</svg>
