<svg width="74" height="40" viewBox="0 0 74 40" fill="none" xmlns="http://www.w3.org/2000/svg">
<g clip-path="url(#clip0_270_139)">
<path fill-rule="evenodd" clip-rule="evenodd" d="M11.9946 0.115601H12.3739H72.8476H73.7652L73.7631 1.03246L73.7025 27.4567L73.7016 27.8329L73.4361 28.0997L62.1541 39.433L61.8857 39.7027H61.505H1.03123H0.115723V38.7879V12.3637V11.9848L0.383869 11.7169L11.7265 0.383527L11.9946 0.115601ZM12.7531 1.94512L3.24145 11.4489H61.1257L70.6374 1.94512H12.7531ZM71.927 3.24383L62.4205 12.7426V36.5711L71.8723 27.0763L71.927 3.24383ZM1.94674 37.8732V13.2785H60.5895V37.8732H1.94674Z" fill="#001A72"/>
<path d="M16.6804 28.1819C16.6804 30.1819 15.4066 31.8788 12.1919 31.8788C10.7968 31.8788 9.70498 31.5758 8.67383 31.1516V28.4243C9.70498 28.9697 10.9787 29.2728 12.1312 29.2728C13.1624 29.2728 13.7083 28.9697 13.7083 28.3637C13.7083 26.5455 8.67383 27.091 8.67383 23.3334C8.67383 21.0304 10.5542 19.5758 13.1017 19.5758C14.1935 19.5758 15.164 19.8182 16.1951 20.4243V23.3334C14.8001 22.4849 13.8296 22.1819 13.041 22.1819C12.0705 22.1819 11.5853 22.5455 11.5853 23.091C11.5853 24.8485 16.6804 24.1819 16.6804 28.1819Z" fill="#001A72"/>
<path d="M36.7575 19.8788L32.9362 31.6364H30.0248L27.4166 23.5758L24.869 31.6364H21.9575L18.1362 19.8788H21.4116L23.5346 27.7576L26.0215 19.8788H28.933L31.4198 27.7576L33.5428 19.8788C33.5428 19.8788 36.7575 19.8788 36.7575 19.8788Z" fill="#001A72"/>
<path d="M55.0149 23.8788V31.6364H52.1641V24.3637C52.1641 23.091 51.2543 22.3637 50.2838 22.3637C49.2526 22.3637 48.4034 23.091 48.4034 24.3637V31.6364H45.492V24.3637C45.492 23.091 44.5821 22.3637 43.6116 22.3637C42.5805 22.3637 41.7313 23.091 41.7313 24.3637V31.6364H38.8198V19.8788H41.5493V20.7273C42.3985 19.8788 43.3083 19.5758 44.4002 19.5758C45.6133 19.5758 46.7051 20.1213 47.4329 21.091C48.4034 20.0607 49.6165 19.5758 51.0116 19.5758C53.3165 19.6364 55.0149 21.394 55.0149 23.8788Z" fill="#001A72"/>
</g>
<defs>
<clipPath id="clip0_270_139">
<rect width="74" height="40" fill="white"/>
</clipPath>
</defs>
</svg>
