<svg width="73" height="56" viewBox="0 0 73 56" fill="none" xmlns="http://www.w3.org/2000/svg">
<path d="M35.2683 2.43067C31.5842 1.10315 27.7211 0.766301 23.8451 0.567316C23.1998 0.533204 22.7777 0.934017 22.7294 1.50965C22.6768 2.1194 23.0449 2.59839 23.7087 2.67514C24.506 2.76894 25.3119 2.78458 26.1121 2.85707C29.0088 3.11717 31.8841 3.49098 34.6557 4.44468C35.2271 4.64225 35.4403 4.9194 35.4389 5.55616C35.4175 18.2528 35.4232 30.9495 35.4232 43.6462V44.3654C26.1235 41.797 16.9375 41.6549 7.71454 44.4634V6.28245C7.71454 6.06925 7.72733 5.85606 7.72591 5.64428C7.72165 5.0189 8.01728 4.61666 8.61566 4.439C9.42865 4.19453 10.2274 3.85768 11.0589 3.72692C13.4808 3.34316 15.9127 3.03189 18.3446 2.71636C19.105 2.61828 19.5797 2.22742 19.5712 1.60488C19.5627 0.988028 19.088 0.545996 18.3844 0.573001C14.851 0.706606 11.3816 1.2126 8.02439 2.37382C6.48936 2.90397 5.6451 3.92732 5.58256 5.56753C5.57829 5.67981 5.54987 5.78925 5.52997 5.91149C5.14479 5.96123 4.79088 5.97829 4.44834 6.0522C1.86296 6.61504 0.191482 8.74276 0.190061 11.4944C0.185797 22.3477 0.18864 33.1995 0.18864 44.0527C0.18864 45.6602 0.161634 47.2691 0.201432 48.8766C0.27534 51.8458 2.22966 54.3501 5.0652 55.1518C5.55982 55.2911 6.06865 55.3849 6.5718 55.5H36.4992V2.70214C36.1026 2.69077 35.7032 2.58844 35.2683 2.43067ZM35.3664 53.3609C35.1119 53.3609 34.8817 53.3609 34.6514 53.3609C25.7184 53.3538 16.784 53.3481 7.84957 53.3311C7.2384 53.3296 6.61302 53.2998 6.01748 53.1761C3.79169 52.7142 2.35616 50.9319 2.33199 48.6052C2.30783 46.2642 2.32489 43.9247 2.32489 41.5838C2.32489 31.5848 2.32489 21.5844 2.32631 11.5854C2.32631 9.84713 3.1791 8.62621 4.68428 8.20977C4.94723 8.13586 5.22865 8.12733 5.57687 8.079V8.98581C5.57687 21.3968 5.57687 33.8078 5.57829 46.2188C5.57829 48.8212 6.84896 50.0976 9.44145 50.0976C17.7846 50.0976 26.1278 50.0976 34.4709 50.0976H35.3664V53.3609ZM35.3436 47.9542H34.6784C26.2159 47.9542 17.7533 47.9542 9.29079 47.9528C8.30723 47.9528 8.04002 47.7708 7.69606 46.7717C9.21119 46.3367 10.6979 45.7924 12.2315 45.4854C19.2173 44.0896 26.1789 44.2588 33.0965 45.9871C33.5982 46.1122 34.0914 46.2799 34.5804 46.4561C35.5028 46.7873 35.5099 46.8115 35.3436 47.9542Z" fill="url(#paint0_linear_219_1289)"/>
<path d="M20.9513 24.9785C24.3795 25.0809 27.2961 25.2926 30.0947 26.289C30.4926 26.4311 30.8864 26.6074 31.2488 26.822C31.7988 27.1475 31.9566 27.6989 31.6994 28.2163C31.4265 28.7649 30.8849 28.9383 30.2567 28.6981C24.8415 26.6273 19.3651 26.704 13.8504 28.2419C13.4439 28.3556 13.0573 28.5446 12.6593 28.6924C12.0055 28.9369 11.3986 28.7266 11.1655 28.1765C10.921 27.6009 11.1385 26.9527 11.8179 26.7438C13.5491 26.2122 15.2888 25.6707 17.0626 25.3267C18.491 25.0496 19.9763 25.0567 20.9499 24.9785H20.9513Z" fill="url(#paint1_linear_219_1289)"/>
<path d="M20.9868 9.23596C24.371 9.34398 27.2662 9.54581 30.0435 10.5294C30.4415 10.6701 30.8352 10.8435 31.2033 11.051C31.7946 11.3864 31.9694 11.9507 31.6937 12.4879C31.4151 13.0323 30.8764 13.1901 30.2425 12.9485C24.7761 10.8747 19.2543 10.9558 13.6983 12.5391C13.36 12.6358 13.0417 12.8021 12.7119 12.9314C12.0197 13.2014 11.3929 12.9925 11.1598 12.4169C10.9168 11.8171 11.1598 11.1931 11.9018 10.9671C13.6116 10.4455 15.33 9.91535 17.0825 9.58134C18.5123 9.30845 19.9962 9.31555 20.9883 9.23596H20.9868Z" fill="url(#paint2_linear_219_1289)"/>
<path d="M21.4729 17.1996C24.4606 17.1911 27.4169 17.437 30.2524 18.4788C30.5836 18.6011 30.9119 18.7446 31.2133 18.9251C31.7434 19.2406 31.9708 19.7012 31.715 20.3052C31.4805 20.8595 30.875 21.1211 30.2894 20.834C28.7359 20.0735 27.0758 19.7367 25.383 19.5477C21.0679 19.0644 16.7996 19.1198 12.6963 20.8084C11.997 21.0969 11.3716 20.861 11.1499 20.2725C10.9225 19.6685 11.1925 19.1312 11.9117 18.8171C14.281 17.7781 16.7897 17.3716 19.3481 17.2067C20.0545 17.1613 20.7651 17.1996 21.4744 17.1996H21.4729Z" fill="url(#paint3_linear_219_1289)"/>
<path d="M21.4346 32.9067C24.4449 32.9308 27.4254 33.1767 30.2823 34.2299C30.6135 34.3521 30.9404 34.5 31.2417 34.6819C31.7875 35.0102 31.9566 35.5631 31.705 36.0748C31.452 36.5893 30.8849 36.8451 30.3249 36.5907C27.1355 35.141 23.7471 35.0031 20.333 35.0585C17.7178 35.1012 15.1637 35.5091 12.7304 36.5268C12.0126 36.8267 11.41 36.6263 11.1655 36.0478C10.9054 35.4324 11.184 34.8638 11.9401 34.5412C14.6776 33.3757 17.5657 32.9777 20.5135 32.9067C20.8206 32.8996 21.1276 32.9067 21.4346 32.9067Z" fill="url(#paint4_linear_219_1289)"/>
<path d="M72.8111 44.0527C72.8111 33.1995 72.8139 22.3477 72.8097 11.4944C72.8083 8.74276 71.1368 6.61504 68.5514 6.0522C68.2089 5.97829 67.8549 5.96123 67.4698 5.91149C67.4499 5.78925 67.4214 5.67981 67.4172 5.56753C67.3546 3.92732 66.5104 2.90397 64.9753 2.37382C61.7617 1.26234 58.4444 0.752088 55.0673 0.5929C50.6527 0.325691 46.6303 0.715134 46.1755 0.762037C43.3073 1.00508 40.4703 1.44285 37.7314 2.43067C37.2965 2.58844 36.8971 2.69077 36.5006 2.70214V55.5H66.4279C66.9311 55.3849 67.4399 55.2911 67.9345 55.1518C70.7701 54.3502 72.7244 51.8458 72.7983 48.8766C72.8381 47.2691 72.8111 45.6602 72.8111 44.0527ZM38.344 4.44468C41.1156 3.49098 43.9909 3.11717 46.8876 2.85707C47.5897 2.79311 48.2976 2.77037 48.9983 2.70356C50.4921 2.63392 52.4748 2.59412 54.5514 2.70072C54.5855 2.70641 54.6196 2.71209 54.6537 2.71636C57.0856 3.03189 59.5175 3.34316 61.9394 3.72692C62.7709 3.85768 63.5697 4.19453 64.3827 4.439C64.981 4.61666 65.2767 5.0189 65.2724 5.64428C65.271 5.85606 65.2838 6.06925 65.2838 6.28245V44.4634C56.0608 41.6549 46.8748 41.797 37.5751 44.3654V43.6462C37.5751 30.9495 37.5808 18.2528 37.5595 5.55616C37.558 4.9194 37.7712 4.64225 38.3426 4.44468H38.344ZM38.4194 46.4561C38.9083 46.2799 39.4015 46.1122 39.9032 45.9871C46.8208 44.2588 53.7824 44.0896 60.7682 45.4854C62.3018 45.7924 63.7885 46.3367 65.3037 46.7717C64.9597 47.7708 64.6925 47.9528 63.709 47.9528C55.2464 47.9542 46.7838 47.9542 38.3213 47.9542H37.6561C37.4898 46.8115 37.4969 46.7873 38.4194 46.4561ZM70.6677 48.6037C70.6436 50.9305 69.208 52.7128 66.9823 53.1747C66.3867 53.2984 65.7613 53.3282 65.1502 53.3296C56.2157 53.3467 47.2813 53.3524 38.3483 53.3595C38.118 53.3595 37.8878 53.3595 37.6334 53.3595V50.0961H38.5288C46.872 50.0961 55.2151 50.0961 63.5583 50.0961C66.1508 50.0961 67.4214 48.8198 67.4214 46.2173C67.4229 33.8064 67.4229 21.3954 67.4229 8.98439V8.07758C67.7711 8.12591 68.0525 8.13444 68.3155 8.20834C69.8206 8.62479 70.6734 9.84571 70.6734 11.584C70.6749 21.583 70.6749 31.5834 70.6749 41.5824C70.6749 43.9233 70.6919 46.2628 70.6677 48.6037Z" fill="url(#paint5_linear_219_1289)"/>
<path d="M61.1804 26.7438C59.4492 26.2122 57.7095 25.6707 55.9357 25.3267C54.5073 25.0496 53.022 25.0567 52.0484 24.9785C48.6202 25.0809 45.7036 25.2926 42.9051 26.2876C42.5071 26.4297 42.1134 26.6059 41.7509 26.8206C41.2009 27.146 41.0431 27.6975 41.3004 28.2149C41.5733 28.7635 42.1148 28.9369 42.743 28.6967C48.1583 26.6258 53.6346 26.7026 59.1494 28.2405C59.5559 28.3542 59.9424 28.5432 60.3404 28.691C60.9942 28.9355 61.6011 28.7251 61.8342 28.1751C62.0787 27.5994 61.8612 26.9513 61.1818 26.7424L61.1804 26.7438Z" fill="url(#paint6_linear_219_1289)"/>
<path d="M42.7587 12.9485C48.2251 10.8747 53.7469 10.9558 59.3029 12.5391C59.6411 12.6358 59.9595 12.8021 60.2893 12.9314C60.9814 13.2014 61.6082 12.9925 61.8413 12.4183C62.0844 11.8185 61.8413 11.196 61.0994 10.9686C59.3896 10.4469 57.6712 9.91677 55.9187 9.58276C54.4888 9.30987 53.005 9.31698 52.0129 9.23738C48.6287 9.3454 45.7335 9.54723 42.9562 10.5308C42.5583 10.6715 42.1645 10.8449 41.7964 11.0524C41.2052 11.3878 41.0303 11.9521 41.3061 12.4894C41.5847 13.0337 42.1233 13.1915 42.7572 12.9499L42.7587 12.9485Z" fill="url(#paint7_linear_219_1289)"/>
<path d="M42.7103 20.834C44.2638 20.0735 45.9239 19.7367 47.6167 19.5477C51.9319 19.0644 56.2001 19.1198 60.3035 20.8084C61.0028 21.0969 61.6281 20.861 61.8499 20.2725C62.0773 19.6685 61.8072 19.1312 61.088 18.8171C58.7187 17.7781 56.2101 17.3716 53.6517 17.2067C52.9453 17.1613 52.2346 17.1996 51.5254 17.1996C48.5378 17.1911 45.5814 17.437 42.7459 18.4788C42.4147 18.5996 42.0864 18.7446 41.7851 18.9251C41.2549 19.2392 41.0275 19.7012 41.2833 20.3052C41.5178 20.8595 42.1233 21.1211 42.7089 20.834H42.7103Z" fill="url(#paint8_linear_219_1289)"/>
<path d="M61.0596 34.5412C58.3221 33.3743 55.434 32.9777 52.4862 32.9067C52.1792 32.8996 51.8722 32.9067 51.5652 32.9067C48.5534 32.9308 45.5743 33.1767 42.7174 34.2299C42.3863 34.3521 42.0594 34.5 41.758 34.6819C41.2123 35.0102 41.0431 35.5631 41.2947 36.0748C41.5477 36.5893 42.1148 36.8451 42.6748 36.5907C45.8643 35.141 49.2527 35.0031 52.6667 35.0585C55.2819 35.1012 57.836 35.5091 60.2693 36.5268C60.9871 36.8267 61.5898 36.6263 61.8342 36.0478C62.0943 35.4324 61.8157 34.8638 61.0596 34.5412Z" fill="url(#paint9_linear_219_1289)"/>
<defs>
<linearGradient id="paint0_linear_219_1289" x1="17.2611" y1="50.5117" x2="30.1718" y2="1.89068" gradientUnits="userSpaceOnUse">
<stop stop-color="#46ADD8"/>
<stop offset="1" stop-color="#675AF1"/>
</linearGradient>
<linearGradient id="paint1_linear_219_1289" x1="17.2611" y1="50.5117" x2="30.1718" y2="1.89068" gradientUnits="userSpaceOnUse">
<stop stop-color="#46ADD8"/>
<stop offset="1" stop-color="#675AF1"/>
</linearGradient>
<linearGradient id="paint2_linear_219_1289" x1="17.2611" y1="50.5117" x2="30.1718" y2="1.89068" gradientUnits="userSpaceOnUse">
<stop stop-color="#46ADD8"/>
<stop offset="1" stop-color="#675AF1"/>
</linearGradient>
<linearGradient id="paint3_linear_219_1289" x1="17.2611" y1="50.5117" x2="30.1718" y2="1.89068" gradientUnits="userSpaceOnUse">
<stop stop-color="#46ADD8"/>
<stop offset="1" stop-color="#675AF1"/>
</linearGradient>
<linearGradient id="paint4_linear_219_1289" x1="17.2611" y1="50.5117" x2="30.1718" y2="1.89068" gradientUnits="userSpaceOnUse">
<stop stop-color="#46ADD8"/>
<stop offset="1" stop-color="#675AF1"/>
</linearGradient>
<linearGradient id="paint5_linear_219_1289" x1="17.2611" y1="50.5117" x2="30.1718" y2="1.89068" gradientUnits="userSpaceOnUse">
<stop stop-color="#46ADD8"/>
<stop offset="1" stop-color="#675AF1"/>
</linearGradient>
<linearGradient id="paint6_linear_219_1289" x1="17.2611" y1="50.5117" x2="30.1718" y2="1.89068" gradientUnits="userSpaceOnUse">
<stop stop-color="#46ADD8"/>
<stop offset="1" stop-color="#675AF1"/>
</linearGradient>
<linearGradient id="paint7_linear_219_1289" x1="17.2611" y1="50.5117" x2="30.1718" y2="1.89068" gradientUnits="userSpaceOnUse">
<stop stop-color="#46ADD8"/>
<stop offset="1" stop-color="#675AF1"/>
</linearGradient>
<linearGradient id="paint8_linear_219_1289" x1="17.2611" y1="50.5117" x2="30.1718" y2="1.89068" gradientUnits="userSpaceOnUse">
<stop stop-color="#46ADD8"/>
<stop offset="1" stop-color="#675AF1"/>
</linearGradient>
<linearGradient id="paint9_linear_219_1289" x1="17.2611" y1="50.5117" x2="30.1718" y2="1.89068" gradientUnits="userSpaceOnUse">
<stop stop-color="#46ADD8"/>
<stop offset="1" stop-color="#675AF1"/>
</linearGradient>
</defs>
</svg>
