<svg width="77" height="56" viewBox="0 0 77 56" fill="none" xmlns="http://www.w3.org/2000/svg">
<path d="M71.2274 32.9789C71.4387 33.1902 71.7165 33.2973 71.9943 33.2973C72.2722 33.2973 72.55 33.1916 72.7612 32.9789L76.2514 29.4888C76.3802 29.36 76.4699 29.2066 76.5191 29.0445C76.5726 28.8695 76.5828 28.6842 76.5466 28.5063C76.5451 28.499 76.5437 28.4918 76.5408 28.4846C76.535 28.4571 76.5278 28.431 76.5205 28.4035C76.5177 28.3934 76.5133 28.3847 76.5104 28.3746C76.5017 28.3514 76.4945 28.3283 76.4844 28.3051C76.48 28.295 76.4742 28.2849 76.4699 28.2747C76.4598 28.253 76.4496 28.2313 76.4395 28.2096C76.4337 28.1981 76.4265 28.1879 76.4207 28.1778C76.4091 28.159 76.399 28.1387 76.386 28.1199C76.3773 28.1069 76.3672 28.0939 76.357 28.0808C76.3455 28.0664 76.3353 28.0505 76.3237 28.036C76.302 28.0085 76.2774 27.9825 76.2528 27.9579L72.7641 24.4691C72.3402 24.0452 71.6528 24.0452 71.2289 24.4691C70.8049 24.8931 70.8049 25.5804 71.2289 26.0044L72.8654 27.641H44.3104C44.1512 25.0118 42.2383 22.8485 39.7277 22.3073L39.8826 21.1801C40.6104 15.8624 43.7489 11.1206 48.2766 8.4943C50.913 6.96482 53.9286 6.1574 56.9948 6.1574H72.8669L71.2289 7.7954C70.8049 8.21937 70.8049 8.90669 71.2289 9.33066C71.4401 9.54192 71.718 9.649 71.9958 9.649C72.2736 9.649 72.5514 9.54337 72.7627 9.33066L76.2528 5.8405C76.3541 5.73921 76.4308 5.62345 76.4829 5.49901C76.4829 5.49901 76.4829 5.49612 76.4844 5.49467C76.4974 5.46428 76.509 5.4339 76.5176 5.40206C76.5176 5.39917 76.5191 5.39628 76.5205 5.39483C76.5307 5.36155 76.5394 5.32827 76.5466 5.29499C76.5466 5.29499 76.5466 5.29354 76.5466 5.29209C76.5755 5.14884 76.5755 4.9998 76.5466 4.85655C76.5466 4.85076 76.5437 4.84642 76.5422 4.84208C76.5365 4.81314 76.5292 4.7842 76.5191 4.75526C76.5162 4.74802 76.5133 4.74079 76.5119 4.73355C76.5032 4.70751 76.4945 4.68146 76.4829 4.65541C76.48 4.64818 76.4757 4.64094 76.4728 4.63371C76.4612 4.60911 76.4511 4.58451 76.4381 4.55991C76.4337 4.55268 76.4294 4.54544 76.425 4.53965C76.412 4.5165 76.3976 4.49335 76.3831 4.4702C76.3787 4.46296 76.373 4.45573 76.3672 4.44849C76.3527 4.42679 76.3368 4.40653 76.3209 4.38627C76.3136 4.37614 76.3035 4.36746 76.2963 4.35878C76.2818 4.34142 76.2673 4.32405 76.2514 4.30813L72.7612 0.817978C72.3373 0.394007 71.6499 0.394007 71.226 0.817978C70.802 1.24195 70.802 1.92927 71.226 2.35324L72.864 3.99124H56.9933C53.5451 3.99124 50.1534 4.89996 47.187 6.62044C42.0849 9.57955 38.5499 14.9132 37.7309 20.8893L37.5428 22.2596C34.7877 22.7183 32.6809 25.116 32.6809 27.9998C32.6809 30.8837 34.7877 33.2814 37.5428 33.7401L37.728 35.0973C38.5947 41.4308 42.4293 46.9338 47.9843 49.8176C50.7452 51.2516 53.8606 52.0084 56.9919 52.0084H72.864L71.226 53.6464C70.802 54.0704 70.802 54.7577 71.226 55.1817C71.4372 55.3929 71.7151 55.5 71.9929 55.5C72.2707 55.5 72.5485 55.3944 72.7598 55.1817L76.2499 51.6915C76.3512 51.5902 76.4279 51.4745 76.48 51.35C76.48 51.35 76.48 51.3471 76.4815 51.3457C76.4945 51.3153 76.5061 51.2849 76.5148 51.2531C76.5148 51.2502 76.5162 51.2473 76.5176 51.2458C76.5278 51.2125 76.5365 51.1793 76.5437 51.146C76.5437 51.146 76.5437 51.1445 76.5437 51.1431C76.5726 50.9998 76.5726 50.8508 76.5437 50.7075C76.5437 50.7018 76.5408 50.6974 76.5394 50.6931C76.5336 50.6641 76.5263 50.6352 76.5162 50.6063C76.5133 50.599 76.5104 50.5918 76.509 50.5845C76.5003 50.5585 76.4916 50.5325 76.48 50.5064C76.4771 50.4992 76.4728 50.4919 76.4699 50.4847C76.4583 50.4601 76.4482 50.4355 76.4352 50.4109C76.4308 50.4037 76.4265 50.3964 76.4221 50.3907C76.4091 50.3675 76.3947 50.3443 76.3802 50.3212C76.3758 50.314 76.3701 50.3067 76.3643 50.2995C76.3498 50.2778 76.3339 50.2575 76.318 50.2373C76.3107 50.2271 76.3006 50.2185 76.2934 50.2098C76.2789 50.1924 76.2644 50.175 76.2485 50.1591L72.7583 46.669C72.3344 46.245 71.6471 46.245 71.2231 46.669C70.7991 47.0929 70.7991 47.7803 71.2231 48.2042L72.8611 49.8422H56.9904C54.1659 49.8422 51.4716 49.1867 48.9827 47.8946C44.0528 45.3363 40.648 40.4425 39.8768 34.8065L39.7248 33.6923C41.7506 33.2553 43.3872 31.762 44.0282 29.8187H72.864L71.226 31.4567C70.802 31.8807 70.802 32.568 71.226 32.992L71.2274 32.9789ZM38.5007 31.6405C36.4879 31.6405 34.8514 30.0039 34.8514 27.9911C34.8514 25.9784 36.4879 24.3418 38.5007 24.3418C38.5007 24.3418 38.5007 24.3418 38.5021 24.3418C38.5021 24.3418 38.5021 24.3418 38.5036 24.3418C40.5149 24.3433 42.15 25.9798 42.15 27.9911C42.15 30.0025 40.5135 31.6405 38.5007 31.6405Z" fill="url(#paint0_linear_219_1309)"/>
<path d="M27.9825 24.4634C27.5585 24.0394 26.8712 24.0394 26.4472 24.4634C26.0232 24.8873 26.0232 25.5747 26.4472 25.9986L28.0838 27.6352H1.51689C0.917832 27.6352 0.431641 28.1214 0.431641 28.7204C0.431641 29.3195 0.917832 29.8057 1.51689 29.8057H28.0852L26.4458 31.4451C26.0218 31.8691 26.0218 32.5564 26.4458 32.9804C26.657 33.1916 26.9348 33.2987 27.2127 33.2987C27.4905 33.2987 27.7683 33.1931 27.9796 32.9804L31.4697 29.4902C31.8937 29.0663 31.8937 28.3789 31.4697 27.955L27.9796 24.4648L27.9825 24.4634Z" fill="url(#paint1_linear_219_1309)"/>
<defs>
<linearGradient id="paint0_linear_219_1309" x1="18.3352" y1="50.5117" x2="30.7262" y2="1.6016" gradientUnits="userSpaceOnUse">
<stop stop-color="#46ADD8"/>
<stop offset="1" stop-color="#675AF1"/>
</linearGradient>
<linearGradient id="paint1_linear_219_1309" x1="18.3352" y1="50.5117" x2="30.7262" y2="1.6016" gradientUnits="userSpaceOnUse">
<stop stop-color="#46ADD8"/>
<stop offset="1" stop-color="#675AF1"/>
</linearGradient>
</defs>
</svg>
