<svg width="55" height="56" viewBox="0 0 55 56" fill="none" xmlns="http://www.w3.org/2000/svg">
<path d="M0.000976562 27.9755C0.00653326 15.3051 8.48494 4.84316 19.6761 1.63077C31.8497 -1.86434 44.4556 2.90638 50.8381 13.68C56.5492 23.3205 56.3003 33.1157 50.5947 42.7607C50.1079 43.5833 49.2666 43.8181 48.5743 43.384C47.8719 42.9432 47.7319 42.1173 48.2509 41.2914C51.0281 36.8702 52.3739 32.0494 52.0716 26.8334C51.5904 18.5208 47.8452 11.9903 40.9683 7.35096C35.7194 3.81021 29.8671 2.65816 23.6225 3.57089C13.8027 5.00678 5.54878 12.7561 3.38389 22.5246C0.478852 35.6324 8.31157 48.5521 21.3198 51.9114C28.0623 53.6523 34.4703 52.6182 40.4448 49.004C40.7127 48.8426 40.9794 48.6567 41.2716 48.5643C41.9296 48.3562 42.6041 48.6834 42.8909 49.299C43.1943 49.9479 43.0053 50.6892 42.333 51.0799C41.1216 51.7845 39.9114 52.5092 38.6367 53.0835C33.9257 55.2073 28.9836 55.9653 23.8692 55.2218C14.1828 53.8137 7.15133 48.6289 2.72598 39.929C0.826701 36.1934 0.00319924 32.1674 0.000976562 27.9755Z" fill="url(#paint0_linear_219_1228)"/>
<path d="M19.5783 27.9531C19.5783 24.4001 19.5694 20.8483 19.5817 17.2953C19.5883 15.3841 21.4231 14.1797 23.0801 14.9767C23.2457 15.0568 23.4058 15.1514 23.5602 15.2527C28.9225 18.7612 34.2858 22.2697 39.6447 25.7826C40.8138 26.5484 41.235 27.6014 40.8605 28.7612C40.6504 29.4124 40.1903 29.8443 39.6335 30.2083C35.3804 32.9843 31.1329 35.767 26.8832 38.5487C25.7707 39.2766 24.6549 40.0001 23.548 40.737C22.6934 41.3058 21.7999 41.4371 20.8819 40.9474C19.9395 40.4443 19.5717 39.605 19.575 38.5553C19.585 35.0213 19.5783 31.4872 19.5783 27.9531ZM37.9476 27.9899C32.7243 24.5704 27.5788 21.2022 22.4 17.8117V38.168C27.5933 34.7675 32.721 31.4115 37.9476 27.9899Z" fill="url(#paint1_linear_219_1228)"/>
<path d="M44.4656 46.4984C44.4534 45.7292 45.1313 45.038 45.9015 45.0335C46.6461 45.0302 47.2807 45.6535 47.2918 46.4004C47.3029 47.1618 46.6172 47.8619 45.8548 47.8652C45.1102 47.8686 44.4779 47.2464 44.4656 46.4984Z" fill="url(#paint2_linear_219_1228)"/>
<defs>
<linearGradient id="paint0_linear_219_1228" x1="12.9339" y1="50.5117" x2="29.1889" y2="4.16323" gradientUnits="userSpaceOnUse">
<stop stop-color="#46ADD8"/>
<stop offset="1" stop-color="#675AF1"/>
</linearGradient>
<linearGradient id="paint1_linear_219_1228" x1="12.9339" y1="50.5117" x2="29.1889" y2="4.16323" gradientUnits="userSpaceOnUse">
<stop stop-color="#46ADD8"/>
<stop offset="1" stop-color="#675AF1"/>
</linearGradient>
<linearGradient id="paint2_linear_219_1228" x1="12.9339" y1="50.5117" x2="29.1889" y2="4.16323" gradientUnits="userSpaceOnUse">
<stop stop-color="#46ADD8"/>
<stop offset="1" stop-color="#675AF1"/>
</linearGradient>
</defs>
</svg>
